<svg xmlns="http://www.w3.org/2000/svg" viewBox="0 0 203.44 98.62">
  <title>tip-toi-logo</title>
  <g id="Layer_2" data-name="Layer 2">
    <g id="Layer_1-2" data-name="Layer 1">
      <g>
        <path d="M196.4,51.62H155.18c0-.21.06-.42.06-.64V26.55a10,10,0,0,0-1.22-4.8,13.29,13.29,0,0,0,3-8.32,13.49,13.49,0,0,0-27,0V17.9a25.17,25.17,0,0,0-22.55-.18,9.46,9.46,0,0,0-5.89-6.06v-.18a9.65,9.65,0,0,0-9.88-9.86h-5.3a9.65,9.65,0,0,0-9.89,9.86V13A9.51,9.51,0,0,0,73,18.35a25,25,0,0,0-9.21-1.72,24.36,24.36,0,0,0-13.49,4,13.28,13.28,0,0,0,2.11-7.16A13.46,13.46,0,0,0,28,5.56,9.7,9.7,0,0,0,19.7,1.13H14.4A9.65,9.65,0,0,0,4.51,11v1.53a9.71,9.71,0,0,0-3.84,7.9v2.39a9.71,9.71,0,0,0,3.84,7.91v9.47a18.84,18.84,0,0,0,18.4,19.14c.63.06,1.09.08,1.49.08s.7,0,1.09,0h.07l1,0H35a25.55,25.55,0,0,0,5.38-.56v7.12a9.66,9.66,0,0,0,9.89,9.86H196.4a7.69,7.69,0,0,0,7.7-7.68V59.29a7.69,7.69,0,0,0-7.7-7.67" transform="translate(-0.67)" fill="#919291"/>
        <path d="M38.9,8a5.48,5.48,0,0,0-5.49,5.47v5.47H38.9A5.47,5.47,0,1,0,38.9,8" transform="translate(-0.67)" fill="#f39100"/>
        <path d="M12.51,25.62a.85.85,0,0,0-.94-.94h-1A1.71,1.71,0,0,1,8.67,22.8V20.42a1.72,1.72,0,0,1,1.89-1.88H11.7a.83.83,0,0,0,.81-.92V11A1.71,1.71,0,0,1,14.4,9.1h5.3A1.71,1.71,0,0,1,21.58,11v6.65a.83.83,0,0,0,.82.92h3.69A1.72,1.72,0,0,1,28,20.42V22.8a1.71,1.71,0,0,1-1.89,1.87H22.87a.86.86,0,0,0-.94.94V38.76c0,4.17,2.68,4.27,4.41,4.27A1.52,1.52,0,0,1,28,44.7v4.69a1.77,1.77,0,0,1-1.68,2h0a17.27,17.27,0,0,1-2.89,0A11,11,0,0,1,12.51,40.18V25.62m72,.49V40.67A11,11,0,0,0,95.43,51.85a17.27,17.27,0,0,0,2.89,0h0a1.76,1.76,0,0,0,1.68-2v-4.7a1.52,1.52,0,0,0-1.68-1.67c-1.73,0-4.41-.1-4.41-4.27V26.11a.85.85,0,0,1,.94-.94h3.23A1.71,1.71,0,0,0,100,23.29V20.91A1.71,1.71,0,0,0,98.07,19H94.38a.83.83,0,0,1-.82-.92V11.47a1.71,1.71,0,0,0-1.88-1.88H86.38a1.71,1.71,0,0,0-1.88,1.88v6.65a.83.83,0,0,1-.82.92H82.53a1.71,1.71,0,0,0-1.89,1.88v2.38a1.71,1.71,0,0,0,1.89,1.87h1a.85.85,0,0,1,.94.94M63.77,32.7a6.14,6.14,0,1,1-6.24,6.14,6.09,6.09,0,0,1,6.24-6.14m0,20.38c9.24,0,15.4-6.65,15.4-14.24S73,24.6,63.77,24.6s-15.4,6.65-15.4,14.24V65.95a1.71,1.71,0,0,0,1.88,1.88h5.39a1.71,1.71,0,0,0,1.89-1.88V53.08c0-.77.42-.94,1.11-.77a16.77,16.77,0,0,0,5.13.77m61-15.05a6.25,6.25,0,0,1-12.5,0v-.68a6.25,6.25,0,0,1,12.5,0Zm-6.25,14.24c9.24,0,15.4-6.65,15.4-14.24v-.68c0-7.58-6.16-14.24-15.4-14.24s-15.41,6.65-15.41,14.24V38c0,7.59,6.16,14.24,15.41,14.24M40.75,24.68h-5.3a1.71,1.71,0,0,0-1.88,1.88v23a1.71,1.71,0,0,0,1.88,1.88h5.3a1.71,1.71,0,0,0,1.88-1.88v-23a1.71,1.71,0,0,0-1.88-1.88m104.6,0h-5.3a1.71,1.71,0,0,0-1.88,1.88v23a1.71,1.71,0,0,0,1.88,1.88h5.3a1.71,1.71,0,0,0,1.88-1.88v-23a1.71,1.71,0,0,0-1.88-1.88" transform="translate(-0.67)" fill="#fff"/>
        <path d="M143.51,8A5.48,5.48,0,0,0,138,13.44v5.47h5.49a5.47,5.47,0,1,0,0-10.94" transform="translate(-0.67)" fill="#f39100"/>
        <path d="M63.3,62.21a.87.87,0,0,1,.9-.93.74.74,0,0,1,.82.63,2.31,2.31,0,0,1,1.67-.7,2.35,2.35,0,0,1,1.86.85,2.79,2.79,0,0,1,1.9-.85,2.19,2.19,0,0,1,2.46,2.27V66.7a.9.9,0,1,1-1.8,0V63.77a1.06,1.06,0,1,0-2.1,0V66.7a.9.9,0,1,1-1.8,0V63.77a1,1,0,0,0-1-1.16c-.74,0-1.06.47-1.06,1.16V66.7a.9.9,0,1,1-1.8,0Zm14,4a1.53,1.53,0,0,1-1.42-1.7,1.43,1.43,0,1,1,2.81,0,1.53,1.53,0,0,1-1.39,1.7m3.18-3.79c0-.43,0-1.1-.86-1.1a.83.83,0,0,0-.86.7,2.11,2.11,0,0,0-1.71-.77,3.09,3.09,0,0,0-3,3.26,3,3,0,0,0,3,3.24,2.21,2.21,0,0,0,1.71-.78.81.81,0,0,0,.86.71c.86,0,.86-.66.86-1.1Zm5.68.7a.78.78,0,0,0,.68-.81c0-.82-1.48-1.06-2.19-1.06a3.23,3.23,0,0,0-3.22,3.26,3.15,3.15,0,0,0,3.22,3.24c.65,0,2.19-.29,2.19-1.16a.76.76,0,0,0-.77-.73,10.3,10.3,0,0,1-1.34.35,1.58,1.58,0,0,1-1.5-1.7,1.55,1.55,0,0,1,1.5-1.72c.58,0,1,.33,1.43.33m1.75,3.62a.9.9,0,1,0,1.79,0V63.76a1.16,1.16,0,0,1,2.32,0v2.93a.9.9,0,1,0,1.8,0V63.47a2.5,2.5,0,0,0-4.09-1.68h0V59.5a.9.9,0,1,0-1.79,0Zm8.31,0a.9.9,0,1,0,1.8,0V62.82h.51c.46,0,.86-.21.86-.74s-.4-.74-.86-.74h-.51v-1a.9.9,0,1,0-1.8,0v1h-.4a.75.75,0,0,0-.79.74.71.71,0,0,0,.79.74h.4Zm10.45,0a1.19,1.19,0,0,0,1.23.91,1.25,1.25,0,0,0,1.23-.85l1.45-4.51h0l1.45,4.51a1.26,1.26,0,0,0,1.23.85,1.2,1.2,0,0,0,1.23-.91l1.58-6.38a1.31,1.31,0,0,0,.06-.39.83.83,0,0,0-.89-.77.93.93,0,0,0-1,.84l-1.07,5h0l-1.62-5.12a1,1,0,0,0-2,0L108,65h0L107,60a.94.94,0,0,0-1-.84.83.83,0,0,0-.88.77,1.53,1.53,0,0,0,0,.39Zm10.65,0a.9.9,0,1,0,1.8,0V62.21a.9.9,0,1,0-1.8,0Zm1.91-7a1,1,0,0,0-2,0,1,1,0,0,0,1,1,1,1,0,0,0,1-1m4.86,3.5a.74.74,0,0,0,.73-.75c0-.83-1.36-1.22-2.24-1.22-1.43,0-2.44.79-2.44,2,0,1.93,3.12,1.81,3.12,2.58,0,.32-.16.48-.71.48-.85,0-1.16-.57-1.85-.57a.82.82,0,0,0-.78.75c0,.76,1.5,1.3,2.51,1.3,1.54,0,2.56-.85,2.56-2,0-1.91-3.12-1.8-3.12-2.58,0-.33.28-.47.61-.47.59,0,1.27.49,1.61.49m5.75,0a.75.75,0,0,0,.74-.75c0-.83-1.36-1.22-2.24-1.22-1.43,0-2.43.79-2.43,2,0,1.93,3.12,1.81,3.12,2.58,0,.32-.16.48-.71.48-.85,0-1.16-.57-1.86-.57a.82.82,0,0,0-.78.75c0,.76,1.5,1.3,2.51,1.3,1.55,0,2.56-.85,2.56-2,0-1.91-3.12-1.8-3.12-2.58,0-.33.29-.47.61-.47.58,0,1.27.49,1.61.49m3.64.72a1.4,1.4,0,0,1,1.42-1.28,1.38,1.38,0,0,1,1.43,1.28ZM137.38,65c.55,0,.79-.24.79-.75a3.23,3.23,0,0,0-6.45.2,3.17,3.17,0,0,0,3.36,3.24c1.34,0,2.93-.7,2.93-1.43a.77.77,0,0,0-.73-.72c-.48,0-1.11.68-2,.68A1.53,1.53,0,0,1,133.55,65Zm1.86,1.68a.9.9,0,1,0,1.79,0V63.77a1.16,1.16,0,0,1,2.31,0V66.7a.9.9,0,1,0,1.8,0V63.47a2.23,2.23,0,0,0-2.46-2.27,2,2,0,0,0-1.74.69.75.75,0,0,0-.83-.62.87.87,0,0,0-.89.93Zm10.63,0a.9.9,0,1,0,1.79,0V59.5a.9.9,0,1,0-1.79,0Zm4.39-2.8a1.41,1.41,0,0,1,1.42-1.28,1.39,1.39,0,0,1,1.44,1.28ZM158.14,65c.54,0,.79-.24.79-.75a3.23,3.23,0,0,0-6.45.2,3.17,3.17,0,0,0,3.37,3.24c1.34,0,2.94-.7,2.94-1.43a.78.78,0,0,0-.74-.72c-.47,0-1.11.68-2,.68a1.53,1.53,0,0,1-1.7-1.22ZM163,66.16c-1,0-1.41-.94-1.41-1.75A1.49,1.49,0,0,1,163,62.74a1.56,1.56,0,0,1,1.39,1.72,1.55,1.55,0,0,1-1.39,1.7m-3.21.54a.88.88,0,0,0,.9.93.85.85,0,0,0,.9-.7,2,2,0,0,0,1.64.77,3.05,3.05,0,0,0,3-3.17c0-1.64-1-3.33-2.9-3.33a2.71,2.71,0,0,0-1.71.58V59.5a.9.9,0,1,0-1.8,0Zm8.76-2.8a1.41,1.41,0,0,1,1.42-1.28,1.39,1.39,0,0,1,1.43,1.28ZM172.38,65c.55,0,.79-.24.79-.75a3.23,3.23,0,0,0-6.45.2,3.17,3.17,0,0,0,3.37,3.24c1.34,0,2.93-.7,2.93-1.43a.77.77,0,0,0-.73-.72c-.48,0-1.11.68-2,.68A1.53,1.53,0,0,1,168.55,65ZM174,66.7a.9.9,0,1,0,1.8,0V63.77a1.16,1.16,0,0,1,2.32,0V66.7a.9.9,0,1,0,1.8,0V63.47a2.24,2.24,0,0,0-2.46-2.27,2,2,0,0,0-1.74.69.74.74,0,0,0-.82-.62.87.87,0,0,0-.9.93Zm9.81-4a1.49,1.49,0,0,1,1.41,1.66c0,.82-.42,1.75-1.41,1.75a1.55,1.55,0,0,1-1.4-1.7,1.56,1.56,0,0,1,1.4-1.72M187,59.5a.9.9,0,1,0-1.8,0v2.29a2.73,2.73,0,0,0-1.71-.58c-1.93,0-2.89,1.69-2.89,3.33a3,3,0,0,0,3,3.17,2,2,0,0,0,1.64-.77.85.85,0,0,0,.9.7.88.88,0,0,0,.9-.94Zm1.18,7.2a.9.9,0,1,0,1.8,0V62.21a.9.9,0,1,0-1.8,0Zm1.91-7a1,1,0,0,0-2,0,1,1,0,0,0,1,1,1,1,0,0,0,1-1m3.75,3.07c1,0,1.41.94,1.41,1.76a1.49,1.49,0,0,1-1.41,1.66c-.94,0-1.4-.82-1.4-1.72a1.55,1.55,0,0,1,1.4-1.69m3.2-.54a.87.87,0,0,0-.9-.93.84.84,0,0,0-.9.7,2,2,0,0,0-1.65-.77,3.08,3.08,0,0,0-3,3.27c0,1.67.89,3.23,2.77,3.23a2.12,2.12,0,0,0,1.81-.79h0v.4a1.34,1.34,0,0,1-1.52,1.33c-1,0-1.67-.53-2.25-.53a.85.85,0,0,0-.72.74c0,.92,2.1,1.26,2.83,1.26,2,0,3.46-1,3.46-3Z" transform="translate(-0.67)" fill="#fff"/>
        <path d="M161.91,44.74l.49,0a1.25,1.25,0,0,0,.41-.1.63.63,0,0,0,.29-.24.8.8,0,0,0,.11-.45.71.71,0,0,0-.1-.39.62.62,0,0,0-.25-.22,1.07,1.07,0,0,0-.35-.11l-.39,0h-1v1.56Zm.34-2.17a2,2,0,0,1,1.3.35A1.29,1.29,0,0,1,164,44a1.19,1.19,0,0,1-.37,1,1.66,1.66,0,0,1-.92.36l1.4,2.16h-.82l-1.34-2.1h-.81v2.1h-.76V42.57Zm-3.47,3.86a3.58,3.58,0,0,0,.73,1.14,3.42,3.42,0,0,0,1.1.76,3.49,3.49,0,0,0,1.38.27,3.4,3.4,0,0,0,1.36-.27,3.45,3.45,0,0,0,1.1-.76,3.49,3.49,0,0,0,.73-1.14,3.82,3.82,0,0,0,.26-1.43,3.71,3.71,0,0,0-.26-1.4,3.4,3.4,0,0,0-.73-1.12,3.48,3.48,0,0,0-1.1-.75,3.36,3.36,0,0,0-1.36-.28,3.43,3.43,0,0,0-2.48,1,3.49,3.49,0,0,0-.73,1.13,3.75,3.75,0,0,0-.26,1.4,3.86,3.86,0,0,0,.26,1.43m-.69-3.08A4.22,4.22,0,0,1,159,42a4.28,4.28,0,0,1,1.35-.88,4.24,4.24,0,0,1,1.64-.32,4.24,4.24,0,0,1,3,1.2,4.22,4.22,0,0,1,.91,1.32A4,4,0,0,1,166.2,45a4.12,4.12,0,0,1-.34,1.68A4.23,4.23,0,0,1,165,48a4.1,4.1,0,0,1-1.34.88,4.22,4.22,0,0,1-1.63.31,4.29,4.29,0,0,1-1.64-.31,4.16,4.16,0,0,1-2.26-2.21,4.14,4.14,0,0,1-.34-1.68,4,4,0,0,1,.34-1.65" transform="translate(-0.67)" fill="#181716"/>
        <g>
          <path d="M.72,93.93V85a1.19,1.19,0,0,1,.35-.89A1.21,1.21,0,0,1,2,83.73H4.61a6.5,6.5,0,0,1,2.4.42,4.87,4.87,0,0,1,1.77,1.18,5,5,0,0,1,1.1,1.85,7.44,7.44,0,0,1,.37,2.42,6.4,6.4,0,0,1-.39,2.28A4.82,4.82,0,0,1,7,94.74a6.2,6.2,0,0,1-2.23.39H2A1.52,1.52,0,0,1,1.4,95a1.13,1.13,0,0,1-.48-.39A1.15,1.15,0,0,1,.72,93.93Zm2.4-8v7H4.74a3,3,0,0,0,1.68-.45,2.71,2.71,0,0,0,1-1.22,4.47,4.47,0,0,0,.33-1.77,4.72,4.72,0,0,0-.34-1.84,2.65,2.65,0,0,0-1-1.25,3.29,3.29,0,0,0-1.79-.45Z" transform="translate(-0.67)" fill="#225ca9"/>
          <path d="M19.22,88v5.7A2.66,2.66,0,0,1,19,94.81q-.19.41-.92.41a1,1,0,0,1-.72-.25,1.52,1.52,0,0,1-.38-.73,2.79,2.79,0,0,1-2.2,1.08,3.48,3.48,0,0,1-1.94-.57,3.89,3.89,0,0,1-1.37-1.58,5.13,5.13,0,0,1-.5-2.29,5,5,0,0,1,.51-2.26A4.09,4.09,0,0,1,12.9,87a3.36,3.36,0,0,1,1.92-.59,3,3,0,0,1,1.24.27,2.36,2.36,0,0,1,1,.79,1,1,0,0,1,.36-.69,1.11,1.11,0,0,1,.74-.27q.74,0,.92.42A2.69,2.69,0,0,1,19.22,88Zm-5.91,2.87A3.1,3.1,0,0,0,13.52,92a2,2,0,0,0,.62.87,1.53,1.53,0,0,0,1,.33,1.49,1.49,0,0,0,1.31-.7,2.86,2.86,0,0,0,.47-1.63,3.24,3.24,0,0,0-.2-1.12,2.06,2.06,0,0,0-.61-.89,1.46,1.46,0,0,0-1-.34,1.53,1.53,0,0,0-1,.34,2,2,0,0,0-.62.89A3.22,3.22,0,0,0,13.31,90.89Z" transform="translate(-0.67)" fill="#225ca9"/>
          <path d="M26.33,88.09a1.06,1.06,0,0,1-.27.71.85.85,0,0,1-.67.31,2.14,2.14,0,0,1-.68-.23l-.78-.34a1.62,1.62,0,0,0-.61-.11.92.92,0,0,0-.56.16.56.56,0,0,0-.22.48q0,.34.69.64l1.46.62a4.07,4.07,0,0,1,1.31.85,1.91,1.91,0,0,1,.54,1.43A2.46,2.46,0,0,1,26.14,94,2.77,2.77,0,0,1,25,95a4,4,0,0,1-1.72.36,4.84,4.84,0,0,1-1.44-.23,3.82,3.82,0,0,1-1.27-.65,1.17,1.17,0,0,1-.52-.9,1.11,1.11,0,0,1,.28-.67.87.87,0,0,1,.72-.36,1.43,1.43,0,0,1,.55.1,5.62,5.62,0,0,1,.59.3,4.11,4.11,0,0,0,.62.3,1.9,1.9,0,0,0,.64.09,1.17,1.17,0,0,0,.71-.16.6.6,0,0,0,.2-.5q0-.34-.67-.62l-1.46-.62a4,4,0,0,1-1.34-.87,1.93,1.93,0,0,1-.54-1.43,2.5,2.5,0,0,1,.4-1.4,2.66,2.66,0,0,1,1.11-1,3.7,3.7,0,0,1,1.62-.34,4.74,4.74,0,0,1,1.3.19,3,3,0,0,1,1.12.57A1.15,1.15,0,0,1,26.33,88.09Z" transform="translate(-0.67)" fill="#225ca9"/>
          <path d="M39.54,88v5.7a2.66,2.66,0,0,1-.19,1.09q-.19.41-.92.41A1,1,0,0,1,37.7,95a1.52,1.52,0,0,1-.38-.73,2.79,2.79,0,0,1-2.2,1.08,3.48,3.48,0,0,1-1.94-.57,3.89,3.89,0,0,1-1.37-1.58,5.13,5.13,0,0,1-.5-2.29,5,5,0,0,1,.51-2.26A4.09,4.09,0,0,1,33.21,87a3.36,3.36,0,0,1,1.92-.59,3,3,0,0,1,1.24.27,2.36,2.36,0,0,1,1,.79,1,1,0,0,1,.36-.69,1.11,1.11,0,0,1,.74-.27q.74,0,.92.42A2.69,2.69,0,0,1,39.54,88Zm-5.91,2.87A3.1,3.1,0,0,0,33.83,92a2,2,0,0,0,.62.87,1.53,1.53,0,0,0,1,.33,1.49,1.49,0,0,0,1.31-.7,2.86,2.86,0,0,0,.47-1.63,3.24,3.24,0,0,0-.2-1.12,2.06,2.06,0,0,0-.61-.89,1.46,1.46,0,0,0-1-.34,1.53,1.53,0,0,0-1,.34,2,2,0,0,0-.62.89A3.22,3.22,0,0,0,33.62,90.89Z" transform="translate(-0.67)" fill="#225ca9"/>
          <path d="M40.85,92V87.8a1.34,1.34,0,0,1,.32-.93,1.06,1.06,0,0,1,.83-.36,1.12,1.12,0,0,1,.6.16,1.1,1.1,0,0,1,.41.45,1.46,1.46,0,0,1,.15.67v4.11A1.41,1.41,0,0,0,43.6,93a1.49,1.49,0,0,0,1,.41,1.58,1.58,0,0,0,.74-.18,1.39,1.39,0,0,0,.54-.51,1.5,1.5,0,0,0,.21-.81V87.8a1.34,1.34,0,0,1,.32-.93,1.06,1.06,0,0,1,.83-.36,1.12,1.12,0,0,1,.6.16,1.1,1.1,0,0,1,.41.45,1.46,1.46,0,0,1,.15.67V92A3.5,3.5,0,0,1,48,93.75a2.9,2.9,0,0,1-1.31,1.17,4.75,4.75,0,0,1-2.05.41,4,4,0,0,1-2.8-.91A3.17,3.17,0,0,1,40.85,92Z" transform="translate(-0.67)" fill="#225ca9"/>
          <path d="M57.64,84.08v9.86a1.46,1.46,0,0,1-.15.67,1.09,1.09,0,0,1-.41.45,1.13,1.13,0,0,1-.59.16,1.09,1.09,0,0,1-1.15-1,2.11,2.11,0,0,1-.9.78,2.8,2.8,0,0,1-1.22.28,3.34,3.34,0,0,1-2-.62,4.08,4.08,0,0,1-1.35-1.63,4.88,4.88,0,0,1-.47-2.1,5.88,5.88,0,0,1,.42-2.22,4,4,0,0,1,1.27-1.7,3.23,3.23,0,0,1,2-.65,3.5,3.5,0,0,1,.78.09,3.45,3.45,0,0,1,.74.26,3.18,3.18,0,0,1,.67.45V84.08a1.34,1.34,0,0,1,.32-.93,1.06,1.06,0,0,1,.83-.36,1.12,1.12,0,0,1,.6.16,1.1,1.1,0,0,1,.41.45A1.46,1.46,0,0,1,57.64,84.08Zm-2.31,6.73a2.72,2.72,0,0,0-.47-1.61,1.54,1.54,0,0,0-1.34-.67,1.46,1.46,0,0,0-1,.35,2.12,2.12,0,0,0-.61.89,3.15,3.15,0,0,0-.2,1.12,3.08,3.08,0,0,0,.12.82,2.64,2.64,0,0,0,.34.76,1.71,1.71,0,0,0,.57.54,1.47,1.47,0,0,0,.76.2,1.49,1.49,0,0,0,1-.35,2.09,2.09,0,0,0,.61-.91A3.36,3.36,0,0,0,55.33,90.81Z" transform="translate(-0.67)" fill="#225ca9"/>
          <path d="M60.07,83.06a1.21,1.21,0,0,1,.64.18,1.4,1.4,0,0,1,.48.47,1.16,1.16,0,0,1,.18.61,1.3,1.3,0,0,1-.38.93,1.23,1.23,0,0,1-1.82,0,1.29,1.29,0,0,1-.4-.92,1.2,1.2,0,0,1,.4-.88A1.26,1.26,0,0,1,60.07,83.06ZM58.92,93.95V87.8a1.34,1.34,0,0,1,.32-.93,1.06,1.06,0,0,1,.83-.36,1.12,1.12,0,0,1,.6.16,1.1,1.1,0,0,1,.41.45,1.46,1.46,0,0,1,.15.67v6.15a1.46,1.46,0,0,1-.15.67,1.09,1.09,0,0,1-.41.45,1.13,1.13,0,0,1-.59.16,1.06,1.06,0,0,1-.83-.36A1.34,1.34,0,0,1,58.92,93.95Z" transform="translate(-0.67)" fill="#225ca9"/>
          <path d="M66.31,86.42a3.84,3.84,0,0,1,1.66.36,4,4,0,0,1,1.32,1,4.58,4.58,0,0,1,.85,1.42,4.75,4.75,0,0,1,.3,1.69,4.86,4.86,0,0,1-.3,1.71A4.47,4.47,0,0,1,69.31,94,3.89,3.89,0,0,1,68,95a4,4,0,0,1-1.69.36,3.93,3.93,0,0,1-2.14-.6,4.06,4.06,0,0,1-1.47-1.62,4.83,4.83,0,0,1-.52-2.23,4.76,4.76,0,0,1,.3-1.67,4.6,4.6,0,0,1,.86-1.44,4,4,0,0,1,1.32-1A3.83,3.83,0,0,1,66.31,86.42Zm0,2.11a1.53,1.53,0,0,0-1,.34,2,2,0,0,0-.62.89,3.22,3.22,0,0,0-.2,1.13A3.1,3.1,0,0,0,64.69,92a2,2,0,0,0,.62.87,1.67,1.67,0,0,0,2,0,2,2,0,0,0,.62-.87,3.1,3.1,0,0,0,.21-1.12,3.19,3.19,0,0,0-.2-1.12,2.07,2.07,0,0,0-.62-.89A1.52,1.52,0,0,0,66.31,88.53Z" transform="translate(-0.67)" fill="#225ca9"/>
          <path d="M79.3,84.08v9.86a1.46,1.46,0,0,1-.15.67,1.09,1.09,0,0,1-.41.45,1.13,1.13,0,0,1-.59.16,1.09,1.09,0,0,1-1.15-1,2.11,2.11,0,0,1-.9.78,2.8,2.8,0,0,1-1.22.28,3.34,3.34,0,0,1-2-.62,4.08,4.08,0,0,1-1.35-1.63,4.88,4.88,0,0,1-.47-2.1,5.88,5.88,0,0,1,.42-2.22,4,4,0,0,1,1.27-1.7,3.23,3.23,0,0,1,2-.65,3.5,3.5,0,0,1,.78.09,3.45,3.45,0,0,1,.74.26,3.18,3.18,0,0,1,.67.45V84.08a1.34,1.34,0,0,1,.32-.93,1.06,1.06,0,0,1,.83-.36,1.12,1.12,0,0,1,.6.16,1.1,1.1,0,0,1,.41.45A1.46,1.46,0,0,1,79.3,84.08ZM77,90.81a2.72,2.72,0,0,0-.47-1.61,1.54,1.54,0,0,0-1.34-.67,1.46,1.46,0,0,0-1,.35,2.12,2.12,0,0,0-.61.89,3.15,3.15,0,0,0-.2,1.12,3.08,3.08,0,0,0,.12.82,2.64,2.64,0,0,0,.34.76,1.71,1.71,0,0,0,.57.54,1.47,1.47,0,0,0,.76.2,1.49,1.49,0,0,0,1-.35A2.09,2.09,0,0,0,76.8,92,3.36,3.36,0,0,0,77,90.81Z" transform="translate(-0.67)" fill="#225ca9"/>
          <path d="M81.74,83.06a1.21,1.21,0,0,1,.64.18,1.4,1.4,0,0,1,.48.47,1.16,1.16,0,0,1,.18.61,1.3,1.3,0,0,1-.38.93,1.23,1.23,0,0,1-1.82,0,1.29,1.29,0,0,1-.4-.92,1.2,1.2,0,0,1,.4-.88A1.26,1.26,0,0,1,81.74,83.06ZM80.59,93.95V87.8a1.34,1.34,0,0,1,.32-.93,1.06,1.06,0,0,1,.83-.36,1.12,1.12,0,0,1,.6.16,1.1,1.1,0,0,1,.41.45,1.46,1.46,0,0,1,.15.67v6.15a1.46,1.46,0,0,1-.15.67,1.09,1.09,0,0,1-.41.45,1.13,1.13,0,0,1-.59.16,1.06,1.06,0,0,1-.83-.36A1.34,1.34,0,0,1,80.59,93.95Z" transform="translate(-0.67)" fill="#225ca9"/>
          <path d="M92.06,87.8v6.66a4.42,4.42,0,0,1-.56,2.28,3.48,3.48,0,0,1-1.56,1.41,5.43,5.43,0,0,1-2.33.47,7.34,7.34,0,0,1-1.44-.19,5,5,0,0,1-1.54-.58,1.13,1.13,0,0,1-.65-1,1,1,0,0,1,.3-.67.85.85,0,0,1,.63-.34,3,3,0,0,1,1,.25q.65.25,1,.36a3.24,3.24,0,0,0,.93.11,2.31,2.31,0,0,0,1-.21,1.62,1.62,0,0,0,.7-.62,1.84,1.84,0,0,0,.25-1v-.55h0a2.62,2.62,0,0,1-2.32,1.09A3.27,3.27,0,0,1,85.85,95a3.21,3.21,0,0,1-1.12-1,4.48,4.48,0,0,1-.67-1.42,6.21,6.21,0,0,1-.22-1.67,5.38,5.38,0,0,1,.26-1.67,4.6,4.6,0,0,1,.77-1.44,3.67,3.67,0,0,1,1.21-1,3.34,3.34,0,0,1,1.55-.36,2.9,2.9,0,0,1,.82.12,2.57,2.57,0,0,1,.75.36,2,2,0,0,1,.55.58,1.09,1.09,0,0,1,1.15-1,1.12,1.12,0,0,1,.6.16,1.1,1.1,0,0,1,.41.45A1.47,1.47,0,0,1,92.06,87.8Zm-2.31,3.14a3.37,3.37,0,0,0-.2-1.14,2.09,2.09,0,0,0-.61-.91,1.49,1.49,0,0,0-1-.35,1.47,1.47,0,0,0-1,.34,2.09,2.09,0,0,0-.62.87,3.06,3.06,0,0,0-.2,1.11,3.27,3.27,0,0,0,.2,1.18,2,2,0,0,0,.61.86,1.52,1.52,0,0,0,1,.33,1.55,1.55,0,0,0,1.34-.67A2.72,2.72,0,0,0,89.75,90.94Z" transform="translate(-0.67)" fill="#225ca9"/>
          <path d="M94.49,83.06a1.21,1.21,0,0,1,.64.18,1.4,1.4,0,0,1,.48.47,1.16,1.16,0,0,1,.18.61,1.3,1.3,0,0,1-.38.93,1.23,1.23,0,0,1-1.82,0,1.29,1.29,0,0,1-.4-.92,1.2,1.2,0,0,1,.4-.88A1.26,1.26,0,0,1,94.49,83.06ZM93.34,93.95V87.8a1.34,1.34,0,0,1,.32-.93,1.06,1.06,0,0,1,.83-.36,1.12,1.12,0,0,1,.6.16,1.1,1.1,0,0,1,.41.45,1.46,1.46,0,0,1,.15.67v6.15a1.46,1.46,0,0,1-.15.67,1.09,1.09,0,0,1-.41.45,1.13,1.13,0,0,1-.59.16,1.06,1.06,0,0,1-.83-.36A1.34,1.34,0,0,1,93.34,93.95Z" transform="translate(-0.67)" fill="#225ca9"/>
          <path d="M97.5,93.94V88.63H97a1,1,0,0,1-1-1,1,1,0,0,1,1-1h.52V85.23a1.34,1.34,0,0,1,.32-.93,1.06,1.06,0,0,1,.83-.36,1.12,1.12,0,0,1,.6.16,1.1,1.1,0,0,1,.41.45,1.46,1.46,0,0,1,.15.67v1.38h.66a1.24,1.24,0,0,1,.79.25.91.91,0,0,1,.31.76.92.92,0,0,1-.31.76,1.23,1.23,0,0,1-.79.25H99.8v5.32a1.46,1.46,0,0,1-.15.67,1.1,1.1,0,0,1-.41.45,1.13,1.13,0,0,1-.59.16,1.06,1.06,0,0,1-.83-.36A1.34,1.34,0,0,1,97.5,93.94Z" transform="translate(-0.67)" fill="#225ca9"/>
          <path d="M109.56,88v5.7a2.66,2.66,0,0,1-.19,1.09q-.19.41-.92.41a1,1,0,0,1-.72-.25,1.52,1.52,0,0,1-.38-.73,2.79,2.79,0,0,1-2.2,1.08,3.48,3.48,0,0,1-1.94-.57,3.89,3.89,0,0,1-1.37-1.58,5.13,5.13,0,0,1-.5-2.29,5,5,0,0,1,.51-2.26A4.09,4.09,0,0,1,103.23,87a3.36,3.36,0,0,1,1.92-.59,3,3,0,0,1,1.24.27,2.36,2.36,0,0,1,1,.79,1,1,0,0,1,.36-.69,1.11,1.11,0,0,1,.74-.27q.74,0,.92.42A2.69,2.69,0,0,1,109.56,88Zm-5.91,2.87a3.11,3.11,0,0,0,.21,1.13,2,2,0,0,0,.62.87,1.53,1.53,0,0,0,1,.33,1.49,1.49,0,0,0,1.31-.7,2.85,2.85,0,0,0,.47-1.63,3.25,3.25,0,0,0-.2-1.12,2.06,2.06,0,0,0-.61-.89,1.46,1.46,0,0,0-1-.34,1.53,1.53,0,0,0-1,.34,2,2,0,0,0-.62.89A3.22,3.22,0,0,0,103.64,90.89Z" transform="translate(-0.67)" fill="#225ca9"/>
          <path d="M110.84,93.95V84.08a1.34,1.34,0,0,1,.32-.93,1.06,1.06,0,0,1,.83-.36,1.12,1.12,0,0,1,.6.16,1.1,1.1,0,0,1,.41.45,1.46,1.46,0,0,1,.15.67v9.86a1.46,1.46,0,0,1-.15.67,1.09,1.09,0,0,1-.41.45,1.14,1.14,0,0,1-.59.16,1.06,1.06,0,0,1-.83-.36A1.34,1.34,0,0,1,110.84,93.95Z" transform="translate(-0.67)" fill="#225ca9"/>
          <path d="M121.2,91.65h-4.91a1.74,1.74,0,0,0,.72,1.24,2.47,2.47,0,0,0,1.45.42,2.18,2.18,0,0,0,.89-.16q.37-.16.92-.47a2,2,0,0,1,.8-.3.83.83,0,0,1,.46.14,1.11,1.11,0,0,1,.36.37.92.92,0,0,1,.13.48,1,1,0,0,1-.33.71,3.17,3.17,0,0,1-.88.63,5.85,5.85,0,0,1-1.24.45,5.54,5.54,0,0,1-1.31.17,4.42,4.42,0,0,1-2.25-.57,3.94,3.94,0,0,1-1.53-1.59,4.77,4.77,0,0,1-.54-2.28,4.68,4.68,0,0,1,.31-1.67,4.74,4.74,0,0,1,.86-1.45,3.92,3.92,0,0,1,3-1.35,3.84,3.84,0,0,1,1.68.37,4.07,4.07,0,0,1,1.32,1,4.75,4.75,0,0,1,.84,1.36,3.9,3.9,0,0,1,.3,1.48A.9.9,0,0,1,121.2,91.65Zm-5-1.54h3.67a2.09,2.09,0,0,0-.58-1.27,1.7,1.7,0,0,0-1.26-.49,1.68,1.68,0,0,0-1.24.49A2.12,2.12,0,0,0,116.24,90.1Z" transform="translate(-0.67)" fill="#225ca9"/>
          <path d="M127.39,93.82V84.88a1.22,1.22,0,0,1,.34-.91,1.3,1.3,0,0,1,1.73,0,1.22,1.22,0,0,1,.33.92v8h2.86a1.05,1.05,0,0,1,.86.35,1.24,1.24,0,0,1,.29.81,1.12,1.12,0,0,1-.34.74,1.1,1.1,0,0,1-.81.32h-4a1.2,1.2,0,0,1-.92-.36A1.34,1.34,0,0,1,127.39,93.82Z" transform="translate(-0.67)" fill="#225ca9"/>
          <path d="M140.92,91.65H136a1.74,1.74,0,0,0,.72,1.24,2.47,2.47,0,0,0,1.45.42,2.18,2.18,0,0,0,.89-.16q.37-.16.92-.47a2,2,0,0,1,.8-.3.83.83,0,0,1,.46.14,1.11,1.11,0,0,1,.36.37.92.92,0,0,1,.13.48,1,1,0,0,1-.33.71,3.17,3.17,0,0,1-.88.63,5.85,5.85,0,0,1-1.24.45,5.54,5.54,0,0,1-1.31.17,4.42,4.42,0,0,1-2.25-.57,3.94,3.94,0,0,1-1.53-1.59,4.77,4.77,0,0,1-.54-2.28,4.68,4.68,0,0,1,.31-1.67,4.74,4.74,0,0,1,.86-1.45,3.92,3.92,0,0,1,3-1.35,3.84,3.84,0,0,1,1.68.37,4.07,4.07,0,0,1,1.32,1,4.75,4.75,0,0,1,.84,1.36,3.9,3.9,0,0,1,.3,1.48A.9.9,0,0,1,140.92,91.65Zm-5-1.54h3.67a2.09,2.09,0,0,0-.58-1.27,1.7,1.7,0,0,0-1.26-.49,1.68,1.68,0,0,0-1.24.49A2.12,2.12,0,0,0,136,90.1Z" transform="translate(-0.67)" fill="#225ca9"/>
          <path d="M142.72,93.95V87.67a1.06,1.06,0,0,1,.36-.85,1.23,1.23,0,0,1,.83-.31q1.13,0,1.13,1h0a2.56,2.56,0,0,1,.72-.74,1.68,1.68,0,0,1,.9-.23,1.1,1.1,0,0,1,.78.32,1.21,1.21,0,0,1,.34.92.72.72,0,0,1-.18.52,1.42,1.42,0,0,1-.48.31l-.72.29a4.3,4.3,0,0,0-1,.62,1.16,1.16,0,0,0-.35.92v3.54a1.46,1.46,0,0,1-.15.67,1.09,1.09,0,0,1-.41.45,1.14,1.14,0,0,1-.59.16,1.06,1.06,0,0,1-.83-.36A1.34,1.34,0,0,1,142.72,93.95Z" transform="translate(-0.67)" fill="#225ca9"/>
          <path d="M148.08,93.95V87.8a1.34,1.34,0,0,1,.32-.93,1.06,1.06,0,0,1,.83-.36,1.11,1.11,0,0,1,.72.23,1,1,0,0,1,.34.63,2.54,2.54,0,0,1,2.22-.95,3.49,3.49,0,0,1,1.63.37,2.71,2.71,0,0,1,1.13,1.07,3.26,3.26,0,0,1,.41,1.66v4.42a1.46,1.46,0,0,1-.15.67,1.09,1.09,0,0,1-.41.45,1.14,1.14,0,0,1-.59.16,1.06,1.06,0,0,1-.83-.36,1.34,1.34,0,0,1-.32-.93v-4a1.56,1.56,0,0,0-.42-1.18,1.51,1.51,0,0,0-1.09-.4,1.47,1.47,0,0,0-.79.21,1.33,1.33,0,0,0-.51.56,1.84,1.84,0,0,0-.17.81v4a1.46,1.46,0,0,1-.15.67,1.09,1.09,0,0,1-.41.45,1.14,1.14,0,0,1-.59.16,1.06,1.06,0,0,1-.83-.36A1.34,1.34,0,0,1,148.08,93.95Z" transform="translate(-0.67)" fill="#225ca9"/>
          <path d="M162.79,88.09a1.06,1.06,0,0,1-.27.71.85.85,0,0,1-.67.31,2.15,2.15,0,0,1-.68-.23l-.78-.34a1.62,1.62,0,0,0-.61-.11.92.92,0,0,0-.56.16.56.56,0,0,0-.22.48q0,.34.69.64l1.46.62a4.06,4.06,0,0,1,1.31.85,1.91,1.91,0,0,1,.54,1.43,2.46,2.46,0,0,1-.41,1.39,2.77,2.77,0,0,1-1.16,1,4,4,0,0,1-1.72.36,4.84,4.84,0,0,1-1.44-.23,3.81,3.81,0,0,1-1.27-.65,1.16,1.16,0,0,1-.52-.9,1.11,1.11,0,0,1,.28-.67.87.87,0,0,1,.72-.36,1.43,1.43,0,0,1,.55.1,5.62,5.62,0,0,1,.59.3,4,4,0,0,0,.62.3,1.91,1.91,0,0,0,.64.09,1.17,1.17,0,0,0,.71-.16.6.6,0,0,0,.2-.5q0-.34-.67-.62l-1.46-.62a4,4,0,0,1-1.34-.87,1.94,1.94,0,0,1-.54-1.43,2.5,2.5,0,0,1,.4-1.4,2.66,2.66,0,0,1,1.11-1,3.7,3.7,0,0,1,1.62-.34,4.73,4.73,0,0,1,1.3.19,3,3,0,0,1,1.12.57A1.15,1.15,0,0,1,162.79,88.09Z" transform="translate(-0.67)" fill="#225ca9"/>
          <path d="M165.78,94.46l-2.55-6.36a1.79,1.79,0,0,1-.11-.59.89.89,0,0,1,.35-.7,1.14,1.14,0,0,1,.74-.29,1.2,1.2,0,0,1,.72.22,1.23,1.23,0,0,1,.44.61l1.58,4.34,1.7-4.34a1.35,1.35,0,0,1,.45-.61,1.16,1.16,0,0,1,.71-.22,1.15,1.15,0,0,1,.74.29.88.88,0,0,1,.35.71,1.47,1.47,0,0,1-.11.59l-3.86,9.61q-.36.91-1.09.91a1.26,1.26,0,0,1-.88-.3.91.91,0,0,1-.33-.7,2,2,0,0,1,.15-.67Z" transform="translate(-0.67)" fill="#225ca9"/>
          <path d="M177.31,88.09a1.06,1.06,0,0,1-.27.71.85.85,0,0,1-.67.31,2.15,2.15,0,0,1-.68-.23l-.78-.34a1.62,1.62,0,0,0-.61-.11.92.92,0,0,0-.56.16.56.56,0,0,0-.22.48q0,.34.69.64l1.46.62a4.06,4.06,0,0,1,1.31.85,1.91,1.91,0,0,1,.54,1.43,2.46,2.46,0,0,1-.41,1.39A2.77,2.77,0,0,1,176,95a4,4,0,0,1-1.72.36,4.84,4.84,0,0,1-1.44-.23,3.81,3.81,0,0,1-1.27-.65,1.16,1.16,0,0,1-.52-.9,1.11,1.11,0,0,1,.28-.67.87.87,0,0,1,.72-.36,1.43,1.43,0,0,1,.55.1,5.62,5.62,0,0,1,.59.3,4,4,0,0,0,.62.3,1.91,1.91,0,0,0,.64.09,1.17,1.17,0,0,0,.71-.16.6.6,0,0,0,.2-.5q0-.34-.67-.62l-1.46-.62a4,4,0,0,1-1.34-.87,1.94,1.94,0,0,1-.54-1.43,2.5,2.5,0,0,1,.4-1.4,2.66,2.66,0,0,1,1.11-1,3.7,3.7,0,0,1,1.62-.34,4.73,4.73,0,0,1,1.3.19,3,3,0,0,1,1.12.57A1.15,1.15,0,0,1,177.31,88.09Z" transform="translate(-0.67)" fill="#225ca9"/>
          <path d="M178.9,93.94V88.63h-.52a1,1,0,0,1-1-1,1,1,0,0,1,1-1h.52V85.23a1.34,1.34,0,0,1,.32-.93A1.06,1.06,0,0,1,180,84a1.12,1.12,0,0,1,.6.16,1.1,1.1,0,0,1,.41.45,1.47,1.47,0,0,1,.15.67v1.38h.66a1.24,1.24,0,0,1,.79.25.91.91,0,0,1,.31.76.93.93,0,0,1-.31.76,1.23,1.23,0,0,1-.79.25h-.66v5.32a1.47,1.47,0,0,1-.15.67,1.1,1.1,0,0,1-.42.45,1.13,1.13,0,0,1-.59.16,1.06,1.06,0,0,1-.83-.36A1.34,1.34,0,0,1,178.9,93.94Z" transform="translate(-0.67)" fill="#225ca9"/>
          <path d="M189.85,91.65h-4.91a1.74,1.74,0,0,0,.72,1.24,2.47,2.47,0,0,0,1.45.42,2.18,2.18,0,0,0,.89-.16q.37-.16.92-.47a2,2,0,0,1,.8-.3.83.83,0,0,1,.46.14,1.11,1.11,0,0,1,.36.37.92.92,0,0,1,.13.48,1,1,0,0,1-.33.71,3.17,3.17,0,0,1-.88.63,5.85,5.85,0,0,1-1.24.45,5.54,5.54,0,0,1-1.31.17,4.42,4.42,0,0,1-2.25-.57,3.94,3.94,0,0,1-1.53-1.59,4.77,4.77,0,0,1-.54-2.28,4.68,4.68,0,0,1,.31-1.67,4.74,4.74,0,0,1,.86-1.45,3.92,3.92,0,0,1,3-1.35,3.84,3.84,0,0,1,1.68.37,4.07,4.07,0,0,1,1.32,1,4.75,4.75,0,0,1,.84,1.36,3.9,3.9,0,0,1,.3,1.48A.9.9,0,0,1,189.85,91.65Zm-5-1.54h3.67a2.09,2.09,0,0,0-.58-1.27,1.7,1.7,0,0,0-1.26-.49,1.68,1.68,0,0,0-1.24.49A2.12,2.12,0,0,0,184.88,90.1Z" transform="translate(-0.67)" fill="#225ca9"/>
          <path d="M191.68,93.95V87.8a1.34,1.34,0,0,1,.32-.93,1.06,1.06,0,0,1,.83-.36,1.11,1.11,0,0,1,.72.23,1,1,0,0,1,.34.64,2.79,2.79,0,0,1,2.14-1,2.92,2.92,0,0,1,2.38,1.17,3.45,3.45,0,0,1,1.15-.84,3.06,3.06,0,0,1,1.28-.32,3.66,3.66,0,0,1,1.66.36,2.56,2.56,0,0,1,1.11,1.06,3.41,3.41,0,0,1,.39,1.69v4.42a1.45,1.45,0,0,1-.15.67,1.09,1.09,0,0,1-.41.45,1.14,1.14,0,0,1-.59.16,1.06,1.06,0,0,1-.83-.36,1.34,1.34,0,0,1-.32-.93v-4a2,2,0,0,0-.16-.82,1.3,1.3,0,0,0-.47-.55,1.27,1.27,0,0,0-.72-.2,1.24,1.24,0,0,0-1,.43,1.71,1.71,0,0,0-.37,1.15v4a1.46,1.46,0,0,1-.15.67,1.09,1.09,0,0,1-.42.45,1.13,1.13,0,0,1-.59.16,1.06,1.06,0,0,1-.83-.36,1.34,1.34,0,0,1-.32-.93v-4a2,2,0,0,0-.16-.82,1.3,1.3,0,0,0-.46-.55,1.27,1.27,0,0,0-.72-.2,1.37,1.37,0,0,0-.77.2,1.18,1.18,0,0,0-.45.55,2.19,2.19,0,0,0-.14.83v4a1.46,1.46,0,0,1-.15.67,1.09,1.09,0,0,1-.41.45,1.14,1.14,0,0,1-.59.16,1.06,1.06,0,0,1-.83-.36A1.34,1.34,0,0,1,191.68,93.95Z" transform="translate(-0.67)" fill="#225ca9"/>
        </g>
      </g>
    </g>
  </g>
</svg>
