<?xml version="1.0" standalone="no"?>
<!DOCTYPE svg PUBLIC "-//W3C//DTD SVG 1.1//EN" "http://www.w3.org/Graphics/SVG/1.1/DTD/svg11.dtd" >
<svg xmlns="http://www.w3.org/2000/svg">
<metadata></metadata>
<defs>
<font id="rb_thesansbold_italic" horiz-adv-x="1126" >
<font-face units-per-em="2048" ascent="1516" descent="-532" />
<missing-glyph horiz-adv-x="446" />
<glyph unicode="&#xfb01;" horiz-adv-x="1193" d="M-305 -489l61 215q29 -8 60.5 -12.5t60.5 -4.5q43 0 77 11.5t60.5 41t47 78.5t34.5 125l162 850h-174l41 203h172l6 37q35 223 173 339.5t401 116.5q92 0 163.5 -10t145.5 -28l-86 -216q-53 16 -116.5 27.5t-119.5 11.5q-137 0 -208.5 -56t-94.5 -169l-8 -53h608 l-194 -1018h-254l153 815h-354l-160 -852q-47 -248 -166.5 -359.5t-312.5 -111.5q-43 0 -89 4t-89 15z" />
<glyph unicode="&#xfb02;" horiz-adv-x="1191" d="M-305 -489l61 215q29 -8 60.5 -12.5t60.5 -4.5q43 0 77 11.5t60.5 41t47 78.5t34.5 125l162 850h-174l41 203h172l18 106q37 193 173.5 290t367.5 97q98 0 198.5 -9t194.5 -25l-280 -1477h-256l245 1286q-35 6 -71.5 9t-67.5 3q-106 0 -168.5 -46t-81.5 -146l-16 -88h217 l-41 -203h-217l-160 -852q-47 -248 -166.5 -359.5t-312.5 -111.5q-43 0 -89 4t-89 15z" />
<glyph horiz-adv-x="0" />
<glyph horiz-adv-x="0" />
<glyph unicode="&#xd;" horiz-adv-x="1024" />
<glyph unicode=" "  horiz-adv-x="446" />
<glyph unicode="&#x09;" horiz-adv-x="446" />
<glyph unicode="&#xa0;" horiz-adv-x="446" />
<glyph unicode="!" horiz-adv-x="645" d="M119 123q0 72 50 119t118 47t109.5 -44.5t41.5 -103.5q0 -72 -50 -118t-118 -46t-109.5 43t-41.5 103zM217 385l162 1065h301l-242 -1065h-221z" />
<glyph unicode="&#x22;" horiz-adv-x="813" d="M209 918l65 520h258l-133 -520h-190zM588 918l65 520h256l-131 -520h-190z" />
<glyph unicode="#" d="M33 350l35 180h174l82 281h-156l35 178h174l100 342h191l-101 -342h260l99 342h190l-98 -342h153l-34 -178h-172l-82 -281h153l-32 -180h-175l-104 -350h-190l104 350h-260l-105 -350h-190l104 350h-155zM432 530h260l82 281h-260z" />
<glyph unicode="$" d="M127 57l47 236q51 -18 119.5 -31.5t138.5 -13.5q113 0 179.5 47t66.5 113q0 53 -33 85.5t-81 59.5t-105.5 53.5t-105.5 64.5t-80.5 95t-32.5 145q0 72 28.5 137.5t79.5 118t124 89t159 49.5l35 190h188l-35 -180q51 -4 99.5 -8t95.5 -15l-45 -225q-57 18 -116.5 26.5 t-111.5 8.5q-111 0 -168 -42t-57 -106q0 -47 33 -77.5t82 -56t107.5 -52.5t107.5 -65.5t82 -95t33 -142.5q0 -80 -32 -149.5t-87.5 -126t-131 -95.5t-163.5 -53l-41 -215h-187l41 205q-57 0 -118.5 8t-114.5 18z" />
<glyph unicode="%" horiz-adv-x="1525" d="M102 80l1254 1292l139 -125l-1253 -1292zM174 942q0 100 34 177t86 129t117.5 79t131.5 27q125 0 192.5 -59.5t67.5 -176.5q0 -102 -34 -180t-87 -131t-119.5 -80t-132.5 -27q-129 0 -192.5 63.5t-63.5 178.5zM367 958q0 -51 21.5 -71.5t60.5 -20.5q33 0 62.5 18.5 t51 50.5t33.5 74t12 89q0 49 -20.5 70.5t-61.5 21.5q-35 0 -63.5 -18.5t-50 -51.5t-33.5 -74.5t-12 -87.5zM803 217q0 100 33.5 177t87 129t119 80t128.5 28q125 0 193 -60.5t68 -177.5q0 -102 -34 -179t-87.5 -130t-119 -80t-130.5 -27q-129 0 -193.5 62.5t-64.5 177.5z M997 236q0 -53 20.5 -74t59.5 -21q35 0 63.5 18.5t50 50.5t34 74t12.5 89q0 49 -19.5 70.5t-60.5 21.5q-35 0 -63.5 -18.5t-50 -50t-34 -73.5t-12.5 -87z" />
<glyph unicode="&#x26;" horiz-adv-x="1599" d="M76 328q0 84 30.5 155.5t80 132t111.5 112.5t128 97q-45 70 -81 152t-36 153q0 74 32 142.5t89 122t137 85t178 31.5q176 0 257 -73.5t81 -192.5q0 -68 -26.5 -128t-70.5 -114.5t-103.5 -103.5t-124.5 -98q59 -78 134 -161t161 -165q78 92 135 212t80 251h254 q-25 -178 -104 -336t-189 -280q55 -49 114.5 -97.5t118.5 -91.5l-180 -178q-68 47 -128 96t-120 103q-117 -84 -256 -130.5t-291 -46.5q-109 0 -186.5 28t-127.5 75t-73.5 111.5t-23.5 136.5zM348 377q0 -72 46 -124t147 -52q76 0 156.5 25.5t158.5 80.5q-82 84 -164 173 t-143 173q-84 -61 -142.5 -126.5t-58.5 -149.5zM567 1157q0 -41 19.5 -88t48.5 -100q37 27 71.5 54.5t60.5 56t42 61t16 71.5q0 47 -26.5 75t-79.5 28q-66 0 -109 -45t-43 -113z" />
<glyph unicode="'" horiz-adv-x="432" d="M209 918l65 520h258l-133 -520h-190z" />
<glyph unicode="(" horiz-adv-x="614" d="M92 262q0 164 34 336t99.5 344t164.5 341t228 327l179 -90q-98 -127 -182.5 -282t-143.5 -318.5t-93 -329.5t-34 -316q0 -180 22.5 -331.5t75.5 -294.5l-206 -88q-72 164 -108 337t-36 365z" />
<glyph unicode=")" horiz-adv-x="614" d="M-129 -350q98 127 181 281.5t143.5 319.5t94.5 331t34 313q0 182 -24 333.5t-75 293.5l205 88q72 -162 107.5 -336t35.5 -367q0 -164 -32.5 -335t-99 -343t-165 -342t-227.5 -327z" />
<glyph unicode="*" horiz-adv-x="772" d="M184 1116l222 66l-189 98l123 150l145 -152l15 227l182 -24l-78 -211l195 125l61 -168l-221 -68l186 -96l-120 -152l-146 152l-16 -225l-183 24l78 209l-192 -123z" />
<glyph unicode="+" d="M86 500l43 219h356l72 379h250l-72 -379h359l-41 -219h-361l-71 -381h-250l73 381h-358z" />
<glyph unicode="," horiz-adv-x="518" d="M-68 -244q63 51 100.5 94.5t52.5 80t11 69.5t-24 63q-23 35 -24 77t17.5 79t55.5 61.5t86 24.5q72 0 120 -56t41.5 -148.5t-84 -210t-257.5 -242.5z" />
<glyph unicode="-" horiz-adv-x="675" d="M90 463l41 211h496l-41 -211h-496z" />
<glyph unicode="." horiz-adv-x="524" d="M41 137q0 74 51 124t121 50t116 -48t46 -111q0 -74 -51.5 -124.5t-120.5 -50.5q-70 0 -116 48.5t-46 111.5z" />
<glyph unicode="/" horiz-adv-x="929" d="M-186 -330l1067 1880h260l-1065 -1880h-262z" />
<glyph unicode="0" horiz-adv-x="1179" d="M98 430q0 180 46 354t132 311.5t212 221.5t286 84q109 0 186.5 -31t128 -89t74 -141.5t23.5 -185.5q0 -160 -40 -331.5t-123 -314t-212 -234.5t-307 -92q-201 0 -303.5 111.5t-102.5 336.5zM369 428q0 -225 166 -225q94 0 164.5 74.5t118.5 187.5t72.5 244.5t24.5 246.5 q0 225 -161 226q-74 0 -131.5 -40t-100.5 -105.5t-71.5 -147.5t-47 -166t-26.5 -162t-8 -133z" />
<glyph unicode="1" horiz-adv-x="720" d="M195 1016v248l372 118h189l-262 -1382h-267l213 1110z" />
<glyph unicode="2" horiz-adv-x="999" d="M18 0l43 227l281 273q102 94 172 168.5t112 137t60.5 116t18.5 102.5q0 63 -41 101t-115 38q-72 0 -139.5 -20.5t-133.5 -59.5v240q78 35 172.5 57.5t182.5 22.5q184 0 276 -85.5t92 -230.5q0 -100 -33.5 -189t-88 -168t-121 -148.5t-131.5 -130.5l-207 -203l2 -2 q102 4 216 5t253 1l-51 -252h-820z" />
<glyph unicode="3" horiz-adv-x="954" d="M18 4l60 232q80 -29 166 -29q72 0 130 18.5t101 51t67.5 76.5t26.5 93q2 35 -11 69t-55 57.5t-118 32.5t-197 -7l41 211q111 -2 192 17.5t133 52t78.5 76.5t29.5 89q4 53 -30 95.5t-124 42.5q-66 0 -126 -16.5t-112 -43.5l13 224q66 25 147.5 41t161.5 16 q102 0 172 -25.5t112 -69.5t57 -103.5t5 -125.5q-10 -109 -83 -195.5t-193 -131.5v-4q47 -10 84.5 -38t62.5 -70t34 -93t3 -107q-12 -98 -63.5 -182t-132.5 -146.5t-187.5 -97t-229.5 -34.5q-55 0 -111 6t-104 18z" />
<glyph unicode="4" horiz-adv-x="1112" d="M57 330l4 223l660 829h338l-156 -813h199l-47 -239h-197l-63 -330h-252l63 330h-549zM315 561q33 2 81 3t98 1h92h69l109 565l-2 -2z" />
<glyph unicode="5" horiz-adv-x="925" d="M2 -2l59 233q35 -10 75 -15t77 -5q90 0 156.5 22.5t112.5 60.5t68.5 88t22.5 105q0 61 -39.5 97.5t-99 52.5t-130.5 17t-130 -5l139 733h674l-47 -249l-430 2l-51 -267q84 -2 156.5 -21.5t126 -59t83 -100t29.5 -144.5q0 -119 -49 -221.5t-139.5 -178t-216 -118.5 t-279.5 -43q-37 0 -82 4t-86 12z" />
<glyph unicode="6" horiz-adv-x="1159" d="M117 385q0 96 20.5 209t65.5 226.5t114.5 218t166 185.5t222 129t283.5 48q47 0 87 -3t67 -7l-43 -230q-72 14 -158 15q-158 0 -276.5 -84t-192.5 -252q-6 -16 -13 -32.5t-14 -33.5v-2q57 53 133 83t166 30t158 -25.5t112 -71t65.5 -103.5t21.5 -126q0 -135 -51.5 -242.5 t-135.5 -183.5t-193.5 -116t-223.5 -40q-186 0 -283.5 104.5t-97.5 303.5zM383 377q0 -31 8 -62.5t27.5 -57.5t49.5 -41t73 -15q59 0 111.5 22.5t91 63.5t61 96.5t22.5 118.5q0 74 -41 120t-127 46q-53 0 -103 -20.5t-88 -58.5t-61.5 -92.5t-23.5 -119.5z" />
<glyph unicode="7" horiz-adv-x="921" d="M139 0q59 152 133 312.5t151 311t151.5 281.5t136.5 225q-27 0 -90.5 -1t-142.5 -2t-161 -1h-139l49 256h828l-41 -225q-82 -129 -164 -275.5t-158 -298t-142.5 -301t-117.5 -282.5h-293z" />
<glyph unicode="8" horiz-adv-x="1118" d="M51 283q0 141 89 240.5t237 178.5q-86 61 -128 130t-42 161q0 80 37 156t104.5 134t164.5 93t220 35q102 0 177 -23.5t124 -63.5t72.5 -94.5t23.5 -117.5q0 -70 -26.5 -127t-69.5 -104t-99 -85t-116 -73q90 -61 143.5 -136t53.5 -184q0 -96 -46 -174.5t-123 -135 t-179.5 -87.5t-214.5 -31q-203 0 -302.5 86t-99.5 222zM328 317q0 -57 42 -90.5t128 -33.5q47 0 90 14t76.5 38.5t54 58.5t20.5 73q0 63 -41 113.5t-131 103.5q-113 -59 -176 -125t-63 -152zM481 1016q0 -57 44 -100.5t108 -84.5q104 57 164.5 113.5t60.5 132.5q0 53 -40 88 t-120 35q-102 0 -159.5 -54t-57.5 -130z" />
<glyph unicode="9" horiz-adv-x="1165" d="M86 -8l45 239q68 -23 166 -22q96 0 172 27.5t133 71.5t97 101.5t65 114.5q10 18 18.5 38t16.5 36v4q-53 -55 -130 -88t-163 -33q-88 0 -153.5 28t-106.5 74t-61.5 108.5t-20.5 129.5q0 119 43 225.5t121 186.5t184 126t236 46q201 0 303 -111t102 -293 q0 -90 -17.5 -200.5t-57.5 -224t-106.5 -221t-165.5 -191.5t-232.5 -134t-309.5 -50q-59 0 -101 4t-77 8zM438 870q0 -68 34 -112.5t120 -44.5q66 0 118 24.5t88 66.5t55 96.5t19 113.5q0 72 -43 120t-120 48q-59 0 -109.5 -27t-86.5 -71t-55.5 -99t-19.5 -115z" />
<glyph unicode=":" horiz-adv-x="604" d="M100 137q0 74 51.5 124t120.5 50q68 0 115 -48t47 -111q0 -74 -51 -124.5t-119 -50.5q-70 0 -117 48.5t-47 111.5zM211 717q0 74 51 124t121 50q68 0 115 -48.5t47 -111.5q0 -74 -51.5 -124t-118.5 -50q-70 0 -117 48t-47 112z" />
<glyph unicode=";" horiz-adv-x="604" d="M-4 -244q61 51 98 94.5t52.5 80t11.5 69.5t-25 63q-23 35 -22 76q0 43 18 80t55 61.5t86 24.5q72 0 120 -56t41 -148.5t-85 -210t-256 -242.5zM211 717q0 74 51 124t121 50q68 0 115 -48.5t47 -111.5q0 -74 -51.5 -124t-118.5 -50q-70 0 -117 48t-47 112z" />
<glyph unicode="&#x3c;" d="M158 631l749 588l154 -181l-565 -426l407 -434l-190 -166z" />
<glyph unicode="=" d="M80 307l39 211h907l-39 -211h-907zM154 698l39 211h907l-39 -211h-907z" />
<glyph unicode="&#x3e;" d="M123 193l565 425l-409 435l192 166l553 -619l-750 -588z" />
<glyph unicode="?" horiz-adv-x="905" d="M168 123q0 72 49 119t117 47t109.5 -44.5t41.5 -103.5q0 -72 -50 -118t-118 -46t-108.5 43t-40.5 103zM244 385q-16 100 7 174t66 129t97.5 97t102.5 81t81 81t33 95q0 43 -26.5 76t-74 55.5t-111 37t-136.5 20.5l75 237q143 -8 249 -40.5t175.5 -83t103.5 -115.5 t34 -139q0 -92 -35 -158t-85 -117t-108.5 -94t-105.5 -91t-74 -105.5t-16 -139.5h-252z" />
<glyph unicode="@" horiz-adv-x="1970" d="M178 471q0 205 75 392.5t207 330.5t315 228t403 85q168 0 292.5 -45t206.5 -122.5t123 -185t41 -230.5q0 -135 -37 -255t-107.5 -209t-173 -141.5t-231.5 -52.5q-115 0 -162 56.5t-34 140.5h-6q-18 -33 -50 -68t-72 -63.5t-86 -47t-96 -18.5q-86 0 -135 57.5t-49 174.5 q0 94 28.5 200.5t91 196.5t165 150.5t250.5 60.5q72 0 138 -12.5t109 -28.5l-112 -406q-29 -100 -12.5 -144t77.5 -44q57 0 106.5 30.5t86.5 86t57.5 133.5t20.5 174q0 80 -24.5 152.5t-80 129t-144.5 89t-216 32.5q-166 0 -300 -67.5t-228.5 -179t-145.5 -254t-51 -291.5 q0 -213 127 -336t395 -123q178 0 363 59l18 -204q-104 -35 -222 -52.5t-212 -17.5q-176 0 -308.5 44t-221.5 127t-134 202t-45 266zM811 551q0 -82 51 -82q29 0 64 21.5t69.5 65.5t67.5 111.5t59 161.5l25 91q-35 12 -82 12q-51 0 -97 -35t-81 -89t-55.5 -122t-20.5 -135z " />
<glyph unicode="A" horiz-adv-x="1257" d="M-86 0l731 1382h307l215 -1382h-280l-39 283h-514l-148 -283h-272zM438 494h383l-59 409q-6 49 -11.5 97.5t-7.5 95.5h-4q-16 -45 -38.5 -93.5t-47.5 -97.5z" />
<glyph unicode="B" horiz-adv-x="1163" d="M53 0l262 1380q86 4 175.5 6.5t118 3.5t143.5 1q199 0 303 -70t104 -211q0 -145 -74.5 -237.5t-187.5 -139.5v-2q86 -23 134 -93.5t48 -158.5q0 -98 -42 -186t-121.5 -153.5t-195.5 -104.5t-261 -39q-68 0 -106 1t-104.5 2t-195.5 1zM358 221q23 -4 58 -6t76 -2 q76 0 133 20.5t96 54.5t58.5 79t19.5 94q0 149 -225 149h-3q-82 0 -141 -2zM469 811q37 -2 94 -2q143 0 227 63.5t84 176.5q0 57 -40.5 92t-149.5 35q-39 0 -75 -1t-70 -4z" />
<glyph unicode="C" horiz-adv-x="1124" d="M96 467q0 176 51.5 343t153.5 297t255 209t353 79q86 0 159 -11.5t134 -27.5l-72 -244q-125 45 -247 45q-137 0 -230.5 -61.5t-151 -155.5t-83 -208t-25.5 -216q0 -66 14.5 -120t48 -92t91 -58.5t141.5 -20.5q78 0 148.5 15.5t132.5 42.5l-2 -242q-78 -27 -174.5 -42 t-182.5 -15q-158 0 -258 44t-156.5 112.5t-78 154.5t-21.5 172z" />
<glyph unicode="D" horiz-adv-x="1339" d="M53 2l262 1378q39 2 90.5 3t108.5 3.5t116.5 3.5t117.5 1q295 0 440 -128t145 -372q0 -174 -55 -336t-166 -287t-277.5 -200.5t-390.5 -75.5q-121 0 -213 3t-178 7zM358 229q27 -4 62 -7t63 -3q156 0 264.5 63.5t175 160t96.5 209t30 212.5q0 68 -16.5 124t-56.5 96 t-105.5 61.5t-163.5 21.5q-109 0 -172 -6z" />
<glyph unicode="E" horiz-adv-x="987" d="M53 0l262 1382h736l-41 -223h-475l-66 -340h453l-43 -217h-451l-70 -375h473l-43 -227h-735z" />
<glyph unicode="F" horiz-adv-x="933" d="M53 0l262 1382h725l-43 -225h-462l-68 -356h438l-43 -219h-436l-111 -582h-262z" />
<glyph unicode="G" horiz-adv-x="1353" d="M98 508q0 193 65.5 356.5t183.5 283.5t279.5 187.5t352.5 67.5q104 0 203.5 -13.5t191.5 -41.5l-78 -252q-80 35 -170 52t-172 17q-135 0 -241.5 -51t-180 -137t-112.5 -198.5t-39 -237.5q0 -63 18.5 -122t58.5 -103t104.5 -70.5t158.5 -26.5q53 0 102 7t95 20l92 479 h260l-127 -664q-109 -41 -232 -61t-237 -20q-147 0 -256 38.5t-179.5 108.5t-105.5 167t-35 214z" />
<glyph unicode="H" horiz-adv-x="1380" d="M53 0l262 1382h263l-105 -553h574l104 553h262l-262 -1382h-262l115 600h-574l-115 -600h-262z" />
<glyph unicode="I" horiz-adv-x="542" d="M53 0l262 1382h263l-263 -1382h-262z" />
<glyph unicode="J" horiz-adv-x="669" d="M-88 -2l45 229q47 -20 111 -20q74 0 123 40t69 144l189 991h260l-195 -1020q-14 -80 -45 -148.5t-83 -120.5t-129 -81.5t-181 -29.5q-53 0 -92 5t-72 11z" />
<glyph unicode="K" horiz-adv-x="1173" d="M53 0l262 1382h260l-118 -626l518 626h334l-604 -688l346 -694h-326l-285 664l-127 -664h-260z" />
<glyph unicode="L" horiz-adv-x="860" d="M53 0l262 1382h263l-220 -1149h441l-45 -233h-701z" />
<glyph unicode="M" horiz-adv-x="1765" d="M-25 0l471 1382h302l90 -710q10 -74 13 -145.5t5 -145.5h4q29 72 60.5 142.5t70.5 144.5l365 714h311l-49 -1382h-272l26 655q4 90 9 172t14 162h-4q-49 -133 -129 -295l-349 -694h-256l-82 645q-10 86 -16 173q-5 65 -5 129q0 21 1 42h-2q-27 -92 -52.5 -176t-54.5 -176 l-198 -637h-273z" />
<glyph unicode="N" horiz-adv-x="1376" d="M53 0l262 1382h310l258 -653q33 -82 57.5 -166t46.5 -162q12 96 29.5 204t36.5 206l104 571h256l-264 -1382h-305l-266 690q-29 78 -53.5 155t-41.5 146q-12 -98 -27.5 -194.5t-35.5 -200.5l-113 -596h-254z" />
<glyph unicode="O" horiz-adv-x="1411" d="M90 481q0 186 61.5 354.5t171 295t257 200.5t319.5 74q252 0 381 -132t129 -374q0 -201 -63.5 -370t-174 -291.5t-257 -191.5t-312.5 -69q-262 0 -387 134.5t-125 369.5zM371 526q0 -147 68.5 -227t199.5 -80q104 0 194.5 52.5t156 140.5t102 205.5t36.5 250.5 q0 135 -65.5 216t-206.5 81q-111 0 -201 -53t-152.5 -142t-97 -205t-34.5 -239z" />
<glyph unicode="P" horiz-adv-x="1064" d="M53 0l262 1382q86 4 177.5 6.5t195.5 2.5q203 0 317.5 -89.5t114.5 -263.5q0 -117 -48 -218t-133 -176t-198.5 -118t-242.5 -43q-18 0 -43 1t-49 3l-93 -487h-260zM451 713q16 -4 34.5 -5t38.5 -1q68 0 126.5 23.5t102.5 63.5t69.5 94.5t25.5 115.5q0 76 -46 123t-159 47 h-59q-25 0 -47 -3z" />
<glyph unicode="Q" horiz-adv-x="1413" d="M90 481q0 188 60.5 356.5t168 294t255 199.5t321.5 74q254 0 384 -132t130 -374q0 -201 -63.5 -370t-174 -291.5t-257 -191.5t-312.5 -69q-262 0 -387 134.5t-125 369.5zM371 526q0 -147 68.5 -227t199.5 -80q104 0 194.5 52.5t156 140.5t102 205.5t36.5 250.5 q0 135 -65.5 216t-206.5 81q-111 0 -201 -53t-152.5 -142t-97 -205t-34.5 -239zM453 -354l41 227q74 9 136 9q50 0 91 -6q92 -13 174 -32.5t171 -31.5q35 -5 77 -5q63 0 141 11l-43 -226q-88 -13 -158 -13h-10q-74 1 -135 10.5t-115.5 22.5t-111 24.5t-119.5 15.5 q-17 1 -36 1q-48 0 -103 -7z" />
<glyph unicode="R" horiz-adv-x="1136" d="M53 0l262 1382q82 4 177.5 6.5t205.5 2.5q227 0 331 -82t104 -234q0 -92 -32 -169t-88.5 -137t-133 -101t-168.5 -62q18 -37 36.5 -74.5t36.5 -76.5l226 -455h-308l-258 571h-20l-109 -571h-262zM461 768q14 -2 37.5 -3t52.5 -1q66 0 122 19.5t96 53t62.5 82t22.5 107.5 q0 72 -47 110t-152 38q-37 0 -67.5 -1.5t-50.5 -5.5z" />
<glyph unicode="S" horiz-adv-x="942" d="M33 8l47 252q49 -23 107.5 -36t113.5 -13q133 0 201.5 53t68.5 148q0 45 -27.5 82.5t-72.5 68.5t-98.5 66t-97.5 77t-71.5 101t-27.5 135q0 94 35 178t102.5 147.5t170 100.5t237.5 37q59 0 113.5 -4t113.5 -15l-45 -235q-49 16 -100 24.5t-94 8.5q-66 0 -113 -15.5 t-78 -40t-45 -57.5t-14 -67q0 -51 29.5 -90.5t74.5 -72t95.5 -65.5t96.5 -77t74.5 -102t28.5 -140q0 -100 -42 -187.5t-118.5 -152t-182 -102.5t-232.5 -38q-66 0 -131.5 7.5t-118.5 23.5z" />
<glyph unicode="T" horiz-adv-x="1024" d="M164 1155l43 227h960l-41 -227h-350l-221 -1155h-260l219 1155h-350z" />
<glyph unicode="U" horiz-adv-x="1366" d="M134 299q-2 25 -2 51q0 74 15 156l166 876h262l-172 -897q-10 -50 -10 -92q-1 -75 31 -121q48 -72 199 -73q154 0 237.5 76.5t118.5 254.5l164 852h258l-168 -874q-53 -274 -219 -402.5t-428 -128.5q-156 0 -252 41t-144.5 113t-55.5 168z" />
<glyph unicode="V" horiz-adv-x="1261" d="M182 1382h275l112 -809q8 -59 14.5 -131.5t10.5 -138.5h4q29 72 64.5 144.5t72.5 142.5l416 792h279l-738 -1382h-303z" />
<glyph unicode="W" horiz-adv-x="1912" d="M225 1382h267l43 -766q2 -36 2 -73q1 -32 -1 -64q-4 -69 -8 -141h2q25 70 49.5 138.5t55.5 133.5l352 772h279l65 -768q4 -58 5 -128v-28q0 -56 -3 -114h2q23 72 46.5 136.5t52.5 129.5l331 772h273l-608 -1382h-322l-53 762q-3 44 -3 91q0 23 1 47q2 72 6 147h-2 q-43 -145 -103 -279l-344 -768h-305z" />
<glyph unicode="X" horiz-adv-x="1259" d="M-70 0l572 713l-277 669h291l186 -477l361 477h307l-534 -682l311 -700h-316l-196 508l-387 -508h-318z" />
<glyph unicode="Y" d="M180 1382h275l104 -397q31 -125 49 -229h4q33 59 74 124.5t84 131.5l238 370h288l-602 -893l-92 -489h-260l92 487z" />
<glyph unicode="Z" horiz-adv-x="1064" d="M2 0l39 205l621 811q27 35 54 66.5t58 64.5q-37 -2 -89 -3t-153 -1h-294l43 239h862l-39 -213l-651 -831q-18 -25 -38 -48.5t-42 -47.5q25 4 96 4h195h272l-47 -246h-887z" />
<glyph unicode="[" horiz-adv-x="657" d="M-23 -420l383 2011h441l-41 -207h-199l-305 -1593h201l-39 -211h-441z" />
<glyph unicode="\" horiz-adv-x="962" d="M225 1550h234l362 -1880h-235z" />
<glyph unicode="]" horiz-adv-x="657" d="M-94 -420l39 211h200l304 1593h-201l41 207h442l-383 -2011h-442z" />
<glyph unicode="^" d="M162 782l444 600h199l227 -598l-196 -94l-164 506l-350 -506z" />
<glyph unicode="_" d="M-143 -504l39 211h1126l-39 -211h-1126z" />
<glyph unicode="`" horiz-adv-x="749" d="M207 1374l127 170l332 -258l-107 -139z" />
<glyph unicode="a" horiz-adv-x="1110" d="M61 295q0 143 39 277.5t120 237.5t204 164.5t291 61.5q92 0 183 -7t177 -23q-35 -178 -61.5 -319.5t-49 -260.5t-41 -222.5t-34.5 -203.5h-254q14 59 37.5 138t58.5 186h-4q-31 -55 -73 -117t-95 -113t-117.5 -84t-140.5 -33q-117 0 -178.5 77t-61.5 241zM326 344 q0 -76 19.5 -108.5t57.5 -32.5q55 0 113.5 55t110 138t90.5 179.5t55 176.5l12 65q-25 6 -52 10t-62 4q-88 0 -152.5 -46t-107.5 -117.5t-63.5 -157.5t-20.5 -166z" />
<glyph unicode="b" horiz-adv-x="1110" d="M55 18l283 1477h256l-84 -434q-6 -35 -15.5 -72t-22.5 -80t-30.5 -95t-42.5 -120h4q39 76 85.5 139.5t99.5 109.5t113.5 71.5t127.5 25.5q117 0 178.5 -76.5t61.5 -240.5q0 -145 -39 -278.5t-120 -237t-203.5 -164.5t-290.5 -61q-195 0 -361 36zM346 201 q27 -6 53.5 -10.5t61.5 -4.5q88 0 152.5 46.5t107.5 118t63.5 157.5t20.5 166q0 76 -20.5 108.5t-57.5 32.5q-55 0 -113.5 -55t-109.5 -138t-90 -177.5t-54 -174.5z" />
<glyph unicode="c" horiz-adv-x="827" d="M63 332q0 145 42 274t120 225.5t188.5 151.5t250.5 55q55 0 105 -7t97 -19l-61 -226q-68 31 -158 31q-80 0 -138 -40t-97 -102.5t-57.5 -138t-18.5 -147.5q0 -37 8 -69.5t29.5 -57t55.5 -39t87 -14.5q49 0 98.5 10t90.5 27l-17 -223q-53 -20 -117.5 -31.5t-130.5 -11.5 q-102 0 -173.5 24.5t-117 70.5t-66 111.5t-20.5 145.5z" />
<glyph unicode="d" horiz-adv-x="1110" d="M61 295q0 143 39 277.5t120 237.5t204 164.5t291 61.5q27 0 51.5 -2t56.5 -6l88 467h258l-215 -1128q-6 -27 -15 -77t-18.5 -105.5t-18.5 -106.5t-13 -78h-252q10 59 34.5 138t59.5 186h-4q-31 -55 -73 -117t-95 -113t-117.5 -84t-140.5 -33q-117 0 -178.5 77t-61.5 241z M326 344q0 -76 19.5 -108.5t57.5 -32.5q55 0 113.5 55t110 138t90.5 179.5t55 176.5l12 65q-25 6 -52 10t-62 4q-88 0 -152.5 -46t-107.5 -117.5t-63.5 -157.5t-20.5 -166z" />
<glyph unicode="e" horiz-adv-x="993" d="M66 324q0 160 45 292t123.5 225t183 145t223.5 52q94 0 157.5 -21.5t101.5 -56t54.5 -79.5t16.5 -90q0 -92 -44 -160t-127 -114t-202 -71.5t-268 -29.5q-2 -16 -4 -40t-2 -40q0 -88 39.5 -120t146.5 -32q74 0 148.5 16.5t146.5 45.5l4 -201q-86 -33 -183.5 -49 t-199.5 -16q-195 0 -277.5 87t-82.5 257zM358 590q178 6 268.5 45t90.5 121q0 43 -27.5 66.5t-77.5 23.5q-49 0 -90 -21.5t-72.5 -56.5t-54 -82t-37.5 -96z" />
<glyph unicode="f" horiz-adv-x="710" d="M-305 -489l61 215q29 -8 60.5 -12.5t58.5 -4.5q43 0 77 11.5t60.5 41t47 78.5t34.5 125l162 850h-174l41 203h174l12 76q37 205 149.5 311t327.5 106q43 0 84 -3t82 -13l-59 -213q-29 8 -60.5 12t-60.5 4q-90 0 -137 -48t-70 -165l-12 -67h231l-39 -203h-233l-160 -852 q-47 -248 -168 -359.5t-311 -111.5q-92 0 -178 19z" />
<glyph unicode="g" horiz-adv-x="1103" d="M-53 -469l59 240q61 -29 135 -44.5t146 -15.5q145 0 228 59.5t110 196.5q8 43 17 81t21.5 78t28 86t37.5 105l-4 2q-31 -55 -72 -114.5t-94 -110.5t-117.5 -84t-140.5 -33q-117 0 -178.5 77t-61.5 241q0 143 39 277.5t120 237.5t204 164.5t291 61.5q92 0 183 -7t177 -23 l-205 -1069q-20 -104 -65 -188.5t-120 -142t-184.5 -88t-258.5 -30.5q-86 0 -161 11.5t-134 31.5zM326 344q0 -76 19.5 -108.5t57.5 -32.5q55 0 113.5 55t110 138t90.5 179.5t55 176.5l12 65q-25 6 -52 10t-62 4q-88 0 -152.5 -46t-107.5 -117.5t-63.5 -157.5t-20.5 -166z " />
<glyph unicode="h" horiz-adv-x="1144" d="M51 0l285 1495h256l-80 -430q-14 -68 -40 -152t-71 -211l5 -2q35 68 78.5 130.5t97 108.5t116 73.5t136.5 27.5t122 -24.5t74 -69.5q27 -46 32 -108q1 -16 1 -33q0 -48 -10 -103l-133 -702h-258l122 639q10 51 10 87q0 30 -7 48q-15 41 -64 41q-51 0 -108.5 -53 t-109.5 -136t-92 -181.5t-57 -186.5l-49 -258h-256z" />
<glyph unicode="i" horiz-adv-x="536" d="M51 0l195 1018h256l-195 -1018h-256zM270 1319q0 37 14.5 67.5t38 53t54.5 35t65 12.5q68 0 111 -44.5t43 -101.5q0 -76 -52 -124t-120 -48t-111 45.5t-43 104.5z" />
<glyph unicode="j" horiz-adv-x="542" d="M-305 -492l55 224q27 -10 56.5 -15.5t52.5 -5.5q84 0 124 51.5t66 180.5l207 1075h256l-211 -1104q-18 -98 -54 -177t-91.5 -133.5t-135 -83t-186.5 -28.5q-78 0 -139 16zM276 1319q0 37 14.5 67.5t38 53t54.5 35t66 12.5q68 0 110.5 -44.5t42.5 -101.5q0 -76 -52 -124 t-120 -48t-111 45.5t-43 104.5z" />
<glyph unicode="k" horiz-adv-x="1030" d="M51 0l285 1495h256l-170 -893l442 475l201 -133l-406 -395l271 -549h-309l-215 510l-99 -510h-256z" />
<glyph unicode="l" horiz-adv-x="534" d="M51 0l285 1495h256l-285 -1495h-256z" />
<glyph unicode="m" horiz-adv-x="1740" d="M51 0l103 532q6 35 19 102.5t26.5 141.5t25 140.5t17.5 101.5h252q-10 -47 -31 -123t-62 -193l5 -2q35 68 77.5 130.5t95 108.5t115 73.5t133.5 27.5q94 0 150.5 -50t56.5 -148q0 -31 -7 -64t-23 -84h4q35 70 78.5 133.5t97 110.5t116 74.5t134.5 27.5q143 0 193 -94 q32 -60 33 -144q0 -47 -11 -100l-136 -702h-256l123 639q9 50 9 85q0 31 -7 51q-14 42 -59 42q-47 0 -102.5 -49t-107.5 -128t-94 -179.5t-61 -202.5l-47 -258h-256l123 639q9 50 9 85q0 31 -7 51q-14 42 -61 42q-45 0 -100.5 -49t-107.5 -128t-94 -179.5t-61 -202.5 l-49 -258h-256z" />
<glyph unicode="n" horiz-adv-x="1144" d="M51 0l103 532q6 35 19 102.5t26.5 141.5t25 140.5t17.5 101.5h252q-10 -47 -31 -121t-62 -195l5 -2q35 68 78.5 130.5t97 108.5t116 73.5t136.5 27.5t122 -24.5t74 -69.5q27 -46 32 -108q1 -16 1 -33q0 -48 -10 -103l-133 -702h-258l122 639q10 51 10 87q0 30 -7 48 q-15 41 -64 41q-51 0 -108.5 -53t-109.5 -136t-92 -181.5t-57 -186.5l-49 -258h-256z" />
<glyph unicode="o" horiz-adv-x="1116" d="M63 344q0 160 50.5 288t134.5 219t194.5 139t233.5 48q109 0 184.5 -27.5t123.5 -76.5t69.5 -117.5t21.5 -148.5q0 -158 -51 -285t-136 -217t-196.5 -138t-230.5 -48q-213 0 -305.5 96t-92.5 268zM332 385q0 -84 37 -132t127 -48q68 0 125 34.5t98 94t63.5 137.5 t22.5 164q0 88 -39 134t-129 46q-72 0 -128 -39t-96 -100.5t-60.5 -138t-20.5 -152.5z" />
<glyph unicode="p" horiz-adv-x="1110" d="M-41 -494l195 1024q6 35 19 102.5t26.5 141.5t25 141.5t17.5 102.5h252q-6 -31 -14.5 -61.5t-18.5 -68.5t-25.5 -84t-34.5 -106l5 -2q37 76 83 138.5t99 108.5t113.5 71.5t127.5 25.5q117 0 178.5 -76.5t61.5 -240.5q0 -145 -39 -278.5t-120 -237t-203.5 -164.5 t-290.5 -61q-29 0 -53.5 2t-57.5 6l-90 -484h-256zM348 205q25 -8 55.5 -13.5t59.5 -5.5q88 0 152.5 46.5t106.5 118t62.5 157.5t20.5 166q0 76 -20.5 108.5t-57.5 32.5q-55 0 -113.5 -55t-109.5 -138t-90 -177.5t-54 -174.5z" />
<glyph unicode="q" horiz-adv-x="1110" d="M61 295q0 143 39 277.5t120 237.5t204 164.5t291 61.5q92 0 183 -8t177 -24l-284 -1498h-256l79 420q8 47 18.5 91t25 91.5t32 99.5t41.5 116h-4q-31 -55 -73 -117t-95 -113t-117.5 -84t-140.5 -33q-117 0 -178.5 77t-61.5 241zM326 344q0 -76 19.5 -108.5t57.5 -32.5 q55 0 113.5 55t110 138t90.5 179.5t55 176.5l12 65q-25 6 -52 10t-62 4q-88 0 -152.5 -46t-107.5 -117.5t-63.5 -157.5t-20.5 -166z" />
<glyph unicode="r" horiz-adv-x="718" d="M51 0l103 532q6 35 19 102.5t26.5 141.5t25 140.5t17.5 101.5h247q-10 -59 -30.5 -131t-57.5 -176h5q41 80 82.5 145.5t89 109.5t102.5 64q35 12 75 12q22 0 46 -4l-56 -252q-18 6 -36 6q-37 0 -79 -26q-60 -38 -114.5 -116.5t-97.5 -189t-68 -239.5l-43 -221h-256z" />
<glyph unicode="s" horiz-adv-x="772" d="M18 -2l48 219q35 -14 75.5 -22.5t79.5 -8.5q78 0 124 30t46 85q0 51 -41 88t-90 78t-90 96t-41 146q0 70 27.5 130t82 104t136.5 69.5t192 25.5q100 0 172 -14l-47 -201q-35 10 -68.5 15.5t-68.5 5.5q-80 0 -119 -30t-39 -79q0 -47 41 -85t91.5 -82t91.5 -101t41 -141 q0 -63 -28 -126t-85 -112t-145.5 -78.5t-206.5 -29.5q-102 0 -179 18z" />
<glyph unicode="t" horiz-adv-x="751" d="M78 815l41 203h172l59 313l266 53l-69 -366h241l-40 -203h-240l-86 -459q-8 -47 -8 -79q0 -29 7 -45q15 -32 79 -31q39 0 68.5 4t58.5 10l-25 -209q-51 -12 -106.5 -19t-102.5 -7q-166 0 -217 82q-30 48 -30 133q0 58 14 133l92 487h-174z" />
<glyph unicode="u" horiz-adv-x="1142" d="M101 180q-1 16 -1 31q0 49 11 104l135 703h256l-123 -639q-9 -50 -8 -85q0 -31 6 -50q14 -41 63 -41q51 0 108.5 53t110 136t92.5 180.5t56 187.5l49 258h256l-102 -533q-6 -35 -19.5 -102.5t-27 -141t-24.5 -140t-17 -101.5h-250q8 47 28.5 121t61.5 194l-4 2 q-35 -68 -79 -130t-97.5 -108t-116 -74t-135.5 -28q-74 0 -123 25t-75 70.5t-31 107.5z" />
<glyph unicode="v" horiz-adv-x="1007" d="M115 1018h272l68 -443q10 -59 15 -120.5t9 -120.5h4l359 729l250 -76l-533 -987h-270z" />
<glyph unicode="w" horiz-adv-x="1599" d="M131 1018h268l33 -385q6 -76 11.5 -150.5t7.5 -148.5h2q78 174 158.5 343t164.5 341h248l49 -385q10 -84 15.5 -160t7.5 -141h2q80 184 161.5 365.5t167.5 363.5l248 -72l-491 -989h-289l-55 438q-6 53 -10.5 108.5t-4.5 121.5h-2q-78 -168 -156.5 -334t-162.5 -334h-264 z" />
<glyph unicode="x" horiz-adv-x="1071" d="M-51 66l438 464l-231 488h286l144 -334l340 393l207 -123l-422 -458l239 -496h-301l-141 336l-346 -397z" />
<glyph unicode="y" horiz-adv-x="1048" d="M-197 -494l43 226q55 -20 125 -21q49 0 99.5 21.5t91.5 62.5q47 47 70.5 107.5t23.5 154.5q0 219 -44 464t-114 497h287q20 -84 39.5 -178.5t33 -189.5t21.5 -187t8 -172q0 -41 -10 -86h4q102 188 195.5 394t193.5 462l244 -70q-111 -254 -210 -456.5t-192.5 -362.5 t-183.5 -280.5t-180 -210.5q-102 -100 -197.5 -145.5t-195.5 -45.5q-82 0 -152 16z" />
<glyph unicode="z" horiz-adv-x="894" d="M4 0l35 186l489 602q-29 -2 -81 -3t-123 -1h-160l45 234h690l-37 -187l-481 -593q33 2 96 2h121h160l-45 -240h-709z" />
<glyph unicode="{" horiz-adv-x="727" d="M70 543l39 196q51 2 91 13.5t69.5 36t50 65.5t32.5 107l33 178q41 223 145.5 337.5t305.5 114.5h45l-39 -207q-49 0 -84 -10t-59.5 -36.5t-42 -73.5t-31.5 -121l-33 -176q-16 -84 -41 -143.5t-56.5 -98.5t-69.5 -58.5t-81 -25.5v-4q78 -12 116 -89t5 -239l-53 -274 q-14 -74 -15.5 -122t13 -74.5t45 -37t80.5 -10.5l-41 -211h-41q-197 0 -261.5 112.5t-17.5 344.5l53 276q27 129 -17 176.5t-140 53.5z" />
<glyph unicode="|" horiz-adv-x="577" d="M2 -494l389 2048h205l-391 -2048h-203z" />
<glyph unicode="}" horiz-adv-x="727" d="M-96 -418l39 209q49 0 83.5 10.5t59.5 38t41 75.5t31 122l53 272q33 170 98.5 246t151.5 86v4q-41 6 -71 26.5t-47 58.5t-19 96.5t14 140.5l35 176q14 74 14 121t-14.5 73.5t-44 36.5t-78.5 10l39 207h41q199 0 262 -112.5t18 -339.5l-37 -178q-12 -66 -7 -107 t25.5 -65.5t56.5 -36t85 -13.5l-37 -196q-53 -4 -93 -15.5t-69.5 -37t-50 -68.5t-32.5 -109l-54 -274q-23 -121 -59.5 -207t-90.5 -141.5t-128 -82t-172 -26.5h-43z" />
<glyph unicode="~" d="M176 881q10 176 99.5 270t232.5 94q88 0 137 -33.5t82 -73.5t60.5 -74t70.5 -34q51 0 79 43t38 123h194q-8 -178 -98 -271.5t-233 -93.5q-57 0 -98.5 15.5t-71 40t-50 51.5t-40 51.5t-41 39.5t-50.5 15q-51 0 -78.5 -43t-37.5 -120h-195z" />
<glyph unicode="&#xa1;" horiz-adv-x="645" d="M-14 -432l241 1065h219l-161 -1065h-299zM227 877q0 72 49.5 117.5t116.5 45.5q70 0 111 -43t41 -102q0 -72 -49.5 -119t-118.5 -47q-68 0 -109 44t-41 104z" />
<glyph unicode="&#xa2;" d="M178 555q0 119 37 221.5t102.5 179t158.5 128t204 69.5l33 178h198l-34 -170q47 -4 100 -15t100 -30l-92 -209q-90 45 -199 45q-74 0 -135 -27.5t-104 -75.5t-66.5 -111.5t-23.5 -135.5q0 -184 219 -184q57 0 112.5 11t114.5 38l35 -203q-55 -25 -120.5 -42t-121.5 -21 l-39 -201h-198l39 203q-152 16 -236 102t-84 250z" />
<glyph unicode="&#xa3;" d="M51 0l33 178q68 49 112 92t69.5 88t35.5 94.5t12 108.5h-196l37 203h170q2 100 21.5 205.5t75.5 190.5t158.5 139.5t274.5 54.5q57 0 127 -8.5t129 -24.5l-80 -219q-41 16 -94 27.5t-111 11.5q-74 0 -120 -29t-71.5 -80t-34.5 -119.5t-11 -148.5h309l-37 -203h-285 q-2 -111 -40.5 -190.5t-122.5 -149.5q33 2 70.5 3t78.5 1h397l-43 -225h-864z" />
<glyph unicode="&#xa4;" d="M45 248l174 176q-33 53 -33 147q0 92 32 183.5t106 169.5l-113 188l221 137l109 -198q74 27 151 26q35 0 67 -5t60 -17l182 196l175 -151l-181 -182q12 -23 18.5 -55t6.5 -68q0 -94 -29.5 -182.5t-101.5 -174.5l123 -200l-224 -142l-116 211q-82 -33 -158 -33 q-35 0 -61.5 5.5t-49.5 13.5l-178 -195zM420 610q0 -63 30.5 -104t102.5 -41q59 0 103 27.5t74 69.5t44 92.5t14 97.5q0 61 -32.5 98t-106.5 37q-53 0 -96 -23.5t-72.5 -62.5t-45 -89t-15.5 -102z" />
<glyph unicode="&#xa5;" d="M61 201l33 166h316l22 120h-317l32 168h256l-196 676h280l88 -342q14 -55 23.5 -109.5t17.5 -95.5h5q23 45 57.5 102.5t66.5 108.5l218 336h290l-462 -676h256l-33 -168h-318l-22 -120h317l-30 -166h-318l-39 -201h-264l39 201h-318z" />
<glyph unicode="&#xa6;" horiz-adv-x="577" d="M2 -494l148 775h202l-147 -775h-203zM250 801l141 753h205l-143 -753h-203z" />
<glyph unicode="&#xa7;" horiz-adv-x="1062" d="M70 -322l55 222q41 -12 78 -19.5t73 -7.5q61 0 100.5 16.5t63 41t32.5 53t9 51.5q0 39 -23.5 77t-60.5 77.5t-77.5 82.5t-77.5 92.5t-60.5 108.5t-23.5 131q0 111 55 203t158 162q-23 41 -34 77.5t-11 81.5q0 55 24.5 122t81.5 125.5t150.5 97t228.5 38.5q47 0 92 -4 t86 -12l-53 -217q-70 20 -139 20q-57 0 -94 -15t-58.5 -37.5t-30 -51.5t-8.5 -53q0 -55 50.5 -109.5t111.5 -120t111.5 -151.5t50.5 -203q0 -104 -57.5 -197.5t-153.5 -154.5q18 -29 29.5 -68t11.5 -82q0 -76 -33 -147.5t-95.5 -126.5t-156.5 -89t-217 -34q-51 0 -99 5 t-89 15zM395 653q0 -70 54.5 -139.5t148.5 -171.5q51 35 73.5 80t22.5 90q0 37 -14 71.5t-40 71.5t-63.5 79t-84.5 95q-51 -35 -74 -79.5t-23 -96.5z" />
<glyph unicode="&#xa8;" horiz-adv-x="1095" d="M158 1323q0 63 43 104t102 41t98 -40t39 -95q0 -63 -43 -105t-102 -42t-98 41t-39 96zM571 1325q0 61 44 102t104 41q59 0 97 -40t38 -95q0 -63 -43 -105t-102 -42t-98.5 41t-39.5 98z" />
<glyph unicode="&#xa9;" horiz-adv-x="1529" d="M106 647q0 156 59.5 291t161 233.5t234.5 154.5t279 56q141 0 263 -51t213 -141t142 -211t51 -258q0 -160 -60 -295t-161.5 -233.5t-233.5 -153.5t-278 -55q-143 0 -266 52t-212 141t-140.5 210t-51.5 260zM305 657q0 -98 37 -186t102.5 -153.5t152.5 -103.5t189 -38 q104 0 198.5 40t166.5 111.5t115 169t43 212.5q0 98 -37 186t-101.5 153.5t-152.5 103.5t-189 38q-104 0 -199 -40t-167 -111.5t-115 -169t-43 -212.5zM471 586q0 90 28.5 174t82 148.5t131.5 102.5t174 38q59 0 101 -8.5t73 -22.5l-62 -172q-43 33 -120 33q-53 0 -90 -25 t-59.5 -62.5t-34 -83.5t-11.5 -92q0 -115 111 -114q35 0 73.5 6t73.5 22l6 -168q-49 -23 -102 -31.5t-103 -8.5q-131 0 -201.5 69.5t-70.5 194.5z" />
<glyph unicode="&#xaa;" horiz-adv-x="823" d="M88 360l39 203h641l-37 -203h-643zM135 879q0 104 30 198t89 166t147 115t205 43q66 0 134.5 -5.5t138.5 -17.5q-16 -88 -36 -186t-38.5 -193.5t-33.5 -182.5t-23 -150h-201q8 37 22.5 83t32.5 99h-2q-53 -96 -123.5 -147.5t-157.5 -51.5q-184 0 -184 230zM348 926 q0 -49 12.5 -70.5t38.5 -21.5q35 0 73 29.5t72 78.5t58.5 110.5t34.5 125.5l8 45q-45 10 -78 10q-53 0 -93 -27.5t-68.5 -71.5t-43 -99.5t-14.5 -108.5z" />
<glyph unicode="&#xab;" horiz-adv-x="1064" d="M111 612l288 389l191 -100l-230 -301l123 -307l-213 -92zM551 610l305 381l184 -100l-239 -291l141 -295l-211 -94z" />
<glyph unicode="&#xac;" d="M86 500l43 219h922l-101 -524h-231l57 305h-690z" />
<glyph unicode="&#xad;" horiz-adv-x="675" d="M90 463l41 211h496l-41 -211h-496z" />
<glyph unicode="&#xae;" horiz-adv-x="1132" d="M211 1057q0 111 41 203t109.5 158.5t158.5 103.5t187 37q94 0 177 -34t143 -93.5t95 -141.5t35 -178q0 -109 -42 -200t-110.5 -157.5t-158.5 -103.5t-187 -37q-96 0 -178 34t-141 93.5t-94 140.5t-35 175zM371 1071q0 -63 22.5 -119.5t62.5 -99.5t94 -67.5t118 -24.5 q63 0 123.5 26.5t105.5 72.5t72.5 109.5t27.5 137.5q0 61 -22.5 116.5t-62.5 98.5t-94 67.5t-118 24.5q-66 0 -125 -25.5t-105 -71.5t-72.5 -108.5t-26.5 -136.5zM479 864l86 457h176q78 0 112 -27.5t34 -76.5q0 -113 -119 -154q14 -25 25 -59l41 -140h-142l-43 174h-18 l-33 -174h-119zM649 1122h21q37 0 58.5 19.5t21.5 50.5q0 35 -48 35h-34z" />
<glyph unicode="&#xaf;" horiz-adv-x="792" d="M207 1229l35 188h540l-34 -188h-541z" />
<glyph unicode="&#xb0;" horiz-adv-x="778" d="M231 1198q0 78 30 136.5t77 98.5t105.5 59t115.5 19q78 0 132 -21.5t88 -57t49.5 -82t15.5 -97.5q0 -80 -30 -139t-77 -98t-106.5 -58.5t-118.5 -19.5q-139 0 -210 72.5t-71 187.5zM426 1217q0 -51 27.5 -82t78.5 -31q49 0 83 36t34 97q0 18 -5 37.5t-17.5 36t-32 27 t-47.5 10.5q-49 0 -85 -35t-36 -96z" />
<glyph unicode="&#xb1;" d="M-2 0l43 219h950l-41 -219h-952zM127 709l39 217h358l74 372h248l-72 -372h359l-41 -217h-359l-69 -375h-250l71 375h-358z" />
<glyph unicode="&#xb2;" horiz-adv-x="647" d="M135 725l29 145l135 103q84 61 113.5 96t29.5 68q0 51 -63 51q-25 0 -56.5 -9.5t-60.5 -23.5l-16 154q47 18 101 30.5t108 12.5q117 0 169 -45t52 -115t-39 -125t-131 -123l-78 -57h211l-33 -162h-471z" />
<glyph unicode="&#xb3;" horiz-adv-x="954" d="M139 721l37 133q20 -6 47 -10t51 -4q127 0 127 82q0 35 -42 47t-136 -2l23 120h24q94 0 131 25t37 64q0 16 -14 29.5t-51 13.5q-59 0 -113 -27l-10 127q35 14 88 23.5t106 9.5q115 0 163 -42.5t48 -99.5q0 -53 -27.5 -99t-90.5 -73q43 -6 66.5 -36.5t23.5 -73.5 t-18.5 -83t-59.5 -71t-105.5 -50t-156.5 -19q-39 0 -82 6t-66 10z" />
<glyph unicode="&#xb4;" horiz-adv-x="788" d="M201 1290l366 254l107 -178l-387 -219z" />
<glyph unicode="&#xb6;" horiz-adv-x="1193" d="M188 838q0 104 38 201.5t112 174t180.5 122.5t243.5 46l-172 -909q-102 0 -178 25.5t-125 74t-74 116t-25 149.5zM477 -197l41 209h139l263 1370h346l-37 -208h-131l-262 -1371h-359z" />
<glyph unicode="&#xb7;" horiz-adv-x="550" d="M133 606q0 37 14.5 68t39 54.5t56 36.5t66.5 13t66 -13t53.5 -35.5t34.5 -52.5t12 -63q0 -37 -14.5 -68.5t-39 -55t-57 -37t-67.5 -13.5q-72 0 -118 49.5t-46 116.5z" />
<glyph unicode="&#xb8;" horiz-adv-x="802" d="M45 -479q88 90 112.5 164.5t-30.5 167.5l221 65q59 -111 30.5 -209t-126.5 -188h-207z" />
<glyph unicode="&#xb9;" horiz-adv-x="636" d="M236 1257l196 74h191l-115 -606h-207l82 436l-143 -57z" />
<glyph unicode="&#xba;" horiz-adv-x="854" d="M92 360l37 203h631l-39 -203h-629zM170 913q0 100 30.5 190.5t87 157t137.5 105.5t181 39q82 0 137.5 -21.5t89 -58.5t48 -86t14.5 -104q0 -115 -36 -205t-97.5 -152.5t-141 -95.5t-167.5 -33q-145 0 -214 71t-69 193zM385 948q0 -53 23.5 -85t76.5 -32q45 0 81 24 t61.5 61.5t39 87t13.5 102.5q0 49 -21.5 82t-80.5 33q-53 0 -90 -28t-59.5 -69t-33 -89t-10.5 -87z" />
<glyph unicode="&#xbb;" horiz-adv-x="1064" d="M90 311l242 293l-142 295l211 92l181 -399l-308 -381zM543 301l229 303l-125 305l215 92l158 -411l-287 -387z" />
<glyph unicode="&#xbc;" horiz-adv-x="1454" d="M35 80l1253 1292l139 -125l-1255 -1292zM233 1257l197 74h193l-115 -606h-209l82 436l-141 -57zM729 100l12 136l277 370h274l-67 -360h90l-29 -146h-90l-18 -100h-185l21 100h-285zM907 244h135l45 239z" />
<glyph unicode="&#xbd;" horiz-adv-x="1460" d="M35 80l1253 1292l139 -125l-1255 -1292zM233 1257l197 74h193l-115 -606h-209l82 436l-141 -57zM791 0l28 147l137 101q84 61 113 96t29 68q0 51 -62 51q-27 0 -58.5 -8.5t-57.5 -24.5l-17 154q47 18 100.5 30.5t106.5 12.5q117 0 169 -45t52 -113q0 -72 -39 -127 t-131 -123l-78 -57h211l-30 -162h-473z" />
<glyph unicode="&#xbe;" horiz-adv-x="1464" d="M45 80l1251 1292l140 -125l-1254 -1292zM145 721l37 133q20 -6 47 -10t54 -4q127 0 127 82q0 35 -42 47t-139 -2l23 120h27q94 0 129.5 25t35.5 64q0 16 -14 29.5t-49 13.5q-57 0 -115 -27l-10 127q37 14 90 23.5t107 9.5q115 0 162 -42.5t47 -99.5q0 -53 -28 -99 t-91 -73q43 -6 66.5 -36.5t23.5 -73.5t-18.5 -83t-59.5 -71t-105.5 -50t-156.5 -19q-39 0 -82 6t-66 10zM739 100l13 136l276 370h277l-70 -360h90l-27 -146h-90l-20 -100h-182l18 100h-285zM918 244h135l47 239z" />
<glyph unicode="&#xbf;" horiz-adv-x="905" d="M6 -72q0 92 35 158t85 117t108.5 94t105.5 91t73.5 105.5t16.5 139.5h252q16 -102 -7.5 -175t-66.5 -128.5t-97 -97.5l-103.5 -80.5t-82 -80.5t-32.5 -96q0 -43 26.5 -75.5t73.5 -55t111.5 -37t138.5 -20.5l-78 -238q-141 8 -246.5 41t-175 83.5t-103.5 116t-34 138.5z M440 877q0 72 49.5 117.5t116.5 45.5q70 0 111 -43t41 -102q0 -72 -50.5 -119t-117.5 -47q-68 0 -109 44t-41 104z" />
<glyph unicode="&#xc0;" horiz-adv-x="1257" d="M-86 0l731 1382h307l215 -1382h-280l-39 283h-514l-148 -283h-272zM438 494h383l-59 409q-6 49 -11.5 97.5t-7.5 95.5h-4q-16 -45 -38.5 -93.5t-47.5 -97.5zM502 1575l81 188l404 -153l-57 -144z" />
<glyph unicode="&#xc1;" horiz-adv-x="1257" d="M-86 0l731 1382h307l215 -1382h-280l-39 283h-514l-148 -283h-272zM438 494h383l-59 409q-6 49 -11.5 97.5t-7.5 95.5h-4q-16 -45 -38.5 -93.5t-47.5 -97.5zM633 1610l434 153l39 -188l-444 -109z" />
<glyph unicode="&#xc2;" horiz-adv-x="1257" d="M-86 0l731 1382h307l215 -1382h-280l-39 283h-514l-148 -283h-272zM438 494h383l-59 409q-6 49 -11.5 97.5t-7.5 95.5h-4q-16 -45 -38.5 -93.5t-47.5 -97.5zM481 1591l354 178l312 -174l-72 -131l-256 123l-289 -123z" />
<glyph unicode="&#xc3;" horiz-adv-x="1257" d="M-86 0l731 1382h307l215 -1382h-280l-39 283h-514l-148 -283h-272zM438 494h383l-59 409q-6 49 -11.5 97.5t-7.5 95.5h-4q-16 -45 -38.5 -93.5t-47.5 -97.5zM444 1589q49 82 112.5 125t145.5 43q51 0 86 -15.5t62.5 -32.5t51 -32.5t52.5 -15.5q66 0 121 86l125 -88 q-49 -82 -114.5 -125t-145.5 -43q-51 0 -86 15.5t-61.5 32.5t-50 32.5t-52.5 15.5q-70 0 -121 -88z" />
<glyph unicode="&#xc4;" horiz-adv-x="1257" d="M-86 0l731 1382h307l215 -1382h-280l-39 283h-514l-148 -283h-272zM438 494h383l-59 409q-6 49 -11.5 97.5t-7.5 95.5h-4q-16 -45 -38.5 -93.5t-47.5 -97.5zM471 1599q0 61 40.5 102.5t96.5 41.5q57 0 94 -39t37 -92q0 -61 -42 -100t-97 -39t-92 36.5t-37 89.5zM901 1599 q0 61 41 102.5t96 41.5t92 -39t37 -92q0 -61 -41 -100t-96 -39t-92 36.5t-37 89.5z" />
<glyph unicode="&#xc5;" horiz-adv-x="1257" d="M-86 0l731 1382h307l215 -1382h-280l-39 283h-514l-148 -283h-272zM438 494h383l-59 409q-6 49 -11.5 97.5t-7.5 95.5h-4q-16 -45 -38.5 -93.5t-47.5 -97.5zM590 1673q0 53 20.5 98t54.5 77t79 49.5t94 17.5t90 -16.5t70.5 -46t47 -69.5t17.5 -85q0 -53 -20.5 -97.5 t-54 -76t-79 -50t-94.5 -18.5t-90 16.5t-70.5 46t-47 68.5t-17.5 86zM727 1681q0 -41 27 -68.5t67 -27.5q43 0 73 31t30 76q0 39 -25.5 67.5t-66.5 28.5q-43 0 -74 -32t-31 -75z" />
<glyph unicode="&#xc6;" horiz-adv-x="1562" d="M-168 0l916 1382h878l-43 -223h-467l-63 -340h450l-43 -217h-448l-74 -375h483l-43 -227h-735l59 297h-393l-196 -297h-281zM438 508h305l123 653h-2q-41 -70 -84 -143.5t-102 -159.5z" />
<glyph unicode="&#xc7;" horiz-adv-x="1124" d="M96 467q0 176 51.5 343t153.5 297t255 209t353 79q86 0 159 -11.5t134 -27.5l-72 -244q-125 45 -247 45q-137 0 -230.5 -61.5t-151 -155.5t-83 -208t-25.5 -216q0 -66 14.5 -120t48 -92t91 -58.5t141.5 -20.5q78 0 148.5 15.5t132.5 42.5l-2 -242q-78 -27 -174.5 -42 t-182.5 -15q-158 0 -258 44t-156.5 112.5t-78 154.5t-21.5 172zM324 -479q88 90 112.5 164.5t-30.5 167.5l221 65q59 -111 30.5 -209t-126.5 -188h-207z" />
<glyph unicode="&#xc8;" horiz-adv-x="987" d="M53 0l262 1382h736l-41 -223h-475l-66 -340h453l-43 -217h-451l-70 -375h473l-43 -227h-735zM402 1575l81 188l404 -153l-57 -144z" />
<glyph unicode="&#xc9;" horiz-adv-x="987" d="M53 0l262 1382h736l-41 -223h-475l-66 -340h453l-43 -217h-451l-70 -375h473l-43 -227h-735zM518 1610l434 153l39 -188l-444 -109z" />
<glyph unicode="&#xca;" horiz-adv-x="987" d="M53 0l262 1382h736l-41 -223h-475l-66 -340h453l-43 -217h-451l-70 -375h473l-43 -227h-735zM371 1591l354 178l312 -174l-72 -131l-256 123l-289 -123z" />
<glyph unicode="&#xcb;" horiz-adv-x="987" d="M53 0l262 1382h736l-41 -223h-475l-66 -340h453l-43 -217h-451l-70 -375h473l-43 -227h-735zM355 1599q0 61 40.5 102.5t96.5 41.5q57 0 94 -39t37 -92q0 -61 -42 -100t-97 -39t-92 36.5t-37 89.5zM785 1599q0 61 41 102.5t96 41.5t92 -39t37 -92q0 -61 -41 -100t-96 -39 t-92 36.5t-37 89.5z" />
<glyph unicode="&#xcc;" horiz-adv-x="542" d="M53 0l262 1382h263l-263 -1382h-262zM168 1575l81 188l404 -153l-57 -144z" />
<glyph unicode="&#xcd;" horiz-adv-x="542" d="M53 0l262 1382h263l-263 -1382h-262zM288 1610l434 153l39 -188l-444 -109z" />
<glyph unicode="&#xce;" horiz-adv-x="542" d="M53 0l262 1382h263l-263 -1382h-262zM139 1591l354 178l312 -174l-72 -131l-256 123l-289 -123z" />
<glyph unicode="&#xcf;" horiz-adv-x="542" d="M53 0l262 1382h263l-263 -1382h-262zM125 1599q0 61 40.5 102.5t96.5 41.5q57 0 94 -39t37 -92q0 -61 -42 -100t-97 -39t-92 36.5t-37 89.5zM555 1599q0 61 41 102.5t96 41.5t92 -39t37 -92q0 -61 -41 -100t-96 -39t-92 36.5t-37 89.5z" />
<glyph unicode="&#xd0;" horiz-adv-x="1368" d="M27 602l39 201h159l111 577q78 2 194.5 6.5t231.5 4.5q293 0 438.5 -128t145.5 -372q0 -174 -54.5 -336t-164 -287t-275.5 -200.5t-387 -75.5q-123 0 -214 3t-177 7l112 600h-159zM377 229q29 -4 63.5 -7t63.5 -3q156 0 264.5 63.5t174 160t95 209t29.5 212.5 q0 68 -16.5 124t-56.5 96t-105.5 61.5t-161.5 21.5q-109 0 -172 -6l-68 -358h242l-39 -201h-241z" />
<glyph unicode="&#xd1;" horiz-adv-x="1376" d="M53 0l262 1382h310l258 -653q33 -82 57.5 -166t46.5 -162q12 96 29.5 204t36.5 206l104 571h256l-264 -1382h-305l-266 690q-29 78 -53.5 155t-41.5 146q-12 -98 -27.5 -194.5t-35.5 -200.5l-113 -596h-254zM530 1589q49 82 112.5 125t145.5 43q51 0 86 -15.5t62.5 -32.5 t51 -32.5t52.5 -15.5q66 0 121 86l125 -88q-49 -82 -114.5 -125t-145.5 -43q-51 0 -86 15.5t-61.5 32.5t-50 32.5t-52.5 15.5q-70 0 -121 -88z" />
<glyph unicode="&#xd2;" horiz-adv-x="1411" d="M90 481q0 186 61.5 354.5t171 295t257 200.5t319.5 74q252 0 381 -132t129 -374q0 -201 -63.5 -370t-174 -291.5t-257 -191.5t-312.5 -69q-262 0 -387 134.5t-125 369.5zM371 526q0 -147 68.5 -227t199.5 -80q104 0 194.5 52.5t156 140.5t102 205.5t36.5 250.5 q0 135 -65.5 216t-206.5 81q-111 0 -201 -53t-152.5 -142t-97 -205t-34.5 -239zM619 1575l81 188l404 -153l-57 -144z" />
<glyph unicode="&#xd3;" horiz-adv-x="1411" d="M90 481q0 186 61.5 354.5t171 295t257 200.5t319.5 74q252 0 381 -132t129 -374q0 -201 -63.5 -370t-174 -291.5t-257 -191.5t-312.5 -69q-262 0 -387 134.5t-125 369.5zM371 526q0 -147 68.5 -227t199.5 -80q104 0 194.5 52.5t156 140.5t102 205.5t36.5 250.5 q0 135 -65.5 216t-206.5 81q-111 0 -201 -53t-152.5 -142t-97 -205t-34.5 -239zM741 1610l434 153l39 -188l-444 -109z" />
<glyph unicode="&#xd4;" horiz-adv-x="1411" d="M90 481q0 186 61.5 354.5t171 295t257 200.5t319.5 74q252 0 381 -132t129 -374q0 -201 -63.5 -370t-174 -291.5t-257 -191.5t-312.5 -69q-262 0 -387 134.5t-125 369.5zM371 526q0 -147 68.5 -227t199.5 -80q104 0 194.5 52.5t156 140.5t102 205.5t36.5 250.5 q0 135 -65.5 216t-206.5 81q-111 0 -201 -53t-152.5 -142t-97 -205t-34.5 -239zM588 1591l354 178l312 -174l-72 -131l-256 123l-289 -123z" />
<glyph unicode="&#xd5;" horiz-adv-x="1411" d="M90 481q0 186 61.5 354.5t171 295t257 200.5t319.5 74q252 0 381 -132t129 -374q0 -201 -63.5 -370t-174 -291.5t-257 -191.5t-312.5 -69q-262 0 -387 134.5t-125 369.5zM371 526q0 -147 68.5 -227t199.5 -80q104 0 194.5 52.5t156 140.5t102 205.5t36.5 250.5 q0 135 -65.5 216t-206.5 81q-111 0 -201 -53t-152.5 -142t-97 -205t-34.5 -239zM557 1589q49 82 112.5 125t145.5 43q51 0 86 -15.5t62.5 -32.5t51 -32.5t52.5 -15.5q66 0 121 86l125 -88q-49 -82 -114.5 -125t-145.5 -43q-51 0 -86 15.5t-61.5 32.5t-50 32.5t-52.5 15.5 q-70 0 -121 -88z" />
<glyph unicode="&#xd6;" horiz-adv-x="1411" d="M90 481q0 186 61.5 354.5t171 295t257 200.5t319.5 74q252 0 381 -132t129 -374q0 -201 -63.5 -370t-174 -291.5t-257 -191.5t-312.5 -69q-262 0 -387 134.5t-125 369.5zM371 526q0 -147 68.5 -227t199.5 -80q104 0 194.5 52.5t156 140.5t102 205.5t36.5 250.5 q0 135 -65.5 216t-206.5 81q-111 0 -201 -53t-152.5 -142t-97 -205t-34.5 -239zM584 1599q0 61 40.5 102.5t96.5 41.5q57 0 94 -39t37 -92q0 -61 -42 -100t-97 -39t-92 36.5t-37 89.5zM1014 1599q0 61 41 102.5t96 41.5t92 -39t37 -92q0 -61 -41 -100t-96 -39t-92 36.5 t-37 89.5z" />
<glyph unicode="&#xd7;" d="M61 297l381 319l-258 320l176 141l254 -315l373 315l131 -155l-377 -318l258 -321l-176 -142l-256 318l-377 -318z" />
<glyph unicode="&#xd8;" horiz-adv-x="1411" d="M90 481q0 188 60.5 356.5t168 294t255 199.5t321.5 74q31 0 58.5 -2t54.5 -8l100 190l184 -65l-98 -185q106 -59 160.5 -169.5t54.5 -266.5q0 -201 -63.5 -370t-174 -291.5t-257 -191.5t-312.5 -69q-72 0 -129 13l-106 -203l-187 68l107 198q-100 63 -148.5 172 t-48.5 256zM362 522q0 -66 16.5 -117t51.5 -86l457 848q-23 2 -47.5 1t-48.5 -5q-96 -16 -175 -73.5t-135.5 -145.5t-87.5 -196.5t-31 -225.5zM596 219q55 -6 117 6q90 16 167.5 73.5t134 143.5t89.5 196.5t33 233.5q0 68 -18.5 121.5t-57.5 87.5z" />
<glyph unicode="&#xd9;" horiz-adv-x="1366" d="M134 299q-7 96 13 207l166 876h262l-172 -897q-27 -141 21.5 -213.5t198.5 -72.5q154 0 237.5 76.5t118.5 254.5l164 852h258l-168 -874q-53 -274 -219 -402.5t-428 -128.5q-156 0 -252 41t-144.5 113t-55.5 168zM564 1575l81 188l404 -153l-57 -144z" />
<glyph unicode="&#xda;" horiz-adv-x="1366" d="M134 299q-7 96 13 207l166 876h262l-172 -897q-27 -141 21.5 -213.5t198.5 -72.5q154 0 237.5 76.5t118.5 254.5l164 852h258l-168 -874q-53 -274 -219 -402.5t-428 -128.5q-156 0 -252 41t-144.5 113t-55.5 168zM737 1610l434 153l39 -188l-444 -109z" />
<glyph unicode="&#xdb;" horiz-adv-x="1366" d="M134 299q-7 96 13 207l166 876h262l-172 -897q-27 -141 21.5 -213.5t198.5 -72.5q154 0 237.5 76.5t118.5 254.5l164 852h258l-168 -874q-53 -274 -219 -402.5t-428 -128.5q-156 0 -252 41t-144.5 113t-55.5 168zM547 1591l354 178l312 -174l-72 -131l-256 123l-289 -123 z" />
<glyph unicode="&#xdc;" horiz-adv-x="1366" d="M134 299q-7 96 13 207l166 876h262l-172 -897q-27 -141 21.5 -213.5t198.5 -72.5q154 0 237.5 76.5t118.5 254.5l164 852h258l-168 -874q-53 -274 -219 -402.5t-428 -128.5q-156 0 -252 41t-144.5 113t-55.5 168zM533 1599q0 61 40.5 102.5t96.5 41.5q57 0 94 -39t37 -92 q0 -61 -42 -100t-97 -39t-92 36.5t-37 89.5zM963 1599q0 61 41 102.5t96 41.5t92 -39t37 -92q0 -61 -41 -100t-96 -39t-92 36.5t-37 89.5z" />
<glyph unicode="&#xdd;" d="M180 1382h275l104 -397q31 -125 49 -229h4q33 59 74 124.5t84 131.5l238 370h288l-602 -893l-92 -489h-260l92 487zM626 1610l434 153l39 -188l-444 -109z" />
<glyph unicode="&#xde;" horiz-adv-x="1089" d="M53 0l262 1382h263l-37 -192q35 2 70.5 3t76.5 1q217 0 326.5 -93t109.5 -263q0 -121 -46 -226.5t-131 -185.5t-204.5 -126t-267.5 -46h-65q-25 0 -48 4l-49 -258h-260zM406 479q47 -8 104 -8q80 0 142.5 25.5t105.5 70.5t66.5 102.5t23.5 123.5q0 80 -51.5 132 t-171.5 52q-29 0 -64 -2t-63 -6z" />
<glyph unicode="&#xdf;" horiz-adv-x="1206" d="M-338 -494l59 211q27 -8 54.5 -10t54.5 -2q45 0 79 12.5t59.5 42t44 78.5t32.5 125l199 1049q49 258 196.5 377.5t358.5 119.5q168 0 266 -71.5t98 -200.5q0 -72 -22.5 -122t-55 -88t-72.5 -67.5t-73 -58.5t-55.5 -61.5t-22.5 -77.5q0 -51 35 -95t76 -91.5t75.5 -105.5 t34.5 -138q0 -68 -28.5 -131.5t-86 -112.5t-143.5 -78.5t-198 -29.5q-53 0 -95.5 4t-80.5 10l45 219q74 -29 151 -29q78 0 121 33t43 92q0 55 -34 97.5t-73.5 88.5t-73.5 102t-34 136q0 98 46 159.5t102.5 109t102.5 93.5t46 115q0 41 -32 69t-95 28q-98 0 -166 -68 t-96 -215l-203 -1063q-47 -254 -169 -362.5t-320 -108.5q-35 0 -75 5t-75 11z" />
<glyph unicode="&#xe0;" horiz-adv-x="1110" d="M61 295q0 143 39 277.5t120 237.5t204 164.5t291 61.5q92 0 183 -7t177 -23q-35 -178 -61.5 -319.5t-49 -260.5t-41 -222.5t-34.5 -203.5h-254q14 59 37.5 138t58.5 186h-4q-31 -55 -73 -117t-95 -113t-117.5 -84t-140.5 -33q-117 0 -178.5 77t-61.5 241zM326 344 q0 -76 19.5 -108.5t57.5 -32.5q55 0 113.5 55t110 138t90.5 179.5t55 176.5l12 65q-25 6 -52 10t-62 4q-88 0 -152.5 -46t-107.5 -117.5t-63.5 -157.5t-20.5 -166zM477 1374l127 170l332 -258l-107 -139z" />
<glyph unicode="&#xe1;" horiz-adv-x="1110" d="M61 295q0 143 39 277.5t120 237.5t204 164.5t291 61.5q92 0 183 -7t177 -23q-35 -178 -61.5 -319.5t-49 -260.5t-41 -222.5t-34.5 -203.5h-254q14 59 37.5 138t58.5 186h-4q-31 -55 -73 -117t-95 -113t-117.5 -84t-140.5 -33q-117 0 -178.5 77t-61.5 241zM326 344 q0 -76 19.5 -108.5t57.5 -32.5q55 0 113.5 55t110 138t90.5 179.5t55 176.5l12 65q-25 6 -52 10t-62 4q-88 0 -152.5 -46t-107.5 -117.5t-63.5 -157.5t-20.5 -166zM584 1290l366 254l107 -178l-387 -219z" />
<glyph unicode="&#xe2;" horiz-adv-x="1110" d="M61 295q0 143 39 277.5t120 237.5t204 164.5t291 61.5q92 0 183 -7t177 -23q-35 -178 -61.5 -319.5t-49 -260.5t-41 -222.5t-34.5 -203.5h-254q14 59 37.5 138t58.5 186h-4q-31 -55 -73 -117t-95 -113t-117.5 -84t-140.5 -33q-117 0 -178.5 77t-61.5 241zM326 344 q0 -76 19.5 -108.5t57.5 -32.5q55 0 113.5 55t110 138t90.5 179.5t55 176.5l12 65q-25 6 -52 10t-62 4q-88 0 -152.5 -46t-107.5 -117.5t-63.5 -157.5t-20.5 -166zM430 1266l356 278l258 -276l-115 -121l-176 166l-237 -166z" />
<glyph unicode="&#xe3;" horiz-adv-x="1110" d="M61 295q0 143 39 277.5t120 237.5t204 164.5t291 61.5q92 0 183 -7t177 -23q-35 -178 -61.5 -319.5t-49 -260.5t-41 -222.5t-34.5 -203.5h-254q14 59 37.5 138t58.5 186h-4q-31 -55 -73 -117t-95 -113t-117.5 -84t-140.5 -33q-117 0 -178.5 77t-61.5 241zM326 344 q0 -76 19.5 -108.5t57.5 -32.5q55 0 113.5 55t110 138t90.5 179.5t55 176.5l12 65q-25 6 -52 10t-62 4q-88 0 -152.5 -46t-107.5 -117.5t-63.5 -157.5t-20.5 -166zM374 1294q47 90 112 136.5t142 46.5q49 0 83 -16.5t60.5 -35t50 -35t52.5 -16.5q63 0 117 92l121 -96 q-94 -182 -256 -182q-49 0 -82 16.5t-58.5 34.5t-49 34.5t-52.5 16.5q-68 0 -119 -92z" />
<glyph unicode="&#xe4;" horiz-adv-x="1110" d="M61 295q0 143 39 277.5t120 237.5t204 164.5t291 61.5q92 0 183 -7t177 -23q-35 -178 -61.5 -319.5t-49 -260.5t-41 -222.5t-34.5 -203.5h-254q14 59 37.5 138t58.5 186h-4q-31 -55 -73 -117t-95 -113t-117.5 -84t-140.5 -33q-117 0 -178.5 77t-61.5 241zM326 344 q0 -76 19.5 -108.5t57.5 -32.5q55 0 113.5 55t110 138t90.5 179.5t55 176.5l12 65q-25 6 -52 10t-62 4q-88 0 -152.5 -46t-107.5 -117.5t-63.5 -157.5t-20.5 -166zM385 1323q0 63 43 104t102 41t98 -40t39 -95q0 -63 -43 -105t-102 -42t-98 41t-39 96zM798 1325q0 61 44 102 t104 41q59 0 97 -40t38 -95q0 -63 -43 -105t-102 -42t-98.5 41t-39.5 98z" />
<glyph unicode="&#xe5;" horiz-adv-x="1110" d="M61 295q0 143 39 277.5t120 237.5t204 164.5t291 61.5q92 0 183 -7t177 -23q-35 -178 -61.5 -319.5t-49 -260.5t-41 -222.5t-34.5 -203.5h-254q14 59 37.5 138t58.5 186h-4q-31 -55 -73 -117t-95 -113t-117.5 -84t-140.5 -33q-117 0 -178.5 77t-61.5 241zM326 344 q0 -76 19.5 -108.5t57.5 -32.5q55 0 113.5 55t110 138t90.5 179.5t55 176.5l12 65q-25 6 -52 10t-62 4q-88 0 -152.5 -46t-107.5 -117.5t-63.5 -157.5t-20.5 -166zM512 1354q0 59 22.5 107t59.5 83t86 53.5t103 18.5q53 0 98 -18.5t78.5 -50.5t52 -75t18.5 -92 q0 -57 -22.5 -105t-59 -83t-86 -54.5t-102.5 -19.5t-98 17.5t-79 49t-52.5 74.5t-18.5 95zM664 1362q0 -43 28.5 -74t73.5 -31q47 0 80 34t33 83q0 41 -28 71.5t-75 30.5t-79.5 -33.5t-32.5 -80.5z" />
<glyph unicode="&#xe6;" horiz-adv-x="1560" d="M31 219q0 100 46 171t131 116t202.5 68.5t261.5 27.5l12 53q18 86 -14.5 133.5t-143.5 47.5q-66 0 -145.5 -18.5t-151.5 -55.5v215q84 31 175.5 47t179.5 16q131 0 195.5 -35.5t94.5 -89.5q53 47 142.5 86t187.5 39q96 0 161 -21.5t102.5 -57t54 -80.5t16.5 -90 q0 -80 -34 -144.5t-109.5 -112t-198.5 -75t-301 -33.5q-6 -41 -6 -90q0 -88 41 -120t147 -32q72 0 149 16.5t148 45.5v-201q-86 -33 -182 -49t-199 -16q-154 0 -224.5 54t-96.5 146q-55 -86 -154.5 -143t-216.5 -57q-76 0 -127 19t-83 53t-46 77t-14 90zM283 264 q0 -37 25.5 -61.5t70.5 -24.5q51 0 95 20.5t78 55.5t56.5 81t30.5 95q-80 -4 -145.5 -12t-112.5 -27.5t-72.5 -50.5t-25.5 -76zM926 598q80 4 145.5 13.5t112.5 26.5t73.5 46t26.5 72t-29.5 67.5t-76.5 24.5q-49 0 -89 -20.5t-72 -55.5t-54.5 -80t-36.5 -94z" />
<glyph unicode="&#xe7;" horiz-adv-x="827" d="M63 332q0 145 42 274t120 225.5t188.5 151.5t250.5 55q55 0 105 -7t97 -19l-61 -226q-68 31 -158 31q-80 0 -138 -40t-97 -102.5t-57.5 -138t-18.5 -147.5q0 -37 8 -69.5t29.5 -57t55.5 -39t87 -14.5q49 0 98.5 10t90.5 27l-17 -223q-53 -20 -117.5 -31.5t-130.5 -11.5 q-102 0 -173.5 24.5t-117 70.5t-66 111.5t-20.5 145.5zM135 -479q88 90 112.5 164.5t-30.5 167.5l221 65q59 -111 30.5 -209t-126.5 -188h-207z" />
<glyph unicode="&#xe8;" horiz-adv-x="993" d="M66 324q0 160 45 292t123.5 225t183 145t223.5 52q94 0 157.5 -21.5t101.5 -56t54.5 -79.5t16.5 -90q0 -92 -44 -160t-127 -114t-202 -71.5t-268 -29.5q-2 -16 -4 -40t-2 -40q0 -88 39.5 -120t146.5 -32q74 0 148.5 16.5t146.5 45.5l4 -201q-86 -33 -183.5 -49 t-199.5 -16q-195 0 -277.5 87t-82.5 257zM358 590q178 6 268.5 45t90.5 121q0 43 -27.5 66.5t-77.5 23.5q-49 0 -90 -21.5t-72.5 -56.5t-54 -82t-37.5 -96zM410 1374l127 170l332 -258l-107 -139z" />
<glyph unicode="&#xe9;" horiz-adv-x="993" d="M66 324q0 160 45 292t123.5 225t183 145t223.5 52q94 0 157.5 -21.5t101.5 -56t54.5 -79.5t16.5 -90q0 -92 -44 -160t-127 -114t-202 -71.5t-268 -29.5q-2 -16 -4 -40t-2 -40q0 -88 39.5 -120t146.5 -32q74 0 148.5 16.5t146.5 45.5l4 -201q-86 -33 -183.5 -49 t-199.5 -16q-195 0 -277.5 87t-82.5 257zM358 590q178 6 268.5 45t90.5 121q0 43 -27.5 66.5t-77.5 23.5q-49 0 -90 -21.5t-72.5 -56.5t-54 -82t-37.5 -96zM498 1290l366 254l107 -178l-387 -219z" />
<glyph unicode="&#xea;" horiz-adv-x="958" d="M66 324q0 160 45 292t123.5 225t183 145t223.5 52q94 0 157.5 -21.5t101.5 -56t54.5 -79.5t16.5 -90q0 -92 -44 -160t-127 -114t-202 -71.5t-268 -29.5q-2 -16 -4 -40t-2 -40q0 -88 39.5 -120t146.5 -32q74 0 148.5 16.5t146.5 45.5l4 -201q-86 -33 -183.5 -49 t-199.5 -16q-195 0 -277.5 87t-82.5 257zM358 590q178 6 268.5 45t90.5 121q0 43 -27.5 66.5t-77.5 23.5q-49 0 -90 -21.5t-72.5 -56.5t-54 -82t-37.5 -96zM365 1266l356 278l258 -276l-115 -121l-176 166l-237 -166z" />
<glyph unicode="&#xeb;" horiz-adv-x="993" d="M66 324q0 160 45 292t123.5 225t183 145t223.5 52q94 0 157.5 -21.5t101.5 -56t54.5 -79.5t16.5 -90q0 -92 -44 -160t-127 -114t-202 -71.5t-268 -29.5q-2 -16 -4 -40t-2 -40q0 -88 39.5 -120t146.5 -32q74 0 148.5 16.5t146.5 45.5l4 -201q-86 -33 -183.5 -49 t-199.5 -16q-195 0 -277.5 87t-82.5 257zM342 1323q0 63 43 104t102 41t98 -40t39 -95q0 -63 -43 -105t-102 -42t-98 41t-39 96zM358 590q178 6 268.5 45t90.5 121q0 43 -27.5 66.5t-77.5 23.5q-49 0 -90 -21.5t-72.5 -56.5t-54 -82t-37.5 -96zM755 1325q0 61 44 102t104 41 q59 0 97 -40t38 -95q0 -63 -43 -105t-102 -42t-98.5 41t-39.5 98z" />
<glyph unicode="&#xec;" horiz-adv-x="536" d="M51 0l195 1018h256l-195 -1018h-256zM144 1374l127 170l332 -258l-107 -139z" />
<glyph unicode="&#xed;" horiz-adv-x="536" d="M51 0l195 1018h256l-195 -1018h-256zM209 1290l366 254l107 -178l-387 -219z" />
<glyph unicode="&#xee;" horiz-adv-x="536" d="M51 0l195 1018h256l-195 -1018h-256zM105 1266l356 278l258 -276l-115 -121l-176 166l-237 -166z" />
<glyph unicode="&#xef;" horiz-adv-x="536" d="M51 0l195 1018h256l-195 -1018h-256zM68 1323q0 63 43 104t102 41t98 -40t39 -95q0 -63 -43 -105t-102 -42t-98 41t-39 96zM481 1325q0 61 44 102t104 41q59 0 97 -40t38 -95q0 -63 -43 -105t-102 -42t-98.5 41t-39.5 98z" />
<glyph unicode="&#xf0;" horiz-adv-x="1114" d="M63 356q0 145 46.5 269.5t126 215.5t186 142t227.5 51q53 0 97.5 -14t62.5 -49q-16 49 -33 84q-16 39 -35.5 73.5t-42.5 67.5l-209 -88l-77 129l186 78q-29 31 -59.5 57.5t-63.5 54.5l250 109q31 -29 61.5 -59.5t53.5 -59.5l202 84l78 -129l-188 -80q78 -123 112.5 -252 t34.5 -264q0 -190 -50 -338.5t-134 -250t-194.5 -154.5t-229.5 -53q-190 0 -299 89t-109 287zM332 408q0 -100 44 -152.5t122 -52.5q88 0 147.5 50t93 118.5t48 142.5t14.5 123q0 80 -41 130t-123 50q-72 0 -128 -34.5t-95 -92t-60.5 -131.5t-21.5 -151z" />
<glyph unicode="&#xf1;" horiz-adv-x="1144" d="M51 0l103 532q6 35 19 102.5t26.5 141.5t25 140.5t17.5 101.5h252q-10 -47 -31 -121t-62 -195l5 -2q35 68 78.5 130.5t97 108.5t116 73.5t136.5 27.5t122 -24.5t74.5 -69.5t31.5 -107.5t-9 -136.5l-133 -702h-258l122 639q18 94 3 135t-64 41q-51 0 -108.5 -53 t-109.5 -136t-92 -181.5t-57 -186.5l-49 -258h-256zM346 1294q47 90 112 136.5t142 46.5q49 0 83 -16.5t60.5 -35t50 -35t52.5 -16.5q63 0 117 92l121 -96q-94 -182 -256 -182q-49 0 -82 16.5t-58.5 34.5t-49 34.5t-52.5 16.5q-68 0 -119 -92z" />
<glyph unicode="&#xf2;" horiz-adv-x="1116" d="M63 344q0 160 50.5 288t134.5 219t194.5 139t233.5 48q109 0 184.5 -27.5t123.5 -76.5t69.5 -117.5t21.5 -148.5q0 -158 -51 -285t-136 -217t-196.5 -138t-230.5 -48q-213 0 -305.5 96t-92.5 268zM332 385q0 -84 37 -132t127 -48q68 0 125 34.5t98 94t63.5 137.5 t22.5 164q0 88 -39 134t-129 46q-72 0 -128 -39t-96 -100.5t-60.5 -138t-20.5 -152.5zM436 1374l127 170l332 -258l-107 -139z" />
<glyph unicode="&#xf3;" horiz-adv-x="1116" d="M63 344q0 160 50.5 288t134.5 219t194.5 139t233.5 48q109 0 184.5 -27.5t123.5 -76.5t69.5 -117.5t21.5 -148.5q0 -158 -51 -285t-136 -217t-196.5 -138t-230.5 -48q-213 0 -305.5 96t-92.5 268zM332 385q0 -84 37 -132t127 -48q68 0 125 34.5t98 94t63.5 137.5 t22.5 164q0 88 -39 134t-129 46q-72 0 -128 -39t-96 -100.5t-60.5 -138t-20.5 -152.5zM549 1290l366 254l107 -178l-387 -219z" />
<glyph unicode="&#xf4;" horiz-adv-x="1116" d="M63 344q0 160 50.5 288t134.5 219t194.5 139t233.5 48q109 0 184.5 -27.5t123.5 -76.5t69.5 -117.5t21.5 -148.5q0 -158 -51 -285t-136 -217t-196.5 -138t-230.5 -48q-213 0 -305.5 96t-92.5 268zM332 385q0 -84 37 -132t127 -48q68 0 125 34.5t98 94t63.5 137.5 t22.5 164q0 88 -39 134t-129 46q-72 0 -128 -39t-96 -100.5t-60.5 -138t-20.5 -152.5zM418 1266l356 278l258 -276l-115 -121l-176 166l-237 -166z" />
<glyph unicode="&#xf5;" horiz-adv-x="1116" d="M63 344q0 160 50.5 288t134.5 219t194.5 139t233.5 48q109 0 184.5 -27.5t123.5 -76.5t69.5 -117.5t21.5 -148.5q0 -158 -51 -285t-136 -217t-196.5 -138t-230.5 -48q-213 0 -305.5 96t-92.5 268zM332 385q0 -84 37 -132t127 -48q68 0 125 34.5t98 94t63.5 137.5 t22.5 164q0 88 -39 134t-129 46q-72 0 -128 -39t-96 -100.5t-60.5 -138t-20.5 -152.5zM352 1294q47 90 112 136.5t142 46.5q49 0 83 -16.5t60.5 -35t50 -35t52.5 -16.5q63 0 117 92l121 -96q-94 -182 -256 -182q-49 0 -82 16.5t-58.5 34.5t-49 34.5t-52.5 16.5 q-68 0 -119 -92z" />
<glyph unicode="&#xf6;" horiz-adv-x="1116" d="M63 344q0 160 50.5 288t134.5 219t194.5 139t233.5 48q109 0 184.5 -27.5t123.5 -76.5t69.5 -117.5t21.5 -148.5q0 -158 -51 -285t-136 -217t-196.5 -138t-230.5 -48q-213 0 -305.5 96t-92.5 268zM332 385q0 -84 37 -132t127 -48q68 0 125 34.5t98 94t63.5 137.5 t22.5 164q0 88 -39 134t-129 46q-72 0 -128 -39t-96 -100.5t-60.5 -138t-20.5 -152.5zM377 1323q0 63 43 104t102 41t98 -40t39 -95q0 -63 -43 -105t-102 -42t-98 41t-39 96zM790 1325q0 61 44 102t104 41q59 0 97 -40t38 -95q0 -63 -43 -105t-102 -42t-98.5 41t-39.5 98z " />
<glyph unicode="&#xf7;" d="M86 500l43 219h965l-41 -219h-967zM350 193q0 35 13.5 65.5t36 53t52 34.5t62.5 12q66 0 110 -46t44 -107q0 -35 -13.5 -65.5t-36 -53.5t-52 -35t-62.5 -12q-66 0 -110 46t-44 108zM508 1016q0 35 13.5 64.5t36 52t52 36t62.5 13.5q66 0 110.5 -47.5t44.5 -108.5 q0 -35 -13 -65.5t-36.5 -53t-53.5 -35t-62 -12.5q-66 0 -110 46t-44 110z" />
<glyph unicode="&#xf8;" horiz-adv-x="1116" d="M63 344q0 150 45.5 278t126 220t193.5 144t248 52q49 0 92 -6l119 211l139 -65l-111 -193q86 -47 123 -129t37 -188q0 -158 -51 -285t-136 -217t-195.5 -138t-229.5 -48q-31 0 -58.5 3t-52.5 7l-116 -207l-142 67l109 191q-72 45 -106 122t-34 181zM307 393 q0 -76 33 -127l322 568q-31 2 -62 0q-61 -6 -114.5 -45t-93.5 -99.5t-62.5 -137.5t-22.5 -159zM459 188q37 -6 76 -4q68 8 122 52.5t92.5 109t60 141t21.5 152.5q0 78 -45 131z" />
<glyph unicode="&#xf9;" horiz-adv-x="1142" d="M101 179.5q-5 62.5 10 135.5l135 703h256l-123 -639q-16 -94 -2 -135t63 -41q51 0 108.5 53t110 136t92.5 180.5t56 187.5l49 258h256l-102 -533q-6 -35 -19.5 -102.5t-27 -141t-24.5 -140t-17 -101.5h-250q8 47 28.5 121t61.5 194l-4 2q-35 -68 -79 -130t-97.5 -108 t-116 -74t-135.5 -28q-74 0 -123 25t-75 70t-31 107.5zM412 1374l127 170l332 -258l-107 -139z" />
<glyph unicode="&#xfa;" horiz-adv-x="1142" d="M101 179.5q-5 62.5 10 135.5l135 703h256l-123 -639q-16 -94 -2 -135t63 -41q51 0 108.5 53t110 136t92.5 180.5t56 187.5l49 258h256l-102 -533q-6 -35 -19.5 -102.5t-27 -141t-24.5 -140t-17 -101.5h-250q8 47 28.5 121t61.5 194l-4 2q-35 -68 -79 -130t-97.5 -108 t-116 -74t-135.5 -28q-74 0 -123 25t-75 70t-31 107.5zM557 1290l366 254l107 -178l-387 -219z" />
<glyph unicode="&#xfb;" horiz-adv-x="1142" d="M101 179.5q-5 62.5 10 135.5l135 703h256l-123 -639q-16 -94 -2 -135t63 -41q51 0 108.5 53t110 136t92.5 180.5t56 187.5l49 258h256l-102 -533q-6 -35 -19.5 -102.5t-27 -141t-24.5 -140t-17 -101.5h-250q8 47 28.5 121t61.5 194l-4 2q-35 -68 -79 -130t-97.5 -108 t-116 -74t-135.5 -28q-74 0 -123 25t-75 70t-31 107.5zM408 1266l356 278l258 -276l-115 -121l-176 166l-237 -166z" />
<glyph unicode="&#xfc;" horiz-adv-x="1142" d="M101 179.5q-5 62.5 10 135.5l135 703h256l-123 -639q-16 -94 -2 -135t63 -41q51 0 108.5 53t110 136t92.5 180.5t56 187.5l49 258h256l-102 -533q-6 -35 -19.5 -102.5t-27 -141t-24.5 -140t-17 -101.5h-250q8 47 28.5 121t61.5 194l-4 2q-35 -68 -79 -130t-97.5 -108 t-116 -74t-135.5 -28q-74 0 -123 25t-75 70t-31 107.5zM369 1323q0 63 43 104t102 41t98 -40t39 -95q0 -63 -43 -105t-102 -42t-98 41t-39 96zM782 1325q0 61 44 102t104 41q59 0 97 -40t38 -95q0 -63 -43 -105t-102 -42t-98.5 41t-39.5 98z" />
<glyph unicode="&#xfd;" horiz-adv-x="1048" d="M-197 -494l43 226q55 -20 125 -21q49 0 99.5 21.5t91.5 62.5q47 47 70.5 107.5t23.5 154.5q0 219 -44 464t-114 497h287q20 -84 39.5 -178.5t33 -189.5t21.5 -187t8 -172q0 -41 -10 -86h4q102 188 195.5 394t193.5 462l244 -70q-111 -254 -210 -456.5t-192.5 -362.5 t-183.5 -280.5t-180 -210.5q-102 -100 -197.5 -145.5t-195.5 -45.5q-82 0 -152 16zM492 1290l366 254l107 -178l-387 -219z" />
<glyph unicode="&#xfe;" horiz-adv-x="1110" d="M-41 -494l379 1989h260l-66 -338q-10 -57 -21 -108.5t-26.5 -103.5t-35 -110.5t-46.5 -127.5l7 -2q37 72 83 133t99 106t113.5 70.5t128.5 25.5q117 0 176 -76.5t59 -240.5q0 -145 -39 -278.5t-120 -237t-203.5 -164.5t-290.5 -61q-29 0 -53.5 2t-57.5 6l-90 -484h-256z M348 205q25 -8 55.5 -13.5t59.5 -5.5q88 0 152.5 46.5t106.5 118t62.5 157.5t20.5 166q0 76 -20.5 108.5t-57.5 32.5q-55 0 -113.5 -55t-109.5 -138t-90 -177.5t-54 -174.5z" />
<glyph unicode="&#xff;" horiz-adv-x="1048" d="M-197 -494l43 226q55 -20 125 -21q49 0 99.5 21.5t91.5 62.5q47 47 70.5 107.5t23.5 154.5q0 219 -44 464t-114 497h287q20 -84 39.5 -178.5t33 -189.5t21.5 -187t8 -172q0 -41 -10 -86h4q102 188 195.5 394t193.5 462l244 -70q-111 -254 -210 -456.5t-192.5 -362.5 t-183.5 -280.5t-180 -210.5q-102 -100 -197.5 -145.5t-195.5 -45.5q-82 0 -152 16zM303 1323q0 63 43 104t102 41t98 -40t39 -95q0 -63 -43 -105t-102 -42t-98 41t-39 96zM716 1325q0 61 44 102t104 41q59 0 97 -40t38 -95q0 -63 -43 -105t-102 -42t-98.5 41t-39.5 98z" />
<glyph unicode="&#x152;" horiz-adv-x="1726" d="M90 481q0 186 61.5 354.5t171 295t257 200.5t319.5 74q59 0 109.5 -6t97.5 -17h684l-43 -223h-475l-64 -340h451l-41 -217h-451l-71 -375h475l-45 -227h-711q-109 -23 -213 -23q-262 0 -387 134.5t-125 369.5zM371 526q0 -147 66.5 -227t201.5 -80q106 0 201 33l166 887 q-76 27 -150 26q-111 0 -201 -53t-152.5 -142t-97 -205t-34.5 -239z" />
<glyph unicode="&#x153;" horiz-adv-x="1695" d="M63 344q0 160 50.5 288t134.5 219t194.5 139t233.5 48q121 0 200.5 -40t120.5 -113q66 72 150 112.5t199 40.5q94 0 157.5 -21.5t102.5 -56t54 -79.5t15 -90q0 -92 -44 -160t-127 -114t-201.5 -71.5t-268.5 -29.5q-2 -16 -4 -40t-2 -40q0 -88 40 -120t146 -32 q74 0 150 16.5t145 45.5l4 -201q-86 -33 -183 -49t-200 -16q-123 0 -196.5 36.5t-102.5 118.5q-72 -74 -168 -114.5t-200 -40.5q-213 0 -306.5 96t-93.5 268zM332 385q0 -84 37 -132t127 -48q68 0 125 34.5t98 94t63.5 137.5t22.5 164q0 88 -39 134t-129 46q-72 0 -128 -39 t-96 -100.5t-60.5 -138t-20.5 -152.5zM1063 590q178 6 268 45t90 121q0 43 -27.5 66.5t-76.5 23.5t-90 -21.5t-73 -56.5t-54.5 -82t-36.5 -96z" />
<glyph unicode="&#x178;" d="M180 1382h275l104 -397q31 -125 49 -229h4q33 59 74 124.5t84 131.5l238 370h288l-602 -893l-92 -489h-260l92 487zM414 1599q0 61 40.5 102.5t96.5 41.5q57 0 94 -39t37 -92q0 -61 -42 -100t-97 -39t-92 36.5t-37 89.5zM844 1599q0 61 41 102.5t96 41.5t92 -39t37 -92 q0 -61 -41 -100t-96 -39t-92 36.5t-37 89.5z" />
<glyph unicode="&#x2c6;" horiz-adv-x="856" d="M158 1266l356 278l258 -276l-115 -121l-176 166l-237 -166z" />
<glyph unicode="&#x2dc;" horiz-adv-x="937" d="M147 1294q47 90 112 136.5t142 46.5q49 0 83 -16.5t60.5 -35t50 -35t52.5 -16.5q63 0 117 92l121 -96q-94 -182 -256 -182q-49 0 -82 16.5t-58.5 34.5t-49 34.5t-52.5 16.5q-68 0 -119 -92z" />
<glyph unicode="&#x2000;" horiz-adv-x="957" />
<glyph unicode="&#x2001;" horiz-adv-x="1915" />
<glyph unicode="&#x2002;" horiz-adv-x="957" />
<glyph unicode="&#x2003;" horiz-adv-x="1915" />
<glyph unicode="&#x2004;" horiz-adv-x="638" />
<glyph unicode="&#x2005;" horiz-adv-x="478" />
<glyph unicode="&#x2006;" horiz-adv-x="319" />
<glyph unicode="&#x2007;" horiz-adv-x="319" />
<glyph unicode="&#x2008;" horiz-adv-x="239" />
<glyph unicode="&#x2009;" horiz-adv-x="383" />
<glyph unicode="&#x200a;" horiz-adv-x="106" />
<glyph unicode="&#x2010;" horiz-adv-x="675" d="M90 463l41 211h496l-41 -211h-496z" />
<glyph unicode="&#x2011;" horiz-adv-x="675" d="M90 463l41 211h496l-41 -211h-496z" />
<glyph unicode="&#x2012;" horiz-adv-x="675" d="M90 463l41 211h496l-41 -211h-496z" />
<glyph unicode="&#x2013;" d="M6 496l43 227h1127l-43 -227h-1127z" />
<glyph unicode="&#x2014;" horiz-adv-x="2048" d="M231 496l45 227h1594l-43 -227h-1596z" />
<glyph unicode="&#x2018;" horiz-adv-x="534" d="M209 1086.5q4 62.5 40 136t108.5 154.5t193.5 165l94 -110q-125 -102 -151.5 -174t14.5 -134q23 -35 22 -77q0 -41 -18 -78t-55 -61.5t-86 -24.5q-47 0 -86 25.5t-59.5 70.5t-16.5 107.5z" />
<glyph unicode="&#x2019;" horiz-adv-x="534" d="M166 971q61 51 98 95t52.5 81t11.5 69.5t-25 63.5q-23 35 -22 76q0 43 18 78.5t55 60.5t86 25q47 0 86 -26t59.5 -71t16.5 -107.5t-40 -135t-109.5 -153.5t-192.5 -165z" />
<glyph unicode="&#x201a;" horiz-adv-x="534" d="M-66 -244q61 51 98.5 94.5t52.5 80t11 69.5t-24 63q-23 35 -23 76q0 43 18.5 80t55.5 61.5t86 24.5q72 0 120 -56t40.5 -148.5t-85 -210t-255.5 -242.5z" />
<glyph unicode="&#x201c;" horiz-adv-x="972" d="M209 1093.5q6 92.5 84 210t258 242.5l94 -108q-61 -53 -98 -96.5t-52.5 -80t-11.5 -69.5t25 -64q23 -35 22 -77q0 -41 -18 -77t-55 -60.5t-86 -24.5q-72 0 -120 56t-42 148.5zM662.5 1093.5q7.5 92.5 85 210t256.5 242.5l94 -108q-61 -53 -98 -96.5t-52.5 -80 t-11.5 -69.5t25 -64q23 -35 22 -77q0 -41 -18.5 -77t-55.5 -60.5t-86 -24.5q-72 0 -120 56t-40.5 148.5z" />
<glyph unicode="&#x201d;" horiz-adv-x="972" d="M166 981q61 51 98 94t52.5 80t11.5 69.5t-25 63.5q-23 37 -22 78q0 43 18 79t55 60.5t86 24.5q72 0 120 -56.5t42 -148.5t-84 -210t-258 -243zM618 981q61 51 98.5 94t52.5 80t11 69.5t-24 63.5q-23 37 -23 78q0 43 18.5 79t55.5 60.5t86 24.5q72 0 120 -56.5t41 -148.5 t-85 -210t-256 -243z" />
<glyph unicode="&#x201e;" horiz-adv-x="972" d="M-66 -244q61 51 98.5 94.5t52.5 80t11 69.5t-24 63q-23 35 -23 76q0 43 18.5 80t55.5 61.5t86 24.5q72 0 120 -56t40.5 -148.5t-85 -210t-255.5 -242.5zM387 -244q61 51 98 94.5t52.5 80t11.5 69.5t-25 63q-23 35 -22 76q0 43 18.5 80t55.5 61.5t86 24.5q72 0 119.5 -56 t41.5 -148.5t-83.5 -210t-258.5 -242.5z" />
<glyph unicode="&#x2022;" horiz-adv-x="866" d="M160 600q0 63 23.5 120.5t65.5 99.5t97 66.5t119 24.5q63 0 117.5 -23.5t94.5 -63.5t62.5 -93.5t22.5 -114.5q0 -66 -24.5 -122t-66.5 -98t-97.5 -66.5t-118.5 -24.5q-61 0 -115.5 23.5t-94.5 63.5t-62.5 93.5t-22.5 114.5z" />
<glyph unicode="&#x2026;" horiz-adv-x="1452" d="M41 131q0 72 48 119t114 47t109.5 -46.5t43.5 -107.5q0 -72 -48 -119t-113 -47q-66 0 -110 46.5t-44 107.5zM510 131q0 72 48 119t114 47t108.5 -46.5t42.5 -107.5q0 -72 -48 -119t-113 -47q-66 0 -109 46.5t-43 107.5zM979 131q0 72 48 119t114 47t108.5 -46.5 t42.5 -107.5q0 -72 -48 -119t-114 -47t-108.5 46.5t-42.5 107.5z" />
<glyph unicode="&#x202f;" horiz-adv-x="383" />
<glyph unicode="&#x2039;" horiz-adv-x="626" d="M109 612l299 385l186 -100l-238 -297l131 -301l-211 -94z" />
<glyph unicode="&#x203a;" horiz-adv-x="626" d="M90 305l238 297l-129 301l211 94l165 -407l-299 -385z" />
<glyph unicode="&#x205f;" horiz-adv-x="478" />
<glyph unicode="&#x20ac;" d="M16 430l29 162h152q4 35 11 75t17 76h-149l30 162h175q39 92 96 174t138 142.5t185.5 96.5t235.5 36q70 0 141.5 -14.5t130.5 -39.5l-88 -208q-45 25 -105.5 40t-119.5 15q-125 0 -207 -69.5t-131 -172.5h334l-31 -162h-368q-10 -37 -17.5 -76.5t-11.5 -74.5h368 l-28 -162h-348q4 -119 57 -180.5t188 -61.5q66 0 131.5 15.5t124.5 40.5l35 -201q-80 -33 -173 -49.5t-179 -16.5q-244 0 -351.5 117t-105.5 336h-166z" />
<glyph unicode="&#x2122;" horiz-adv-x="1384" d="M203 1225l30 157h451l-31 -157h-131l-80 -418h-182l80 418h-137zM592 807l196 575h220l20 -252l2 -83l27 79l119 256h219l-17 -575h-190l12 248l6 96l-35 -88l-114 -256h-168l-19 262v82l-20 -74l-86 -270h-172z" />
<glyph unicode="&#xe000;" horiz-adv-x="1075" d="M0 0v1075h1075v-1075h-1075z" />
</font>
</defs>
</svg>
