<?xml version="1.0" standalone="no"?>
<!DOCTYPE svg PUBLIC "-//W3C//DTD SVG 1.1//EN" "http://www.w3.org/Graphics/SVG/1.1/DTD/svg11.dtd" >
<svg xmlns="http://www.w3.org/2000/svg">
<metadata></metadata>
<defs>
<font id="rb_thesans_condbold" horiz-adv-x="901" >
<font-face units-per-em="2048" ascent="1516" descent="-532" />
<missing-glyph horiz-adv-x="358" />
<glyph horiz-adv-x="0" />
<glyph horiz-adv-x="0" />
<glyph unicode="&#xd;" horiz-adv-x="0" />
<glyph unicode=" "  horiz-adv-x="358" />
<glyph unicode="&#x09;" horiz-adv-x="358" />
<glyph unicode="&#xa0;" horiz-adv-x="358" />
<glyph unicode="!" horiz-adv-x="507" d="M127 127q0 61 43 104t104 43t104.5 -43t43.5 -104t-43 -103t-105 -42q-61 0 -104 42t-43 103zM133 1460h283l-37 -1077h-209z" />
<glyph unicode="&#x22;" horiz-adv-x="696" d="M66 1489h237l-29 -510h-180zM393 1489h236l-29 -510h-178z" />
<glyph unicode="#" horiz-adv-x="1064" d="M39 358v181h168l24 329h-155v183h170l26 331h211l-26 -331h202l27 331h211l-27 -331h152v-183h-166l-25 -329h154v-181h-168l-26 -358h-211l26 358h-203l-26 -358h-211l27 358h-154zM418 539h203l24 329h-203z" />
<glyph unicode="$" d="M68 1016q0 117 68.5 208t193.5 128v180h176v-158q51 0 105.5 -10t107.5 -27l-49 -202q-41 20 -86 29.5t-92 9.5q-86 0 -126 -40t-40 -104q0 -37 14 -66.5t38.5 -54t57.5 -47t70 -45.5q49 -33 100 -68.5t94 -84t71 -112t28 -149.5q0 -137 -78 -234t-215 -132v-217h-176 v198q-61 2 -125 14.5t-123 35.5l53 217q49 -25 108.5 -40.5t102.5 -15.5q96 0 144.5 42t48.5 114q0 43 -17.5 76t-47.5 60.5t-67.5 52t-76.5 49.5q-47 31 -94.5 65.5t-84 80.5t-60 106.5t-23.5 140.5z" />
<glyph unicode="%" horiz-adv-x="1320" d="M63 1040q0 80 18.5 146.5t54.5 115t87 75t117 26.5q260 0 260 -342q0 -160 -72.5 -259.5t-208.5 -99.5q-256 0 -256 338zM135 45l899 1397l152 -105l-897 -1394zM236 1053q0 -111 24.5 -156t71.5 -45q94 0 94 199q0 111 -23.5 155.5t-70.5 44.5q-96 0 -96 -198zM721 319 q0 80 19.5 146.5t54 115t85.5 75t117 26.5q262 0 263 -340q0 -160 -73 -260t-208 -100q-258 0 -258 337zM895 334q0 -111 24.5 -156t71.5 -45t70.5 50t23.5 147q0 111 -23.5 155.5t-70.5 44.5q-49 0 -72.5 -50t-23.5 -146z" />
<glyph unicode="&#x26;" horiz-adv-x="1306" d="M72 375q0 70 17 129t46 109.5t66 93.5t78 81q-88 117 -124 206t-36 173q0 68 24.5 129.5t71.5 107.5t112.5 73.5t149.5 27.5q150 0 239 -82t89 -217q0 -72 -18.5 -130t-49 -107t-69.5 -90t-82 -80q57 -70 131 -147t160 -160q41 88 62.5 199.5t16.5 244.5h238 q0 -174 -36.5 -324.5t-106.5 -273.5q49 -45 102 -93t111 -98l-154 -194q-53 47 -106.5 95t-108.5 99q-86 -80 -193.5 -123.5t-230.5 -43.5q-102 0 -177 31.5t-124 86t-73.5 126t-24.5 151.5zM322 406q0 -100 52 -158t144 -58q59 0 114.5 27t104.5 74q-90 86 -171 172 t-148 168q-41 -47 -68.5 -101.5t-27.5 -123.5zM358 1184q1 -99 97 -240q47 51 79.5 107.5t32.5 128.5q0 61 -26.5 99t-77.5 38q-45 0 -75 -37t-30 -96z" />
<glyph unicode="'" horiz-adv-x="366" d="M66 1489h237l-29 -510h-180z" />
<glyph unicode="(" horiz-adv-x="548" d="M80 582q0 240 55 493.5t180 517.5l195 -63q-92 -209 -143.5 -445.5t-51.5 -492.5q0 -264 51.5 -498.5t149.5 -449.5l-203 -68q-123 266 -178 515t-55 491z" />
<glyph unicode=")" horiz-adv-x="548" d="M33 1528l203 65q123 -266 177 -515t54 -490q0 -240 -54.5 -494t-179.5 -518l-194 66q92 209 143 444.5t51 491.5q0 264 -51 498.5t-149 451.5z" />
<glyph unicode="*" horiz-adv-x="724" d="M47 1081l209 86l-209 82l90 156l172 -139l-30 223h165l-28 -223l176 139l88 -154l-209 -82l209 -86l-88 -151l-176 137l30 -225h-167l30 225l-174 -137z" />
<glyph unicode="+" d="M35 512v205h309v338h213v-338h309v-205h-309v-340h-213v340h-309z" />
<glyph unicode="," horiz-adv-x="446" d="M41 -254q88 113 99.5 184.5t-34.5 126.5q-27 33 -30.5 74t11.5 76t49 59.5t85 24.5q66 0 110 -53.5t44 -141.5t-53.5 -202.5t-180.5 -235.5z" />
<glyph unicode="-" horiz-adv-x="475" d="M51 516v199h387v-199h-387z" />
<glyph unicode="." horiz-adv-x="446" d="M72 135q0 63 43.5 108.5t109.5 45.5q63 0 107.5 -45t44.5 -109q0 -66 -44 -109.5t-108 -43.5q-66 0 -109.5 44t-43.5 109z" />
<glyph unicode="/" d="M109 -330l444 1880h231l-446 -1880h-229z" />
<glyph unicode="0" horiz-adv-x="993" d="M57 684q0 147 26 278.5t80 228.5t139 154.5t206 57.5q100 0 179 -39t134.5 -123t85 -216t29.5 -316q0 -162 -28.5 -296t-85 -231.5t-140.5 -151t-197 -53.5q-223 0 -325.5 176.5t-102.5 530.5zM299 709q0 -139 13.5 -238.5t38 -162t62.5 -91.5t87 -29q43 0 78.5 28 t61.5 87t40 151.5t14 223.5q0 266 -55 393t-145 127q-88 0 -141.5 -118.5t-53.5 -370.5z" />
<glyph unicode="1" horiz-adv-x="653" d="M10 1163l320 219h205v-1382h-252v1118l-205 -153z" />
<glyph unicode="2" horiz-adv-x="849" d="M37 1249q70 70 160 112t198 42q92 0 161 -28.5t114 -80t66.5 -123t21.5 -155.5q0 -68 -14.5 -135.5t-46 -139t-81 -150.5t-118.5 -171l-150 -199v-4q53 4 136 5t178 1h133v-223h-738v201l201 274q74 100 120 176t71.5 135.5t35 106.5t9.5 92q0 96 -41 148.5t-115 52.5 q-59 0 -109.5 -30t-93.5 -77z" />
<glyph unicode="3" horiz-adv-x="835" d="M23 23l61 210q100 -47 207 -47q106 0 164.5 58.5t58.5 161.5q0 96 -60.5 154t-183.5 58q-39 0 -70.5 -1t-66.5 -3v199h62q139 0 211.5 53.5t72.5 159.5q0 72 -38 124t-132 52q-53 0 -105 -17.5t-100 -49.5l-61 186q63 35 136 58.5t171 23.5q102 0 176 -26.5t121 -73 t68.5 -107.5t21.5 -131q0 -111 -51 -190.5t-137 -118.5l-2 -2q51 -10 94 -39t73.5 -71t48 -95.5t17.5 -112.5q0 -98 -34.5 -182t-99 -144.5t-158 -95t-209.5 -34.5q-68 0 -133.5 10t-122.5 33z" />
<glyph unicode="4" horiz-adv-x="929" d="M25 524l366 858h371v-858h151v-215h-151v-309h-244v309h-487zM233 522q51 2 148 2h143v668z" />
<glyph unicode="5" horiz-adv-x="835" d="M45 8l43 219q45 -18 91 -29.5t110 -11.5q113 0 174 61.5t61 176.5q0 129 -61.5 186.5t-194.5 57.5q-47 0 -87 -4.5t-81 -12.5v731h615v-221h-387v-297q10 0 25.5 1t31.5 1q102 0 178 -29.5t125 -83t72.5 -127t23.5 -161.5q0 -115 -38.5 -204t-108.5 -152.5t-166 -96 t-209 -32.5q-59 0 -111.5 8t-105.5 20z" />
<glyph unicode="6" horiz-adv-x="940" d="M63 567q0 215 43.5 373t121 260.5t186 152.5t241.5 50q31 0 71 -4t65 -8l-25 -203q-47 10 -119 10t-125 -25.5t-92 -71.5t-64.5 -109.5t-41.5 -139.5q-10 -37 -14.5 -61.5t-8.5 -51.5q35 59 97.5 92t144.5 33t146.5 -29.5t108.5 -83t67.5 -127t23.5 -161.5 q0 -111 -32 -200t-87 -152.5t-131 -97t-166 -33.5q-197 0 -303.5 144t-106.5 443zM317 453q0 -119 39 -195t125 -76q84 0 124 68.5t40 181.5q0 111 -39 173.5t-125 62.5q-41 0 -71.5 -19.5t-51 -50.5t-31 -68.5t-10.5 -76.5z" />
<glyph unicode="7" horiz-adv-x="813" d="M31 1153v229h753v-196q-106 -281 -199 -584t-153 -602h-272q70 309 166 606t196 553q-29 -2 -91 -4t-150 -2h-250z" />
<glyph unicode="8" horiz-adv-x="925" d="M51 332q0 63 17.5 116.5t46 97.5t67.5 80t82 68q-39 27 -72.5 58.5t-59.5 72.5t-41 93.5t-15 117.5q0 74 25.5 140.5t75.5 116.5t125 80t171 30t167 -25.5t117 -70.5t68.5 -104.5t22.5 -129.5q0 -123 -59.5 -205t-139.5 -143q43 -29 84 -61.5t73 -74.5t50 -96.5 t18 -125.5q0 -92 -32.5 -164t-90 -121t-134 -75.5t-164.5 -26.5q-201 0 -301.5 97t-100.5 255zM297 346q0 -82 44 -131t126 -49q72 0 117 48t45 126q0 45 -14.5 80t-40 64.5t-58.5 53t-70 46.5q-61 -47 -105 -103.5t-44 -134.5zM315 1053q0 -78 43.5 -129.5t106.5 -92.5 q59 45 101 97.5t42 124.5q0 164 -145 164q-72 0 -110 -46.5t-38 -117.5z" />
<glyph unicode="9" horiz-adv-x="940" d="M47 918q0 115 32 204.5t87 152t132 95.5t169 33q199 0 302 -143.5t103 -448.5q0 -221 -35.5 -378t-108.5 -258t-181.5 -148t-253.5 -47q-41 0 -95.5 8t-101.5 18l35 205q47 -16 98.5 -25.5t92.5 -9.5q135 0 203.5 84t95.5 272q4 33 7 58.5t7 44.5h-2q-33 -59 -92.5 -92 t-143.5 -33q-82 0 -147.5 30.5t-110.5 85t-68.5 129t-23.5 163.5zM291 948q0 -236 162 -235q43 0 73.5 18.5t51 49t30.5 69.5t10 80q0 121 -38.5 195.5t-122.5 74.5t-125 -70.5t-41 -181.5z" />
<glyph unicode=":" horiz-adv-x="499" d="M125 135q0 63 45.5 108.5t108.5 45.5t108 -45t45 -109q0 -66 -45 -109.5t-108 -43.5t-108.5 44t-45.5 109zM125 737q0 61 45.5 107.5t108.5 46.5t108 -46t45 -108q0 -66 -45 -110.5t-108 -44.5t-108.5 45t-45.5 110z" />
<glyph unicode=";" horiz-adv-x="499" d="M94 -254q88 113 100.5 184.5t-34.5 126.5q-27 33 -31 74t11.5 76t49 59.5t84.5 24.5q66 0 110 -53.5t44 -141.5t-53 -202.5t-180 -235.5zM125 737q0 61 45.5 107.5t108.5 46.5t108 -46t45 -108q0 -66 -45 -110.5t-108 -44.5t-108.5 45t-45.5 110z" />
<glyph unicode="&#x3c;" d="M63 612l580 588l160 -156l-436 -430l440 -432l-164 -159z" />
<glyph unicode="=" d="M78 319v199h745v-199h-745zM78 713v198h745v-198h-745z" />
<glyph unicode="&#x3e;" d="M94 1040l164 160l580 -588l-580 -589l-160 157l437 430z" />
<glyph unicode="?" horiz-adv-x="722" d="M88 1249l31 221q147 -6 252.5 -42.5t173 -93t99.5 -129t32 -150.5q0 -80 -24.5 -136.5t-59.5 -100.5t-74 -84t-67.5 -88t-40 -110.5t9.5 -152.5h-232q-29 96 -22.5 168t32 126t62.5 97t72 83t59.5 81t24.5 92q0 92 -84 152.5t-244 66.5zM162 127q0 61 43 104t102 43 q63 0 105.5 -43t42.5 -104t-42 -103t-106 -42q-59 0 -102 42t-43 103z" />
<glyph unicode="@" horiz-adv-x="1513" d="M78 545q0 190 57.5 359t160.5 296t244.5 201t309.5 74q150 0 261.5 -50.5t185 -138.5t110.5 -205t37 -252q0 -147 -32 -257.5t-88 -183.5t-133 -109.5t-167 -36.5q-92 0 -135 55t-39 137h-2q-14 -35 -38 -69.5t-54.5 -62.5t-68.5 -44t-81 -16q-82 0 -132 72.5t-50 217.5 q0 115 24.5 213.5t75.5 170t130 112.5t188 41q55 0 114.5 -8t114.5 -21l-55 -397q-16 -111 -4 -158t57 -47q68 0 116 88t48 275q0 102 -20.5 192t-68.5 158t-125 107.5t-188 39.5q-125 0 -225 -59t-170.5 -159.5t-108.5 -232.5t-38 -276q0 -274 114.5 -422.5t352.5 -148.5 q162 0 311 53l37 -176q-72 -29 -174.5 -45t-206.5 -16q-158 0 -278.5 52t-202.5 147.5t-123 230.5t-41 299zM633 573q0 -74 9 -104.5t32 -30.5q45 0 90 91.5t67 271.5l15 92q-12 4 -29.5 6t-38.5 2q-39 0 -66.5 -33.5t-45 -84t-25.5 -108t-8 -102.5z" />
<glyph unicode="A" horiz-adv-x="1030" d="M0 0l336 1382h354l342 -1382h-262l-68 285h-395l-67 -285h-240zM350 492h309l-118 493q-23 94 -35 178h-2q-12 -86 -35 -174z" />
<glyph unicode="B" horiz-adv-x="958" d="M100 0v1382q76 2 171.5 4.5t189.5 2.5q217 0 314 -90.5t97 -268.5q0 -90 -42 -169t-134 -124v-2q111 -35 157 -117t46 -186q0 -92 -25.5 -171t-82 -138.5t-144.5 -93t-213 -33.5q-49 0 -132 2t-202 2zM346 205q23 -2 47.5 -4t55.5 -2q94 0 141 58.5t47 154.5 q0 98 -49 150t-160 52q-39 0 -82 -2v-407zM346 811q39 -2 80 -2q92 0 141 53.5t49 149.5q0 82 -40.5 129t-133.5 47q-47 0 -96 -2v-375z" />
<glyph unicode="C" horiz-adv-x="868" d="M53 662q0 166 32 302t96.5 233t162.5 149.5t231 52.5q68 0 134.5 -12.5t119.5 -34.5l-55 -219q-86 41 -182 41q-72 0 -123 -36t-84 -100.5t-48 -154.5t-15 -197q0 -229 64.5 -352t201.5 -123q55 0 105 13.5t91 35.5l56 -213q-59 -29 -132 -47t-163 -18q-137 0 -230.5 47 t-152 134t-84 213t-25.5 286z" />
<glyph unicode="D" horiz-adv-x="1077" d="M100 2v1380q66 2 162 4.5t195 2.5q123 0 227 -33t180 -112t118 -208.5t42 -324.5q0 -193 -43 -329t-122 -222t-189.5 -126t-243.5 -40q-90 0 -170 2t-156 6zM346 215q20 -4 49 -6t58 -2q70 0 126 25.5t97 84t63.5 151.5t22.5 228q0 244 -69.5 364t-231.5 120 q-33 0 -62.5 -1t-52.5 -3v-961z" />
<glyph unicode="E" horiz-adv-x="792" d="M100 0v1382h617v-211h-371v-356h350v-205h-350v-397h373v-213h-619z" />
<glyph unicode="F" horiz-adv-x="755" d="M100 0v1382h607v-211h-361v-370h338v-205h-338v-596h-246z" />
<glyph unicode="G" horiz-adv-x="1089" d="M47 662q0 162 38 298t113.5 234t191.5 153.5t272 55.5q180 0 335 -70l-71 -223q-61 33 -129 50.5t-144 17.5q-178 0 -260 -134.5t-82 -361.5q0 -225 80 -353t238 -128q33 0 62.5 5t53.5 15v492h246v-650q-82 -41 -181 -62t-206 -21q-272 0 -414.5 174t-142.5 508z" />
<glyph unicode="H" horiz-adv-x="1136" d="M100 0v1382h246v-559h445v559h245v-1382h-245v608h-445v-608h-246z" />
<glyph unicode="I" horiz-adv-x="446" d="M100 0v1382h246v-1382h-246z" />
<glyph unicode="J" horiz-adv-x="536" d="M2 -2v203q23 -4 44.5 -6t37.5 -2q59 0 82.5 34.5t23.5 141.5v1013h246v-991q0 -88 -14 -161.5t-49 -127t-94.5 -83t-147.5 -29.5q-33 0 -65.5 2t-63.5 6z" />
<glyph unicode="K" horiz-adv-x="964" d="M100 0v1382h246v-632l318 632h276l-354 -667l368 -715h-295l-313 668v-668h-246z" />
<glyph unicode="L" horiz-adv-x="704" d="M100 0v1382h246v-1163h340v-219h-586z" />
<glyph unicode="M" horiz-adv-x="1472" d="M61 0l109 1382h350l162 -747q14 -68 26.5 -144.5t22.5 -162.5h2q10 84 23.5 161.5t29.5 155.5l164 737h344l117 -1382h-246l-55 737q-10 102 -15 186.5t-10 176.5h-4q-12 -88 -24.5 -172t-28.5 -162l-170 -766h-268l-162 731q-16 88 -33.5 181.5t-27.5 187.5h-2 q-4 -98 -7.5 -195.5t-9.5 -189.5l-51 -715h-236z" />
<glyph unicode="N" horiz-adv-x="1126" d="M100 0v1382h349l294 -776q16 -43 35 -102.5t37 -124.5q-4 70 -5 150.5t-2 164.5t-1 314v374h219v-1382h-326l-313 836q-20 55 -38.5 112.5t-35.5 122.5q2 -47 4 -114.5t5 -438.5v-518h-222z" />
<glyph unicode="O" horiz-adv-x="1150" d="M49 680q0 156 35 289t103.5 229t171 150.5t237.5 54.5q131 0 227.5 -49t157.5 -139.5t91 -220t30 -289.5q0 -164 -35 -297.5t-104.5 -228.5t-171 -147t-234.5 -52q-258 0 -383 184t-125 516zM309 698q0 -495 263 -495h1q135 0 203 127t68 356q0 260 -68.5 377t-195.5 117 q-129 0 -200 -121t-71 -361z" />
<glyph unicode="P" horiz-adv-x="882" d="M100 0v1382q66 2 151 5.5t177 3.5q207 0 313.5 -114.5t106.5 -313.5q0 -104 -33 -191.5t-91 -149t-139 -95t-179 -33.5q-14 0 -29 1t-31 3v-498h-246zM346 707q31 -6 68 -7q84 0 132 65.5t48 182.5q0 113 -41 174.5t-133 61.5q-39 0 -74 -2v-475z" />
<glyph unicode="Q" horiz-adv-x="1150" d="M49 680q0 156 35 289t103.5 229t171 150.5t237.5 54.5q131 0 227.5 -49t157.5 -139.5t91 -220t30 -289.5q0 -164 -35 -297.5t-104.5 -228.5t-171 -147t-234.5 -52q-258 0 -383 184t-125 516zM309 698q0 -495 263 -495h1q135 0 203 127t68 356q0 260 -68.5 377t-195.5 117 q-129 0 -200 -121t-71 -361zM481 -123q54 7 100 7q18 0 35 -1q58 -4 109 -16t97 -27.5t95.5 -28t105.5 -15.5q11 -1 23 -1q47 0 105 10v-206q-70 -13 -128 -13h-13q-62 2 -115 13.5t-100 27t-95.5 28.5t-101.5 18q-18 2 -37 2q-37 0 -80 -7v209z" />
<glyph unicode="R" horiz-adv-x="921" d="M100 0v1382q72 4 154 6.5t174 2.5q205 0 315.5 -94.5t110.5 -303.5q0 -72 -19.5 -131t-52 -107t-78 -81t-96.5 -47q20 -39 40 -79t38 -79l221 -469h-280l-252 582h-29v-582h-246zM346 776q10 -2 28.5 -3t37.5 -1q86 0 136 55.5t50 153.5q0 203 -178 203q-41 0 -74 -2 v-406z" />
<glyph unicode="S" horiz-adv-x="821" d="M53 1020q0 80 28 150.5t82 121.5t132 81t176 30q57 0 116.5 -8.5t114.5 -24.5l-51 -211q-84 37 -172 37q-86 0 -126 -47t-40 -115q0 -66 34 -109.5t85 -80.5t110.5 -74t111 -86t85 -119t33.5 -174q0 -90 -30.5 -164.5t-87 -129t-138.5 -85t-186 -30.5q-145 0 -271 43 l56 229q47 -25 103 -39t101 -14q96 0 143.5 47t47.5 123q0 68 -34 112.5t-85 81.5t-109.5 73t-109.5 85t-85 119.5t-34 177.5z" />
<glyph unicode="T" horiz-adv-x="831" d="M25 1169v213h782v-213h-268v-1169h-246v1169h-268z" />
<glyph unicode="U" horiz-adv-x="1103" d="M98 469v913h246v-897q0 -143 47 -221t166 -78q113 0 158 71t45 218v907h246v-888q0 -119 -26 -214.5t-81 -162t-141 -102t-205 -35.5q-133 0 -220 36.5t-139.5 101t-74 154.5t-21.5 197z" />
<glyph unicode="V" horiz-adv-x="1038" d="M0 1382h262l209 -890q14 -59 30.5 -133t26.5 -134h2q12 70 26.5 137.5t31.5 139.5l203 880h245l-338 -1382h-354z" />
<glyph unicode="W" horiz-adv-x="1607" d="M29 1382h254l141 -847q14 -86 22.5 -158t16.5 -144h2q6 68 13 133.5t18 131.5l141 884h348l141 -870q10 -63 18.5 -133t16.5 -146h2q10 90 20.5 169t18.5 145l133 835h246l-242 -1382h-368l-135 844q-10 82 -21.5 164t-17.5 149q-4 -66 -15.5 -149.5t-21.5 -167.5 l-133 -840h-355z" />
<glyph unicode="X" horiz-adv-x="1028" d="M10 0l338 709l-311 673h282l197 -467l193 467h274l-311 -669l344 -713h-305l-207 500l-205 -500h-289z" />
<glyph unicode="Y" horiz-adv-x="931" d="M-2 1382h268l142 -417q18 -53 36.5 -115t28.5 -113h2q14 55 31.5 114.5t34.5 104.5l137 426h258l-344 -907v-475h-246v475z" />
<glyph unicode="Z" horiz-adv-x="880" d="M63 0v190l463 969q-39 -2 -82 -2h-92h-276v225h731v-198l-467 -957q47 2 100.5 3t118.5 1h262v-231h-758z" />
<glyph unicode="[" horiz-adv-x="540" d="M104 -418v2007h381v-196h-153v-1610h153v-201h-381z" />
<glyph unicode="\" d="M109 1550h229l446 -1880h-231z" />
<glyph unicode="]" horiz-adv-x="540" d="M57 -217h154v1610h-154v196h377v-2007h-377v201z" />
<glyph unicode="^" d="M55 772l305 610h183l309 -608l-182 -78l-221 482l-226 -482z" />
<glyph unicode="_" d="M0 -295h901v-194h-901v194z" />
<glyph unicode="`" horiz-adv-x="565" d="M82 1378l137 150l299 -266l-106 -113z" />
<glyph unicode="a" horiz-adv-x="854" d="M45 266q0 172 125 264q119 87 325 86h23v64q0 80 -32.5 125t-118.5 45q-53 0 -112.5 -19.5t-100.5 -46.5l-66 174q66 35 145.5 57.5t165.5 22.5q188 0 273.5 -86t85.5 -252v-432q0 -180 4 -268h-215q0 45 1 88t7 74l-2 2q-25 -82 -93.5 -132t-160.5 -50 q-117 0 -185.5 71.5t-68.5 212.5zM279 291q0 -123 88 -123q33 0 60.5 20.5t48 55.5t31.5 79t11 93v41h-19q-59 -1 -99 -11q-46 -12 -72.5 -34.5t-37.5 -54t-11 -66.5z" />
<glyph unicode="b" horiz-adv-x="919" d="M98 27v1462h242v-445q0 -90 -12 -182h2q31 82 92 129t153 47q141 0 219 -118.5t78 -364.5q0 -270 -113.5 -417.5t-344.5 -147.5q-180 0 -316 37zM340 203q20 -10 43 -14.5t51 -4.5q43 0 78 17.5t59.5 57.5t37 106.5t12.5 162.5q0 145 -28 223t-89 78q-37 0 -67.5 -30.5 t-52.5 -80.5t-33 -111.5t-11 -123.5v-280z" />
<glyph unicode="c" horiz-adv-x="694" d="M51 475q0 266 108.5 412.5t313.5 146.5q51 0 99.5 -8t93.5 -22l-58 -207q-59 30 -130 30h-5q-84 0 -128 -84t-44 -241q0 -68 8 -124t27.5 -97t52.5 -63.5t80 -22.5q80 0 145 41l58 -199q-51 -25 -112.5 -39t-133.5 -14q-90 0 -159.5 27.5t-118 87t-73 152.5t-24.5 224z " />
<glyph unicode="d" horiz-adv-x="919" d="M49 463q0 270 111.5 417.5t333.5 147.5q47 0 86 -8v469h241v-1489h-221q0 39 2 87t8 95h-2q-39 -98 -103.5 -150t-160.5 -52q-139 0 -217 118.5t-78 364.5zM299 489q0 -145 27.5 -223t89.5 -78q37 0 67.5 31t52 81t33 111.5t11.5 123.5v282q-49 16 -95 17 q-43 0 -77.5 -17.5t-58 -57.5t-37 -106.5t-13.5 -163.5z" />
<glyph unicode="e" horiz-adv-x="860" d="M51 500q0 106 21.5 203.5t69.5 172t124 118.5t185 44q176 0 265 -121.5t89 -324.5q0 -27 -1 -58.5t-5 -64.5h-502v-23q0 -147 53 -212.5t154 -65.5q66 0 120 15.5t115 43.5l58 -174q-78 -35 -161 -54t-171 -19q-207 0 -310.5 122.5t-103.5 397.5zM301 637h266 q0 106 -30.5 163.5t-96.5 57.5t-99.5 -59.5t-39.5 -161.5z" />
<glyph unicode="f" horiz-adv-x="555" d="M2 827v191h127v106q0 182 78 278.5t244 96.5q80 0 157 -22l-47 -191q-18 6 -38.5 10t-39.5 4q-61 0 -86.5 -41.5t-25.5 -125.5v-115h166v-191h-166v-827h-242v827h-127z" />
<glyph unicode="g" horiz-adv-x="888" d="M45 -199q0 78 38 139.5t93 100.5q-47 29 -66.5 70t-19.5 92q0 59 27.5 105t75.5 75q-59 37 -93 107.5t-34 168.5q0 74 22.5 143.5t68.5 122t115.5 84t161.5 31.5q43 0 76 -6t68 -16h274v-191h-107q16 -29 26.5 -62.5t10.5 -74.5q0 -166 -93 -266t-269 -100q-14 0 -29.5 2 t-28.5 6q-32 -22 -32 -60q0 -39 25.5 -52t88.5 -19l115 -8q147 -12 226 -87.5t79 -222.5q0 -82 -32.5 -151.5t-92 -119.5t-141.5 -79t-182 -29q-174 0 -272.5 75t-98.5 222zM281 -154q0 -78 46 -114.5t119 -36.5q86 0 135.5 45t49.5 117q0 66 -39 94.5t-98 32.5l-97 6 q-23 2 -32 3t-15 3q-31 -27 -50 -64.5t-19 -85.5zM293 676q0 -90 32.5 -137t100.5 -47q63 0 97 47t34 137q0 188 -129 188q-66 0 -100.5 -51t-34.5 -137z" />
<glyph unicode="h" horiz-adv-x="931" d="M98 0v1489h242v-430q0 -49 -3 -101.5t-9 -99.5q31 78 98.5 129t161.5 51q70 0 118 -24.5t76.5 -67.5t41 -102.5t12.5 -128.5v-715h-240v672q0 78 -19.5 117.5t-68.5 39.5q-39 0 -69.5 -30.5t-52 -77.5t-34 -106.5t-12.5 -114.5v-500h-242z" />
<glyph unicode="i" horiz-adv-x="438" d="M74 1313q0 61 43 104t102 43q61 0 103.5 -43t42.5 -104q0 -59 -43 -102.5t-103 -43.5q-61 0 -103 43t-42 103zM98 0v1018h242v-1018h-242z" />
<glyph unicode="j" horiz-adv-x="438" d="M-121 -475l35 201q35 -14 82 -15q59 0 80.5 43t21.5 148v1116h242v-1102q0 -98 -16.5 -174t-56.5 -129t-104.5 -81t-158.5 -28q-29 0 -63.5 5.5t-61.5 15.5zM74 1313q0 61 43 104t102 43q61 0 103.5 -43t42.5 -104q0 -59 -43 -102.5t-103 -43.5q-61 0 -103 43t-42 103z " />
<glyph unicode="k" horiz-adv-x="851" d="M98 0v1489h242v-903l213 432h268l-254 -457l279 -561h-279l-227 508v-508h-242z" />
<glyph unicode="l" horiz-adv-x="438" d="M98 0v1489h242v-1489h-242z" />
<glyph unicode="m" horiz-adv-x="1421" d="M98 0v1018h224q0 -41 -2 -90t-9 -88h2q37 92 105.5 145t167.5 53q104 0 159.5 -54t63.5 -146q27 86 97.5 143t172.5 57q70 0 118 -24.5t75.5 -67.5t40 -102.5t12.5 -128.5v-715h-240v672q0 78 -18 117.5t-68 39.5q-39 0 -69.5 -30.5t-52 -78.5t-32.5 -106.5t-11 -113.5 v-500h-242v666q0 84 -17.5 123.5t-66.5 39.5q-39 0 -70.5 -30.5t-53.5 -78.5t-33 -106.5t-11 -113.5v-500h-242z" />
<glyph unicode="n" horiz-adv-x="931" d="M98 0v1018h224q0 -41 -2 -91t-9 -91h2q37 94 106.5 148t168.5 54q70 0 118 -24.5t76.5 -67.5t41 -102.5t12.5 -128.5v-715h-240v672q0 78 -19.5 117.5t-68.5 39.5q-39 0 -69.5 -30.5t-52 -77.5t-34 -106.5t-12.5 -114.5v-500h-242z" />
<glyph unicode="o" horiz-adv-x="911" d="M49 500q0 111 26.5 209t79 170.5t131.5 115.5t183 43q106 0 181 -36.5t122 -104.5t69.5 -164t22.5 -213q0 -115 -26.5 -213t-78.5 -171t-131 -114.5t-184 -41.5q-104 0 -180 35.5t-123 103t-69.5 164t-22.5 217.5zM297 522q0 -174 39 -259t127 -85q76 0 113.5 82 t37.5 238q0 172 -37.5 257t-127.5 85q-76 0 -114 -81t-38 -237z" />
<glyph unicode="p" horiz-adv-x="919" d="M98 -481v1499h221q0 -43 -3 -91t-7 -91l2 -2q76 204 262 204h2q141 0 219 -118.5t78 -364.5q0 -274 -114.5 -419.5t-331.5 -145.5q-25 0 -44.5 2t-41.5 8v-481h-242zM340 203q39 -18 94 -19q43 0 78 17.5t59.5 57.5t37 106.5t12.5 162.5q0 145 -28 223t-89 78 q-37 0 -67.5 -30.5t-52.5 -80.5t-33 -111.5t-11 -123.5v-280z" />
<glyph unicode="q" horiz-adv-x="919" d="M49 463q0 272 112.5 418.5t346.5 146.5q84 0 166 -9t147 -26v-1474h-241v448q0 47 4 94.5t10 94.5h-2q-33 -82 -94.5 -129t-153.5 -47q-139 0 -217 118.5t-78 364.5zM299 489q0 -145 27.5 -223t89.5 -78q37 0 67.5 31t52 81t33 111.5t11.5 123.5v284q-41 14 -95 15 q-43 0 -77.5 -17.5t-58 -57.5t-37 -106.5t-13.5 -163.5z" />
<glyph unicode="r" horiz-adv-x="598" d="M98 0v1018h219q0 -41 -2 -97.5t-10 -103.5h2q18 51 43 95t57.5 74t75.5 43q29 9 65 9q16 0 34 -2l-15 -245q-25 6 -47 6q-77 1 -122 -73q-58 -94 -58 -308v-416h-242z" />
<glyph unicode="s" horiz-adv-x="675" d="M57 735q0 135 88 219t261 84q92 0 172 -22l-39 -193q-27 10 -60 17.5t-61 7.5q-53 0 -82 -27.5t-29 -68.5q0 -43 24.5 -72t60.5 -55.5t78 -53t78 -62.5t60.5 -86t24.5 -124t-26.5 -133.5t-76 -100t-117 -63t-149.5 -22.5q-51 0 -103 6t-100 20l39 203q74 -35 150 -35 q66 0 95.5 31t29.5 78q0 45 -23.5 75.5t-58.5 56t-77 51.5t-77 61.5t-58.5 85t-23.5 122.5z" />
<glyph unicode="t" horiz-adv-x="598" d="M2 827v191h127v309l242 66v-375h180v-191h-180v-471q0 -96 18.5 -131t65.5 -35q23 0 46 3.5t48 11.5l22 -191q-41 -16 -93 -23t-93 -7q-74 0 -124 18t-78.5 57t-41 100.5t-12.5 147.5v520h-127z" />
<glyph unicode="u" horiz-adv-x="931" d="M96 303v715h242v-672q0 -78 18.5 -118t67.5 -40q39 0 69.5 31t53 78t35 106.5t12.5 114.5v500h240v-1018h-224q0 41 2 91t9 91h-3q-35 -94 -105.5 -148t-168.5 -54q-70 0 -117 23.5t-76.5 66.5t-42 102t-12.5 131z" />
<glyph unicode="v" horiz-adv-x="845" d="M2 1018h260l123 -539q14 -66 23.5 -120t19.5 -130h2q10 76 19.5 132.5t19.5 117.5l121 539h254l-256 -1018h-328z" />
<glyph unicode="w" horiz-adv-x="1312" d="M16 1018h246l100 -606l23 -187h4l31 197l108 596h269l116 -600l31 -193h2l27 205l90 588h233l-192 -1018h-316l-114 598l-23 176h-2l-22 -190l-109 -584h-305z" />
<glyph unicode="x" horiz-adv-x="870" d="M10 0l266 518l-247 500h276l139 -338l140 338h258l-232 -500l248 -518h-289l-141 350l-139 -350h-279z" />
<glyph unicode="y" horiz-adv-x="843" d="M-31 -483l29 204q18 -4 45 -7t49 -3q29 0 55.5 8.5t51 30t46 58t42.5 96.5l14 35l-305 1079h262l125 -514q14 -61 27.5 -127t23.5 -137h2q10 76 23.5 156.5t27.5 150.5l99 471h260l-256 -965q-72 -272 -198 -407t-343 -135q-18 0 -37.5 1t-42.5 5z" />
<glyph unicode="z" horiz-adv-x="714" d="M61 0v180l310 623q-35 -2 -73 -3t-81 -1h-147v219h577v-180l-305 -617q59 2 164 2h147v-223h-592z" />
<glyph unicode="{" horiz-adv-x="659" d="M41 545v184q86 2 126 48t40 175v205q0 213 72.5 322.5t246.5 109.5h58v-196h-39q-33 0 -54.5 -11.5t-35 -38t-19.5 -70.5t-6 -110v-205q0 -158 -39 -230.5t-106 -88.5v-2q66 -14 105.5 -91t39.5 -235v-291q0 -70 5 -115.5t18.5 -73.5t36 -39t55.5 -11h39v-199h-58 q-168 0 -243.5 106.5t-75.5 327.5v301q0 125 -40 175.5t-126 52.5z" />
<glyph unicode="|" horiz-adv-x="456" d="M117 -418v2007h225v-2007h-225z" />
<glyph unicode="}" horiz-adv-x="659" d="M76 -219h39q33 0 54 10t34.5 37t19.5 71t6 109v307q0 160 39 231.5t107 88.5v2q-66 14 -106 91t-40 235v190q0 137 -24.5 188.5t-91.5 51.5h-37v196h57q168 0 243 -105.5t75 -326.5v-201q0 -125 40.5 -175t126.5 -52v-184q-86 -2 -126.5 -48t-40.5 -175v-306 q0 -213 -72 -323.5t-246 -110.5h-57v199z" />
<glyph unicode="~" d="M61 930v24q0 129 67 206t179 77q63 0 103.5 -23.5t69 -52t53 -52.5t57.5 -24q39 0 54 31t18 90h178v-22q0 -129 -67.5 -207t-180.5 -78q-63 0 -103 23.5t-69 53.5t-53.5 53.5t-57.5 23.5q-39 0 -54 -29t-15 -94h-179z" />
<glyph unicode="&#xa1;" horiz-adv-x="507" d="M88 1049q0 59 42 102t103 43t104.5 -43t43.5 -102q0 -61 -43.5 -104.5t-104.5 -43.5t-103 43t-42 105zM92 -285l37 1078h209l37 -1078h-283z" />
<glyph unicode="&#xa2;" d="M123 625q0 201 83 334t234 165v185h181v-172q43 -4 94 -21.5t94 -44.5l-72 -190q-35 27 -81 42t-87 15q-92 0 -145 -70.5t-53 -224.5t53 -221.5t145 -67.5q96 0 179 60l67 -195q-43 -29 -95 -47t-99 -25v-198h-181v201q-150 20 -233.5 131.5t-83.5 343.5z" />
<glyph unicode="&#xa3;" d="M90 623v192h127q-8 53 -14 107.5t-6 111.5q0 207 98 300t262 93q45 0 98.5 -7t96.5 -19l-45 -201q-27 10 -61 17.5t-62 7.5q-72 0 -107 -45t-35 -125q0 -63 7.5 -122t17.5 -118h235v-192h-210q6 -49 6 -103q0 -104 -23.5 -172.5t-81.5 -138.5q27 4 63 5t64 1h264v-215 h-688v186q41 33 71 64t48 65.5t27.5 77.5t9.5 99q0 35 -2 66.5t-6 64.5h-154z" />
<glyph unicode="&#xa4;" d="M41 84l125 223q-33 53 -51.5 126t-18.5 171q0 94 20.5 169t57.5 132l-133 238l190 63l97 -172q57 31 131 31q68 0 121 -27l94 168l186 -63l-125 -223q37 -59 53.5 -134t16.5 -161q0 -96 -20.5 -171t-57.5 -132l133 -238l-190 -66l-101 177q-55 -31 -127 -31 q-70 0 -118 24l-97 -170zM307 621q0 -123 36 -197t112 -74q59 0 100 66.5t41 201.5q0 117 -38 191t-107 74q-63 0 -103.5 -67.5t-40.5 -194.5z" />
<glyph unicode="&#xa5;" d="M-2 1382h264l103 -260q45 -135 75 -252h2q16 63 39 137t47 148l88 227h254l-292 -716h210v-160h-231v-160h231v-160h-231v-186h-244v186h-229v160h229v160h-229v160h207z" />
<glyph unicode="&#xa6;" horiz-adv-x="456" d="M117 362h225v-780h-225v780zM117 860v729h225v-729h-225z" />
<glyph unicode="&#xa7;" horiz-adv-x="854" d="M82 674q0 96 37 176t96 133q-27 39 -40 87t-13 97q0 72 22.5 133.5t67.5 106.5t111.5 70.5t154.5 25.5q35 0 76 -4t78 -14l-33 -205q-27 8 -52.5 12t-54.5 4q-63 0 -87.5 -33.5t-24.5 -86.5q0 -47 25.5 -93.5t63.5 -96.5t83 -104.5t83 -117t63.5 -134t25.5 -153.5 q0 -90 -38 -175t-95 -132q25 -39 41 -88t16 -107q0 -70 -22.5 -131t-68.5 -107t-115.5 -72.5t-166.5 -26.5q-41 0 -84 4t-77 14l30 209q25 -10 57.5 -16.5t65.5 -6.5q59 0 89 37t30 103q0 47 -25.5 94t-63.5 96t-83 103.5t-83 116t-63.5 131t-25.5 151.5zM301 700 q0 -39 12.5 -77.5t37 -84.5t62.5 -101.5t91 -125.5q43 50 43 140q0 45 -14.5 88t-42 88t-65.5 97t-83 118q-16 -23 -28.5 -62t-12.5 -80z" />
<glyph unicode="&#xa8;" horiz-adv-x="821" d="M102 1315q0 53 38 91t91 38t90 -38t37 -91t-37.5 -91t-91.5 -38q-53 0 -90 38t-37 91zM444 1315q0 53 37 91t90 38t91 -38t38 -91t-37.5 -91t-91.5 -38q-53 0 -90 38t-37 91z" />
<glyph unicode="&#xa9;" horiz-adv-x="1263" d="M51 682q0 150 45 276.5t124 221t185.5 147.5t229.5 53t227.5 -52t181 -144t119.5 -220t43 -280q0 -150 -45 -277.5t-124 -221t-185.5 -146.5t-228.5 -53q-123 0 -228.5 52t-181.5 144t-119 220t-43 280zM223 684q0 -115 31 -213t85 -171t129 -114t163 -41t161.5 40 t127 112t83 170t29.5 215q0 115 -30.5 213t-85 171t-128 114t-161.5 41t-162 -40t-128 -112t-84 -170t-30 -215zM348 668q0 188 80 290.5t231 102.5q41 0 84 -8.5t72 -20.5l-45 -164q-16 10 -40.5 17.5t-51.5 7.5q-63 0 -89 -58.5t-26 -152.5q0 -104 26.5 -149.5t86.5 -45.5 q57 0 102 29l43 -162q-33 -16 -81 -27.5t-101 -11.5q-147 0 -219 93.5t-72 259.5z" />
<glyph unicode="&#xaa;" horiz-adv-x="659" d="M55 858q0 63 27 111.5t72 81t105 48t128 13.5v39q0 39 -19.5 66.5t-78.5 27.5q-47 0 -86 -14t-80 -37l-53 152q53 27 116.5 41t128.5 14q70 0 119 -18.5t80 -49t45 -72.5t14 -90v-321v-80q0 -43 5 -94h-179q0 20 2 43.5t7 56.5h-5q-20 -53 -67 -83.5t-103 -30.5 q-86 0 -132 53t-46 143zM88 403v156h494v-156h-494zM231 879q0 -70 56 -70q23 0 41 14.5t31.5 37t20.5 49t7 48.5v25q-76 4 -116 -20.5t-40 -83.5z" />
<glyph unicode="&#xab;" horiz-adv-x="935" d="M68 571l196 430l187 -86l-154 -344l160 -342l-195 -88zM444 567l207 414l183 -86l-160 -326l164 -319l-189 -88z" />
<glyph unicode="&#xac;" d="M47 508v213h750v-508h-213v295h-537z" />
<glyph unicode="&#xad;" horiz-adv-x="475" d="M51 516v199h387v-199h-387z" />
<glyph unicode="&#xae;" horiz-adv-x="972" d="M61 1032q0 100 33 190.5t89.5 156t133 104.5t166.5 39t167 -38t133.5 -103.5t88 -154.5t31.5 -194q0 -100 -32.5 -189t-89 -154.5t-133.5 -104.5t-165 -39q-90 0 -167.5 36.5t-134 102.5t-88.5 155t-32 193zM211 1034q0 -72 20.5 -136t56.5 -112.5t86 -76t109 -27.5 q57 0 107.5 27.5t86.5 74.5t56.5 110.5t20.5 135.5t-20.5 136.5t-56.5 112.5t-86.5 75.5t-109.5 27.5t-108 -27.5t-85 -74.5t-56.5 -110.5t-20.5 -135.5zM324 793v485h170q82 0 118.5 -37t36.5 -100q0 -59 -22.5 -92t-55.5 -43q6 -10 14.5 -25.5t14.5 -36.5l59 -151h-143 l-57 184h-15v-184h-120zM444 1065h17q33 0 45 17t12 48q0 29 -11 43.5t-44 14.5h-19v-123z" />
<glyph unicode="&#xaf;" horiz-adv-x="616" d="M84 1235v180h446v-180h-446z" />
<glyph unicode="&#xb0;" horiz-adv-x="688" d="M82 1227q0 68 23.5 120t60.5 87.5t84 55t94 19.5q68 0 116 -22.5t77.5 -60t44 -88t14.5 -107.5q0 -68 -22.5 -121t-59.5 -90t-85 -55.5t-99 -18.5q-117 0 -182.5 76t-65.5 205zM256 1229q0 -59 23.5 -92t60.5 -33q39 0 60.5 36t21.5 93q0 43 -19.5 83t-60.5 40 q-37 0 -61.5 -35t-24.5 -92z" />
<glyph unicode="&#xb1;" d="M53 647v201h291v321h213v-321h291v-201h-291v-323h-213v323h-291zM59 0v201h783v-201h-783z" />
<glyph unicode="&#xb2;" horiz-adv-x="583" d="M55 1327q47 35 100.5 54.5t125.5 19.5q113 0 169 -58.5t56 -140.5q0 -39 -9.5 -71.5t-27.5 -62.5t-44 -59.5t-58 -64.5l-66 -74q16 2 64 2h98h57v-153h-444v139l94 105q37 39 61.5 69.5t39 54t19.5 44t5 40.5q0 72 -74 72q-29 0 -54.5 -12t-43.5 -31z" />
<glyph unicode="&#xb3;" horiz-adv-x="583" d="M55 727l39 129q18 -12 51 -18.5t64 -6.5q113 0 113 82q0 86 -129 86q-20 0 -41 -1t-31 -1v123h35q150 0 149 86q0 31 -21.5 50.5t-74.5 19.5q-70 0 -109 -33l-34 121q33 16 83 26.5t109 10.5q123 0 179.5 -51.5t56.5 -118.5q0 -53 -28 -91t-75 -57q51 -8 88 -52t37 -103 q0 -100 -73.5 -164t-215.5 -64q-47 0 -93 8.5t-79 18.5z" />
<glyph unicode="&#xb4;" horiz-adv-x="583" d="M98 1262l301 266l138 -150l-332 -229z" />
<glyph unicode="&#xb6;" horiz-adv-x="989" d="M80 934q0 100 29.5 183t83 141.5t127 91t161.5 32.5v-903q-106 0 -182 36t-125 98.5t-71.5 145.5t-22.5 175zM494 14h118v1368h310v-198h-111v-1370h-317v200z" />
<glyph unicode="&#xb7;" horiz-adv-x="468" d="M82 614q0 63 44 107.5t107 44.5q66 0 110 -44t44 -108q0 -66 -44 -109.5t-110 -43.5q-63 0 -107 44t-44 109z" />
<glyph unicode="&#xb8;" horiz-adv-x="579" d="M86 -387q78 66 95.5 138.5t-13.5 150.5h221q14 -49 14 -99q0 -49 -18 -95t-60 -92t-112 -89z" />
<glyph unicode="&#xb9;" horiz-adv-x="581" d="M45 1274l201 108h178v-663h-201v489l-123 -71z" />
<glyph unicode="&#xba;" horiz-adv-x="702" d="M53 1026q0 88 24.5 157.5t66.5 119t97.5 75t118.5 25.5t116.5 -18.5t91.5 -61.5t58.5 -113t20.5 -170q0 -88 -23.5 -158.5t-65.5 -119.5t-99.5 -76t-124.5 -27q-57 0 -108.5 19.5t-89.5 63.5t-60.5 114t-22.5 170zM104 403v156h494v-156h-494zM244 1034 q0 -96 24.5 -152.5t77.5 -56.5q51 0 81 49t30 160q0 90 -27 143.5t-80 53.5q-47 0 -76.5 -47t-29.5 -150z" />
<glyph unicode="&#xbb;" horiz-adv-x="935" d="M98 893l189 88l207 -406l-209 -413l-181 86l160 325zM479 911l195 90l194 -430l-194 -430l-189 86l154 344z" />
<glyph unicode="&#xbc;" horiz-adv-x="1234" d="M33 1274l200 108h179v-663h-201v489l-123 -71zM72 45l897 1397l153 -105l-897 -1394zM662 262l165 402h275v-408h67v-137h-67v-119h-176v119h-258zM803 254q12 0 30.5 1t36.5 1h37h27v309z" />
<glyph unicode="&#xbd;" horiz-adv-x="1271" d="M33 1274l200 108h179v-663h-201v489l-123 -71zM96 45l899 1397l152 -105l-897 -1394zM774 608q47 35 100.5 54.5t124.5 19.5q115 0 170.5 -58.5t55.5 -140.5q0 -39 -9.5 -71.5t-28 -62.5t-44 -59.5t-58.5 -64.5l-65 -73q16 2 63 2h99h57v-154h-444v139l94 105 q37 39 61.5 69.5t39 54t19.5 44t5 41.5q0 72 -74 71q-29 0 -54.5 -12t-41.5 -31z" />
<glyph unicode="&#xbe;" horiz-adv-x="1230" d="M43 727l39 129q20 -12 49 -18.5t59 -6.5q109 0 109 82q0 86 -121 86q-20 0 -38.5 -1t-28.5 -1v123h32q74 0 106 21.5t32 64.5q0 31 -20.5 50.5t-70.5 19.5q-29 0 -54 -9.5t-48 -23.5l-35 121q33 16 84 26.5t111 10.5q123 0 178 -51.5t55 -118.5q0 -53 -25.5 -91 t-72.5 -57q49 -8 86 -52t37 -103q0 -100 -75 -164t-214 -64q-47 0 -93 8.5t-81 18.5zM84 45l897 1397l154 -105l-897 -1394zM676 262l164 402h274v-408h68v-137h-68v-119h-174v119h-260zM815 254q12 0 30.5 1t37.5 1h37h26v309z" />
<glyph unicode="&#xbf;" horiz-adv-x="722" d="M45 121q0 80 24.5 135t60.5 100t74 85t66.5 88.5t40 110.5t-9.5 153h234q29 -96 22.5 -168t-32 -127.5t-62.5 -98.5t-72 -83t-59.5 -80.5t-24.5 -90.5q0 -94 84 -153.5t242 -67.5l-29 -219q-147 6 -252.5 42t-174 93.5t-100.5 129t-32 151.5zM268 1049q0 59 42 102 t104 43q61 0 104 -43t43 -102q0 -61 -43 -104.5t-104 -43.5t-103.5 43t-42.5 105z" />
<glyph unicode="&#xc0;" horiz-adv-x="1030" d="M0 0l336 1382h354l342 -1382h-262l-68 285h-395l-67 -285h-240zM237 1559l70 167l383 -147l-51 -123zM350 492h309l-118 493q-23 94 -35 178h-2q-12 -86 -35 -174z" />
<glyph unicode="&#xc1;" horiz-adv-x="1030" d="M0 0l336 1382h354l342 -1382h-262l-68 285h-395l-67 -285h-240zM332 1579l383 147l68 -167l-402 -103zM350 492h309l-118 493q-23 94 -35 178h-2q-12 -86 -35 -174z" />
<glyph unicode="&#xc2;" horiz-adv-x="1030" d="M0 0l336 1382h354l342 -1382h-262l-68 285h-395l-67 -285h-240zM234 1577l278 149l279 -149l-61 -121l-218 94l-217 -94zM350 492h309l-118 493q-23 94 -35 178h-2q-12 -86 -35 -174z" />
<glyph unicode="&#xc3;" horiz-adv-x="1030" d="M0 0l336 1382h354l342 -1382h-262l-68 285h-395l-67 -285h-240zM148 1550q35 78 91 123t146 45q47 0 80 -13t59.5 -29.5t50 -30t52.5 -13.5q72 0 117 86l114 -82q-35 -70 -90 -119t-145 -49q-47 0 -81 13.5t-59.5 30t-49 29.5t-52.5 13q-72 0 -116 -86zM350 492h309 l-118 493q-23 94 -35 178h-2q-12 -86 -35 -174z" />
<glyph unicode="&#xc4;" horiz-adv-x="1030" d="M0 0l336 1382h354l342 -1382h-262l-68 285h-395l-67 -285h-240zM205 1593q0 51 36 86t87 35t86 -34.5t35 -86.5q0 -51 -35 -87t-86 -36t-87 36t-36 87zM350 492h309l-118 493q-23 94 -35 178h-2q-12 -86 -35 -174zM572 1593q0 51 35 86t86 35t86 -34.5t35 -86.5 q0 -51 -35 -87t-86 -36t-86 36t-35 87z" />
<glyph unicode="&#xc5;" horiz-adv-x="1030" d="M0 0l328 1354q-53 55 -54 153q0 43 16.5 83t47.5 71t77 48t107 17q131 0 185.5 -59t54.5 -151q0 -94 -66 -156l336 -1360h-262l-68 285h-395l-67 -285h-240zM350 492h309l-118 493q-23 94 -35 178h-2q-12 -86 -35 -174zM432 1516q0 -102 88 -103q41 0 62.5 26.5 t21.5 67.5q0 100 -88 101q-41 0 -62.5 -27t-21.5 -65z" />
<glyph unicode="&#xc6;" horiz-adv-x="1286" d="M-57 0l514 1382h749v-211h-370v-356h348v-205h-348v-397h376v-213h-610v313h-299l-113 -313h-247zM367 508h235v661h-2q-12 -47 -30.5 -103t-32.5 -91z" />
<glyph unicode="&#xc7;" horiz-adv-x="868" d="M53 662q0 166 32 302t96.5 233t162.5 149.5t231 52.5q68 0 134.5 -12.5t119.5 -34.5l-55 -219q-86 41 -182 41q-72 0 -123 -36t-84 -100.5t-48 -154.5t-15 -197q0 -229 64.5 -352t201.5 -123q55 0 105 13.5t91 35.5l56 -213q-59 -29 -132 -47t-163 -18q-137 0 -230.5 47 t-152 134t-84 213t-25.5 286zM328 -387q78 66 95.5 138.5t-13.5 150.5h221q14 -49 14 -99q0 -49 -18 -95t-60 -92t-112 -89z" />
<glyph unicode="&#xc8;" horiz-adv-x="792" d="M100 0v1382h617v-211h-371v-356h350v-205h-350v-397h373v-213h-619zM113 1559l70 167l383 -147l-51 -123z" />
<glyph unicode="&#xc9;" horiz-adv-x="792" d="M100 0v1382h617v-211h-371v-356h350v-205h-350v-397h373v-213h-619zM215 1579l383 147l68 -167l-402 -103z" />
<glyph unicode="&#xca;" horiz-adv-x="792" d="M100 0v1382h617v-211h-371v-356h350v-205h-350v-397h373v-213h-619zM125 1577l278 149l279 -149l-61 -121l-218 94l-217 -94z" />
<glyph unicode="&#xcb;" horiz-adv-x="792" d="M100 0v1382h617v-211h-371v-356h350v-205h-350v-397h373v-213h-619zM100 1593q0 51 36 86t87 35t86 -34.5t35 -86.5q0 -51 -35 -87t-86 -36t-87 36t-36 87zM467 1593q0 51 35 86t86 35t86 -34.5t35 -86.5q0 -51 -35 -87t-86 -36t-86 36t-35 87z" />
<glyph unicode="&#xcc;" horiz-adv-x="446" d="M-55 1559l70 167l383 -147l-51 -123zM100 0v1382h246v-1382h-246z" />
<glyph unicode="&#xcd;" horiz-adv-x="446" d="M49 1579l383 147l68 -167l-402 -103zM100 0v1382h246v-1382h-246z" />
<glyph unicode="&#xce;" horiz-adv-x="446" d="M-51 1577l278 149l279 -149l-61 -121l-218 94l-217 -94zM100 0v1382h246v-1382h-246z" />
<glyph unicode="&#xcf;" horiz-adv-x="446" d="M-76 1593q0 51 36 86t87 35t86 -34.5t35 -86.5q0 -51 -35 -87t-86 -36t-87 36t-36 87zM100 0v1382h246v-1382h-246zM291 1593q0 51 35 86t86 35t86 -34.5t35 -86.5q0 -51 -35 -87t-86 -36t-86 36t-35 87z" />
<glyph unicode="&#xd0;" horiz-adv-x="1097" d="M16 608v193h105v581q66 2 162 4.5t194 2.5q123 0 227.5 -33t180.5 -112t117.5 -209t41.5 -324q0 -193 -43 -329t-121.5 -222t-189 -126t-244.5 -40q-90 0 -169.5 2t-155.5 6v606h-105zM367 215q20 -4 48.5 -6t57.5 -2q70 0 126 25.5t97 84t63.5 151.5t22.5 228 q0 244 -69.5 364t-231.5 120q-33 0 -62.5 -1t-51.5 -3v-375h178v-193h-178v-393z" />
<glyph unicode="&#xd1;" horiz-adv-x="1126" d="M100 0v1382h349l294 -776q16 -43 35 -102.5t37 -124.5q-4 70 -5 150.5t-2 164.5t-1 314v374h219v-1382h-326l-313 836q-20 55 -38.5 112.5t-35.5 122.5q2 -47 4 -114.5t5 -438.5v-518h-222zM203 1550q35 78 91 123t146 45q47 0 80 -13t59.5 -29.5t50 -30t52.5 -13.5 q72 0 117 86l114 -82q-35 -70 -90 -119t-145 -49q-47 0 -81 13.5t-59.5 30t-49 29.5t-52.5 13q-72 0 -116 -86z" />
<glyph unicode="&#xd2;" horiz-adv-x="1150" d="M49 680q0 156 35 289t103.5 229t171 150.5t237.5 54.5q131 0 227.5 -49t157.5 -139.5t91 -220t30 -289.5q0 -164 -35 -297.5t-104.5 -228.5t-171 -147t-234.5 -52q-258 0 -383 184t-125 516zM293 1559l70 167l383 -147l-51 -123zM309 698q0 -496 264 -495q135 0 203 127 t68 356q0 260 -68.5 377t-195.5 117q-129 0 -200 -121t-71 -361z" />
<glyph unicode="&#xd3;" horiz-adv-x="1150" d="M49 680q0 156 35 289t103.5 229t171 150.5t237.5 54.5q131 0 227.5 -49t157.5 -139.5t91 -220t30 -289.5q0 -164 -35 -297.5t-104.5 -228.5t-171 -147t-234.5 -52q-258 0 -383 184t-125 516zM309 698q0 -496 264 -495q135 0 203 127t68 356q0 260 -68.5 377t-195.5 117 q-129 0 -200 -121t-71 -361zM442 1579l383 147l68 -167l-402 -103z" />
<glyph unicode="&#xd4;" horiz-adv-x="1150" d="M49 680q0 156 35 289t103.5 229t171 150.5t237.5 54.5q131 0 227.5 -49t157.5 -139.5t91 -220t30 -289.5q0 -164 -35 -297.5t-104.5 -228.5t-171 -147t-234.5 -52q-258 0 -383 184t-125 516zM309 698q0 -496 264 -495q135 0 203 127t68 356q0 260 -68.5 377t-195.5 117 q-129 0 -200 -121t-71 -361zM309 1577l278 149l279 -149l-61 -121l-218 94l-217 -94z" />
<glyph unicode="&#xd5;" horiz-adv-x="1150" d="M49 680q0 156 35 289t103.5 229t171 150.5t237.5 54.5q131 0 227.5 -49t157.5 -139.5t91 -220t30 -289.5q0 -164 -35 -297.5t-104.5 -228.5t-171 -147t-234.5 -52q-258 0 -383 184t-125 516zM213 1550q35 78 91 123t146 45q47 0 80 -13t59.5 -29.5t50 -30t52.5 -13.5 q72 0 117 86l114 -82q-35 -70 -90 -119t-145 -49q-47 0 -81 13.5t-59.5 30t-49 29.5t-52.5 13q-72 0 -116 -86zM309 698q0 -496 264 -495q135 0 203 127t68 356q0 260 -68.5 377t-195.5 117q-129 0 -200 -121t-71 -361z" />
<glyph unicode="&#xd6;" horiz-adv-x="1150" d="M49 680q0 156 35 289t103.5 229t171 150.5t237.5 54.5q131 0 227.5 -49t157.5 -139.5t91 -220t30 -289.5q0 -164 -35 -297.5t-104.5 -228.5t-171 -147t-234.5 -52q-258 0 -383 184t-125 516zM276 1593q0 51 36 86t87 35t86 -34.5t35 -86.5q0 -51 -35 -87t-86 -36t-87 36 t-36 87zM309 698q0 -496 264 -495q135 0 203 127t68 356q0 260 -68.5 377t-195.5 117q-129 0 -200 -121t-71 -361zM643 1593q0 51 35 86t86 35t86 -34.5t35 -86.5q0 -51 -35 -87t-86 -36t-86 36t-35 87z" />
<glyph unicode="&#xd7;" d="M55 281l273 333l-273 332l148 121l248 -303l247 303l148 -121l-273 -332l273 -333l-148 -121l-247 305l-248 -305z" />
<glyph unicode="&#xd8;" horiz-adv-x="1150" d="M49 680q0 156 35 289t103.5 229t171 150.5t237.5 54.5q119 0 215 -45l92 180l166 -90l-108 -209q72 -90 106.5 -225t34.5 -309q0 -164 -35 -297.5t-104.5 -228.5t-171 -147t-234.5 -52q-125 0 -223 47l-86 -168l-166 90l104 203q-70 88 -103.5 221t-33.5 307zM289 698 q0 -166 49 -264l367 725q-53 37 -125 37q-135 0 -213 -125t-78 -373zM440 225q53 -39 131 -39q145 0 217 132.5t72 367.5q0 170 -47 275z" />
<glyph unicode="&#xd9;" horiz-adv-x="1103" d="M98 469v913h246v-897q0 -143 47 -221t166 -78q113 0 158 71t45 218v907h246v-888q0 -119 -26 -214.5t-81 -162t-141 -102t-205 -35.5q-133 0 -220 36.5t-139.5 101t-74 154.5t-21.5 197zM231 1559l70 167l383 -147l-51 -123z" />
<glyph unicode="&#xda;" horiz-adv-x="1103" d="M98 469v913h246v-897q0 -143 47 -221t166 -78q113 0 158 71t45 218v907h246v-888q0 -119 -26 -214.5t-81 -162t-141 -102t-205 -35.5q-133 0 -220 36.5t-139.5 101t-74 154.5t-21.5 197zM422 1579l383 147l68 -167l-402 -103z" />
<glyph unicode="&#xdb;" horiz-adv-x="1103" d="M98 469v913h246v-897q0 -143 47 -221t166 -78q113 0 158 71t45 218v907h246v-888q0 -119 -26 -214.5t-81 -162t-141 -102t-205 -35.5q-133 0 -220 36.5t-139.5 101t-74 154.5t-21.5 197zM277 1577l278 149l279 -149l-61 -121l-218 94l-217 -94z" />
<glyph unicode="&#xdc;" horiz-adv-x="1103" d="M98 469v913h246v-897q0 -143 47 -221t166 -78q113 0 158 71t45 218v907h246v-888q0 -119 -26 -214.5t-81 -162t-141 -102t-205 -35.5q-133 0 -220 36.5t-139.5 101t-74 154.5t-21.5 197zM246 1593q0 51 36 86t87 35t86 -34.5t35 -86.5q0 -51 -35 -87t-86 -36t-87 36 t-36 87zM613 1593q0 51 35 86t86 35t86 -34.5t35 -86.5q0 -51 -35 -87t-86 -36t-86 36t-35 87z" />
<glyph unicode="&#xdd;" horiz-adv-x="931" d="M-2 1382h268l142 -417q18 -53 36.5 -115t28.5 -113h2q14 55 31.5 114.5t34.5 104.5l137 426h258l-344 -907v-475h-246v475zM354 1579l383 147l68 -167l-402 -103z" />
<glyph unicode="&#xde;" horiz-adv-x="882" d="M100 0v1382h246v-208h82q207 0 313.5 -116t106.5 -317q0 -104 -32 -191t-89 -148.5t-139 -95.5t-180 -34h-31q-14 0 -31 4v-276h-246zM346 483q16 -4 33 -4h33q86 0 135 65.5t49 184.5q0 111 -42 174.5t-134 63.5h-33q-18 0 -41 -2v-482z" />
<glyph unicode="&#xdf;" horiz-adv-x="1009" d="M100 0v1038q0 119 30 206t83 143.5t127 84t162 27.5t153.5 -24.5t109.5 -65.5t66.5 -96.5t22.5 -118.5q0 -86 -26.5 -139.5t-59.5 -93t-59.5 -75.5t-26.5 -89q0 -41 20.5 -74t52 -62.5t68.5 -61.5t69 -72t52.5 -93t20.5 -127q0 -147 -97.5 -237t-275.5 -90q-43 0 -84 5 t-72 15l23 201q29 -14 64.5 -22.5t72.5 -8.5q61 0 92 35t31 82q0 49 -20.5 84t-51.5 63.5t-67.5 57t-67.5 64.5t-51.5 85t-20.5 123q0 76 27 124t57.5 88t57 84t26.5 114q0 135 -121 135q-72 0 -108.5 -56.5t-36.5 -179.5v-1073h-242z" />
<glyph unicode="&#xe0;" horiz-adv-x="854" d="M45 266q0 172 125 263.5t348 86.5v64q0 80 -32.5 125t-118.5 45q-53 0 -112.5 -19.5t-100.5 -46.5l-66 174q66 35 145.5 57.5t165.5 22.5q188 0 273.5 -86t85.5 -252v-432q0 -180 4 -268h-215q0 45 1 88t7 74l-2 2q-25 -82 -93.5 -132t-160.5 -50q-117 0 -185.5 71.5 t-68.5 212.5zM145 1378l137 150l299 -266l-106 -113zM279 291q0 -123 88 -123q33 0 60.5 20.5t48 55.5t31.5 79t11 93v41q-72 2 -118 -10.5t-72.5 -35t-37.5 -54t-11 -66.5z" />
<glyph unicode="&#xe1;" horiz-adv-x="854" d="M45 266q0 172 125 263.5t348 86.5v64q0 80 -32.5 125t-118.5 45q-53 0 -112.5 -19.5t-100.5 -46.5l-66 174q66 35 145.5 57.5t165.5 22.5q188 0 273.5 -86t85.5 -252v-432q0 -180 4 -268h-215q0 45 1 88t7 74l-2 2q-25 -82 -93.5 -132t-160.5 -50q-117 0 -185.5 71.5 t-68.5 212.5zM276 1262l301 266l138 -150l-332 -229zM279 291q0 -123 88 -123q33 0 60.5 20.5t48 55.5t31.5 79t11 93v41q-72 2 -118 -10.5t-72.5 -35t-37.5 -54t-11 -66.5z" />
<glyph unicode="&#xe2;" horiz-adv-x="854" d="M45 266q0 172 125 263.5t348 86.5v64q0 80 -32.5 125t-118.5 45q-53 0 -112.5 -19.5t-100.5 -46.5l-66 174q66 35 145.5 57.5t165.5 22.5q188 0 273.5 -86t85.5 -252v-432q0 -180 4 -268h-215q0 45 1 88t7 74l-2 2q-25 -82 -93.5 -132t-160.5 -50q-117 0 -185.5 71.5 t-68.5 212.5zM147 1257l277 267l278 -264l-96 -111l-184 156l-179 -156zM279 291q0 -123 88 -123q33 0 60.5 20.5t48 55.5t31.5 79t11 93v41q-72 2 -118 -10.5t-72.5 -35t-37.5 -54t-11 -66.5z" />
<glyph unicode="&#xe3;" horiz-adv-x="854" d="M45 266q0 172 125 263.5t348 86.5v64q0 80 -32.5 125t-118.5 45q-53 0 -112.5 -19.5t-100.5 -46.5l-66 174q66 35 145.5 57.5t165.5 22.5q188 0 273.5 -86t85.5 -252v-432q0 -180 4 -268h-215q0 45 1 88t7 74l-2 2q-25 -82 -93.5 -132t-160.5 -50q-117 0 -185.5 71.5 t-68.5 212.5zM86 1268q33 74 86 126t139 52q47 0 79 -13.5t56.5 -30t45 -29.5t45.5 -13q70 0 110 86l113 -82q-31 -74 -85 -125t-140 -51q-49 0 -81 13t-55.5 29.5t-43 30t-46.5 13.5q-37 0 -62.5 -22.5t-45.5 -63.5zM279 291q0 -123 88 -123q33 0 60.5 20.5t48 55.5 t31.5 79t11 93v41q-72 2 -118 -10.5t-72.5 -35t-37.5 -54t-11 -66.5z" />
<glyph unicode="&#xe4;" horiz-adv-x="854" d="M45 266q0 172 125 263.5t348 86.5v64q0 80 -32.5 125t-118.5 45q-53 0 -112.5 -19.5t-100.5 -46.5l-66 174q66 35 145.5 57.5t165.5 22.5q188 0 273.5 -86t85.5 -252v-432q0 -180 4 -268h-215q0 45 1 88t7 74l-2 2q-25 -82 -93.5 -132t-160.5 -50q-117 0 -185.5 71.5 t-68.5 212.5zM125 1315q0 53 38 91t91 38t90 -38t37 -91t-37.5 -91t-91.5 -38q-53 0 -90 38t-37 91zM279 291q0 -123 88 -123q33 0 60.5 20.5t48 55.5t31.5 79t11 93v41q-72 2 -118 -10.5t-72.5 -35t-37.5 -54t-11 -66.5zM467 1315q0 53 37 91t90 38t91 -38t38 -91 t-37.5 -91t-91.5 -38q-53 0 -90 38t-37 91z" />
<glyph unicode="&#xe5;" horiz-adv-x="854" d="M45 266q0 172 125 263.5t348 86.5v64q0 80 -32.5 125t-118.5 45q-53 0 -112.5 -19.5t-100.5 -46.5l-66 174q66 35 145.5 57.5t165.5 22.5q188 0 273.5 -86t85.5 -252v-432q0 -180 4 -268h-215q0 45 1 88t7 74l-2 2q-25 -82 -93.5 -132t-160.5 -50q-117 0 -185.5 71.5 t-68.5 212.5zM188 1335q0 88 63.5 153.5t184.5 65.5q131 0 185.5 -59.5t54.5 -151.5q0 -45 -16.5 -84.5t-48 -70.5t-78 -48.5t-107.5 -17.5q-129 0 -183.5 58.5t-54.5 154.5zM279 291q0 -123 88 -123q33 0 60.5 20.5t48 55.5t31.5 79t11 93v41q-72 2 -118 -10.5t-72.5 -35 t-37.5 -54t-11 -66.5zM346 1343q0 -102 88 -102q41 0 62.5 26.5t21.5 65.5q0 102 -88 103q-41 0 -62.5 -27t-21.5 -66z" />
<glyph unicode="&#xe6;" horiz-adv-x="1314" d="M45 266q0 172 125 263.5t348 86.5v70q0 78 -34.5 121t-121.5 43q-53 0 -108 -18.5t-96 -47.5l-76 177q66 35 148.5 56t175.5 21q192 1 258 -110q39 53 100 81.5t143 28.5q174 0 264.5 -121.5t90.5 -324.5q0 -27 -2.5 -58.5t-6.5 -64.5h-499v-23q0 -147 53 -212.5 t151 -65.5q68 0 122.5 15.5t113.5 43.5l59 -174q-78 -35 -160.5 -54t-172.5 -19q-123 0 -200 43t-118 141q-51 -90 -131 -136t-172 -46q-117 0 -185.5 71.5t-68.5 212.5zM279 291q0 -123 88 -123q33 0 60.5 20.5t48 55.5t31.5 79t11 93v41q-72 2 -118 -10.5t-72.5 -35 t-37.5 -54t-11 -66.5zM758 637h264q0 106 -29.5 163.5t-95.5 57.5t-100.5 -59.5t-38.5 -161.5z" />
<glyph unicode="&#xe7;" horiz-adv-x="694" d="M51 475q0 266 108.5 412.5t313.5 146.5q51 0 99.5 -8t93.5 -22l-58 -207q-61 31 -135 30q-84 0 -128 -84t-44 -241q0 -68 8 -124t27.5 -97t52.5 -63.5t80 -22.5q80 0 145 41l58 -199q-51 -25 -112.5 -39t-133.5 -14q-90 0 -159.5 27.5t-118 87t-73 152.5t-24.5 224z M209 -387q78 66 95.5 138.5t-13.5 150.5h221q14 -49 14 -99q0 -49 -18 -95t-60 -92t-112 -89z" />
<glyph unicode="&#xe8;" horiz-adv-x="860" d="M51 500q0 106 21.5 203.5t69.5 172t124 118.5t185 44q176 0 265 -121.5t89 -324.5q0 -27 -1 -58.5t-5 -64.5h-502v-23q0 -147 53 -212.5t154 -65.5q66 0 120 15.5t115 43.5l58 -174q-78 -35 -161 -54t-171 -19q-207 0 -310.5 122.5t-103.5 397.5zM168 1378l137 150 l299 -266l-106 -113zM301 637h266q0 106 -30.5 163.5t-96.5 57.5t-99.5 -59.5t-39.5 -161.5z" />
<glyph unicode="&#xe9;" horiz-adv-x="860" d="M51 500q0 106 21.5 203.5t69.5 172t124 118.5t185 44q176 0 265 -121.5t89 -324.5q0 -27 -1 -58.5t-5 -64.5h-502v-23q0 -147 53 -212.5t154 -65.5q66 0 120 15.5t115 43.5l58 -174q-78 -35 -161 -54t-171 -19q-207 0 -310.5 122.5t-103.5 397.5zM284 1262l301 266 l138 -150l-332 -229zM301 637h266q0 106 -30.5 163.5t-96.5 57.5t-99.5 -59.5t-39.5 -161.5z" />
<glyph unicode="&#xea;" horiz-adv-x="860" d="M51 500q0 106 21.5 203.5t69.5 172t124 118.5t185 44q176 0 265 -121.5t89 -324.5q0 -27 -1 -58.5t-5 -64.5h-502v-23q0 -147 53 -212.5t154 -65.5q66 0 120 15.5t115 43.5l58 -174q-78 -35 -161 -54t-171 -19q-207 0 -310.5 122.5t-103.5 397.5zM160 1257l277 267 l278 -264l-96 -111l-184 156l-179 -156zM301 637h266q0 106 -30.5 163.5t-96.5 57.5t-99.5 -59.5t-39.5 -161.5z" />
<glyph unicode="&#xeb;" horiz-adv-x="860" d="M51 500q0 106 21.5 203.5t69.5 172t124 118.5t185 44q176 0 265 -121.5t89 -324.5q0 -27 -1 -58.5t-5 -64.5h-502v-23q0 -147 53 -212.5t154 -65.5q66 0 120 15.5t115 43.5l58 -174q-78 -35 -161 -54t-171 -19q-207 0 -310.5 122.5t-103.5 397.5zM139 1315q0 53 38 91 t91 38t90 -38t37 -91t-37.5 -91t-91.5 -38q-53 0 -90 38t-37 91zM301 637h266q0 106 -30.5 163.5t-96.5 57.5t-99.5 -59.5t-39.5 -161.5zM481 1315q0 53 37 91t90 38t91 -38t38 -91t-37.5 -91t-91.5 -38q-53 0 -90 38t-37 91z" />
<glyph unicode="&#xec;" horiz-adv-x="438" d="M-27 1378l137 150l299 -266l-106 -113zM100 0v1018h242v-1018h-242z" />
<glyph unicode="&#xed;" horiz-adv-x="438" d="M43 1262l301 266l138 -150l-332 -229zM100 0v1018h242v-1018h-242z" />
<glyph unicode="&#xee;" horiz-adv-x="438" d="M-55 1257l277 267l278 -264l-96 -111l-184 156l-179 -156zM100 0v1018h242v-1018h-242z" />
<glyph unicode="&#xef;" horiz-adv-x="438" d="M-76 1315q0 53 38 91t91 38t90 -38t37 -91t-37.5 -91t-91.5 -38q-53 0 -90 38t-37 91zM100 0v1018h242v-1018h-242zM266 1315q0 53 37 91t90 38t91 -38t38 -91t-37.5 -91t-91.5 -38q-53 0 -90 38t-37 91z" />
<glyph unicode="&#xf0;" horiz-adv-x="933" d="M49 496q0 121 28.5 220t80 169.5t123 108.5t157.5 38q82 0 109 -59q-16 47 -42 94t-61 92l-176 -84l-116 146l157 75q-31 29 -64.5 54.5t-72.5 48.5l236 106q35 -23 68.5 -49t64.5 -57l166 78l116 -144l-157 -73q199 -266 198 -654q0 -170 -33.5 -289.5t-92 -194.5 t-135.5 -108.5t-163 -33.5q-205 0 -298 131t-93 385zM297 528q0 -350 164 -350q74 0 113.5 89t39.5 292q0 61 -9 112.5t-29.5 88.5t-51 58.5t-75.5 21.5q-78 0 -115 -82t-37 -230z" />
<glyph unicode="&#xf1;" horiz-adv-x="931" d="M98 0v1018h224q0 -41 -2.5 -91t-8.5 -91h2q37 94 106.5 148t168.5 54q70 0 118 -24.5t76.5 -67.5t41 -102.5t12.5 -128.5v-715h-240v672q0 78 -19.5 117.5t-68.5 39.5q-39 0 -69.5 -30.5t-52 -77.5t-34 -106.5t-12.5 -114.5v-500h-242zM121 1268q33 74 86 126t139 52 q47 0 79 -13.5t56.5 -30t45 -29.5t45.5 -13q70 0 110 86l113 -82q-31 -74 -85 -125t-140 -51q-49 0 -81 13t-55.5 29.5t-43 30t-46.5 13.5q-37 0 -62.5 -22.5t-45.5 -63.5z" />
<glyph unicode="&#xf2;" horiz-adv-x="911" d="M49 500q0 111 26.5 209t79 170.5t131.5 115.5t183 43q106 0 181 -36.5t122 -104.5t69.5 -164t22.5 -213q0 -115 -26.5 -213t-78.5 -171t-131 -114.5t-184 -41.5q-104 0 -180 35.5t-123 103t-69.5 164t-22.5 217.5zM203 1378l137 150l299 -266l-106 -113zM297 522 q0 -174 39 -259t127 -85q76 0 113.5 82t37.5 238q0 172 -37.5 257t-127.5 85q-76 0 -114 -81t-38 -237z" />
<glyph unicode="&#xf3;" horiz-adv-x="911" d="M49 500q0 111 26.5 209t79 170.5t131.5 115.5t183 43q106 0 181 -36.5t122 -104.5t69.5 -164t22.5 -213q0 -115 -26.5 -213t-78.5 -171t-131 -114.5t-184 -41.5q-104 0 -180 35.5t-123 103t-69.5 164t-22.5 217.5zM297 522q0 -174 39 -259t127 -85q76 0 113.5 82 t37.5 238q0 172 -37.5 257t-127.5 85q-76 0 -114 -81t-38 -237zM311 1262l301 266l138 -150l-332 -229z" />
<glyph unicode="&#xf4;" horiz-adv-x="911" d="M49 500q0 111 26.5 209t79 170.5t131.5 115.5t183 43q106 0 181 -36.5t122 -104.5t69.5 -164t22.5 -213q0 -115 -26.5 -213t-78.5 -171t-131 -114.5t-184 -41.5q-104 0 -180 35.5t-123 103t-69.5 164t-22.5 217.5zM180 1257l277 267l278 -264l-96 -111l-184 156 l-179 -156zM297 522q0 -174 39 -259t127 -85q76 0 113.5 82t37.5 238q0 172 -37.5 257t-127.5 85q-76 0 -114 -81t-38 -237z" />
<glyph unicode="&#xf5;" horiz-adv-x="911" d="M49 500q0 111 26.5 209t79 170.5t131.5 115.5t183 43q106 0 181 -36.5t122 -104.5t69.5 -164t22.5 -213q0 -115 -26.5 -213t-78.5 -171t-131 -114.5t-184 -41.5q-104 0 -180 35.5t-123 103t-69.5 164t-22.5 217.5zM109 1268q33 74 86 126t139 52q47 0 79 -13.5t56.5 -30 t45 -29.5t45.5 -13q70 0 110 86l113 -82q-31 -74 -85 -125t-140 -51q-49 0 -81 13t-55.5 29.5t-43 30t-46.5 13.5q-37 0 -62.5 -22.5t-45.5 -63.5zM297 522q0 -174 39 -259t127 -85q76 0 113.5 82t37.5 238q0 172 -37.5 257t-127.5 85q-76 0 -114 -81t-38 -237z" />
<glyph unicode="&#xf6;" horiz-adv-x="911" d="M49 500q0 111 26.5 209t79 170.5t131.5 115.5t183 43q106 0 181 -36.5t122 -104.5t69.5 -164t22.5 -213q0 -115 -26.5 -213t-78.5 -171t-131 -114.5t-184 -41.5q-104 0 -180 35.5t-123 103t-69.5 164t-22.5 217.5zM157 1315q0 53 38 91t91 38t90 -38t37 -91t-37.5 -91 t-91.5 -38q-53 0 -90 38t-37 91zM297 522q0 -174 39 -259t127 -85q76 0 113.5 82t37.5 238q0 172 -37.5 257t-127.5 85q-76 0 -114 -81t-38 -237zM499 1315q0 53 37 91t90 38t91 -38t38 -91t-37.5 -91t-91.5 -38q-53 0 -90 38t-37 91z" />
<glyph unicode="&#xf7;" d="M47 510v209h807v-209h-807zM301 215q0 63 43.5 106.5t106.5 43.5t106 -43t43 -107q0 -63 -43 -106t-106 -43t-106.5 43t-43.5 106zM301 1014q0 63 43.5 106t106.5 43t106 -43t43 -106t-43 -107.5t-106 -44.5t-106.5 44t-43.5 108z" />
<glyph unicode="&#xf8;" horiz-adv-x="911" d="M49 500q0 113 26.5 211t79 170.5t132.5 114.5t184 42q80 0 145 -24l86 176l136 -62l-95 -194q61 -68 91 -172.5t30 -241.5q0 -115 -26.5 -213t-78.5 -171t-132 -114.5t-185 -41.5q-41 0 -75.5 6t-69.5 16l-84 -174l-137 59l96 197q-63 66 -93 170t-30 246zM274 522 q0 -113 29 -176l221 488q-35 18 -78 18q-86 0 -129 -84t-43 -246zM387 186q37 -18 80 -18q84 0 127 83t43 243q0 117 -29 174z" />
<glyph unicode="&#xf9;" horiz-adv-x="931" d="M96 303v715h242v-672q0 -78 18.5 -118t67.5 -40q39 0 69.5 31t53 78t35 106.5t12.5 114.5v500h240v-1018h-224q0 41 2 91t9 91h-3q-35 -94 -105.5 -148t-168.5 -54q-70 0 -117 23.5t-76.5 66.5t-42 102t-12.5 131zM168 1378l137 150l299 -266l-106 -113z" />
<glyph unicode="&#xfa;" horiz-adv-x="931" d="M96 303v715h242v-672q0 -78 18.5 -118t67.5 -40q39 0 69.5 31t53 78t35 106.5t12.5 114.5v500h240v-1018h-224q0 41 2 91t9 91h-3q-35 -94 -105.5 -148t-168.5 -54q-70 0 -117 23.5t-76.5 66.5t-42 102t-12.5 131zM338 1262l301 266l138 -150l-332 -229z" />
<glyph unicode="&#xfb;" horiz-adv-x="931" d="M96 303v715h242v-672q0 -78 18.5 -118t67.5 -40q39 0 69.5 31t53 78t35 106.5t12.5 114.5v500h240v-1018h-224q0 41 2 91t9 91h-3q-35 -94 -105.5 -148t-168.5 -54q-70 0 -117 23.5t-76.5 66.5t-42 102t-12.5 131zM178 1257l277 267l278 -264l-96 -111l-184 156 l-179 -156z" />
<glyph unicode="&#xfc;" horiz-adv-x="931" d="M96 303v715h242v-672q0 -78 18.5 -118t67.5 -40q39 0 69.5 31t53 78t35 106.5t12.5 114.5v500h240v-1018h-224q0 41 2 91t9 91h-3q-35 -94 -105.5 -148t-168.5 -54q-70 0 -117 23.5t-76.5 66.5t-42 102t-12.5 131zM155 1315q0 53 38 91t91 38t90 -38t37 -91t-37.5 -91 t-91.5 -38q-53 0 -90 38t-37 91zM497 1315q0 53 37 91t90 38t91 -38t38 -91t-37.5 -91t-91.5 -38q-53 0 -90 38t-37 91z" />
<glyph unicode="&#xfd;" horiz-adv-x="843" d="M-31 -483l29 204q18 -4 45 -7t49 -3q29 0 55.5 8.5t51 30t46 58t42.5 96.5l14 35l-305 1079h262l125 -514q14 -61 27.5 -127t23.5 -137h2q10 76 23.5 156.5t27.5 150.5l99 471h260l-256 -965q-72 -272 -198 -407t-343 -135q-18 0 -37.5 1t-42.5 5zM319 1262l301 266 l138 -150l-332 -229z" />
<glyph unicode="&#xfe;" horiz-adv-x="919" d="M100 -481v1970h242v-412q0 -55 -3 -108.5t-11 -108.5l2 -2q33 86 94 133t154 47q139 0 216.5 -118.5t77.5 -364.5q0 -270 -112.5 -417.5t-345.5 -147.5q-18 0 -35 1t-37 5v-477h-242zM342 203q20 -10 44 -14.5t50 -4.5q43 0 78 17.5t59.5 57.5t37 106.5t12.5 162.5 q0 145 -28 223t-89 78q-37 0 -67.5 -30.5t-52 -80.5t-33 -111.5t-11.5 -123.5v-280z" />
<glyph unicode="&#xff;" horiz-adv-x="843" d="M-31 -483l29 204q18 -4 45 -7t49 -3q29 0 55.5 8.5t51 30t46 58t42.5 96.5l14 35l-305 1079h262l125 -514q14 -61 27.5 -127t23.5 -137h2q10 76 23.5 156.5t27.5 150.5l99 471h260l-256 -965q-72 -272 -198 -407t-343 -135q-18 0 -37.5 1t-42.5 5zM118 1315q0 53 38 91 t91 38t90 -38t37 -91t-37.5 -91t-91.5 -38q-53 0 -90 38t-37 91zM460 1315q0 53 37 91t90 38t91 -38t38 -91t-37.5 -91t-91.5 -38q-53 0 -90 38t-37 91z" />
<glyph unicode="&#x152;" horiz-adv-x="1378" d="M49 680q0 156 35 288t103.5 227t171 148.5t237.5 53.5q41 0 80 -3t80 -12h547v-211h-371v-356h350v-205h-350v-397h373v-213h-560q-45 -8 -92 -11t-96 -3q-258 0 -383 181t-125 513zM309 698q0 -250 64.5 -370.5t199.5 -120.5q27 0 56.5 6t60.5 23v917q-29 12 -57.5 17.5 t-52.5 5.5q-129 0 -200 -119t-71 -359z" />
<glyph unicode="&#x153;" horiz-adv-x="1413" d="M49 500q0 111 26.5 209t79 170.5t131.5 115.5t183 43q184 0 270 -147q41 63 103.5 105t161.5 42q176 0 266 -121.5t90 -324.5q0 -27 -2 -58.5t-6 -64.5h-500v-23q0 -147 53 -212.5t152 -65.5q68 0 122 15.5t113 43.5l60 -174q-78 -35 -161 -54t-173 -19q-104 0 -179 37.5 t-116 117.5q-43 -72 -110.5 -113.5t-168.5 -41.5q-104 0 -180 35.5t-123 103t-69.5 164t-22.5 217.5zM297 522q0 -174 39 -259t127 -85q76 0 113.5 82t37.5 238q0 174 -37.5 258t-127.5 84q-76 0 -114 -81t-38 -237zM856 637h264q0 106 -29.5 163.5t-95.5 57.5t-100.5 -59.5 t-38.5 -161.5z" />
<glyph unicode="&#x178;" horiz-adv-x="931" d="M-2 1382h268l142 -417q18 -53 36.5 -115t28.5 -113h2q14 55 31.5 114.5t34.5 104.5l137 426h258l-344 -907v-475h-246v475zM162 1593q0 51 36 86t87 35t86 -34.5t35 -86.5q0 -51 -35 -87t-86 -36t-87 36t-36 87zM529 1593q0 51 35 86t86 35t86 -34.5t35 -86.5 q0 -51 -35 -87t-86 -36t-86 36t-35 87z" />
<glyph unicode="&#x2c6;" horiz-adv-x="649" d="M47 1257l277 267l278 -264l-96 -111l-184 156l-179 -156z" />
<glyph unicode="&#x2dc;" horiz-adv-x="831" d="M86 1268q33 74 86 126t139 52q47 0 79 -13.5t56.5 -30t45 -29.5t45.5 -13q70 0 110 86l113 -82q-31 -74 -85 -125t-140 -51q-49 0 -81 13t-55.5 29.5t-43 30t-46.5 13.5q-37 0 -62.5 -22.5t-45.5 -63.5z" />
<glyph unicode="&#x2000;" horiz-adv-x="863" />
<glyph unicode="&#x2001;" horiz-adv-x="1726" />
<glyph unicode="&#x2002;" horiz-adv-x="863" />
<glyph unicode="&#x2003;" horiz-adv-x="1726" />
<glyph unicode="&#x2004;" horiz-adv-x="575" />
<glyph unicode="&#x2005;" horiz-adv-x="431" />
<glyph unicode="&#x2006;" horiz-adv-x="287" />
<glyph unicode="&#x2007;" horiz-adv-x="287" />
<glyph unicode="&#x2008;" horiz-adv-x="215" />
<glyph unicode="&#x2009;" horiz-adv-x="345" />
<glyph unicode="&#x200a;" horiz-adv-x="95" />
<glyph unicode="&#x2010;" horiz-adv-x="475" d="M51 516v199h387v-199h-387z" />
<glyph unicode="&#x2011;" horiz-adv-x="475" d="M51 516v199h387v-199h-387z" />
<glyph unicode="&#x2012;" horiz-adv-x="475" d="M51 516v199h387v-199h-387z" />
<glyph unicode="&#x2013;" d="M0 508v213h901v-213h-901z" />
<glyph unicode="&#x2014;" horiz-adv-x="1638" d="M141 508v213h1356v-213h-1356z" />
<glyph unicode="&#x2018;" horiz-adv-x="444" d="M72 1098q0 90 52 204.5t179 235.5l100 -90q-90 -111 -101 -184.5t32 -126.5q27 -33 31 -73t-10.5 -76t-48.5 -60.5t-83 -24.5q-66 0 -108.5 53.5t-42.5 141.5z" />
<glyph unicode="&#x2019;" horiz-adv-x="444" d="M55 981q88 111 100.5 183.5t-34.5 127.5q-27 31 -31 72t11.5 77t49 60.5t82.5 24.5q66 0 109 -53.5t44 -142.5t-52 -203.5t-178 -237.5z" />
<glyph unicode="&#x201a;" horiz-adv-x="444" d="M41 -254q88 113 99.5 184.5t-34.5 126.5q-27 33 -30.5 74t11.5 76t49 59.5t85 24.5q66 0 110 -53.5t44 -141.5t-53.5 -202.5t-180.5 -235.5z" />
<glyph unicode="&#x201c;" horiz-adv-x="780" d="M72 1130q0 82 48 188.5t163 219.5l94 -76q-84 -109 -94.5 -177t30.5 -120q25 -31 28 -67.5t-10.5 -69.5t-44 -55.5t-75.5 -22.5q-59 0 -99 49.5t-40 130.5zM436 1130q0 82 47 186.5t160 215.5l94 -76q-80 -104 -91 -171.5t30 -119.5q25 -31 28 -67.5t-10.5 -69.5 t-44.5 -55.5t-76 -22.5q-59 0 -98 49.5t-39 130.5z" />
<glyph unicode="&#x201d;" horiz-adv-x="780" d="M57 1020q80 104 91.5 173t-29.5 118q-25 31 -29 68.5t10.5 69.5t45 54.5t75.5 22.5q59 0 98 -49.5t39 -130.5q0 -82 -47 -186.5t-159 -215.5zM418 1014q82 109 93 177.5t-30 119.5q-25 31 -27.5 68.5t10.5 69.5t44 54.5t76 22.5q59 0 99 -49.5t40 -130.5 q0 -82 -48 -188.5t-163 -219.5z" />
<glyph unicode="&#x201e;" horiz-adv-x="780" d="M43 -229q80 104 91 172.5t-30 117.5q-25 31 -28.5 69t10.5 69.5t44 54t77 22.5q59 0 98 -49t39 -131t-47 -186.5t-160 -214.5zM401 -236q82 109 93.5 177.5t-29.5 119.5q-25 31 -28 69t10.5 69.5t44 54t75.5 22.5q59 0 99.5 -49t40.5 -131t-48.5 -188.5t-162.5 -218.5z " />
<glyph unicode="&#x2022;" horiz-adv-x="708" d="M78 614q0 57 21.5 107.5t59.5 88.5t88 59.5t107 21.5t107.5 -21.5t88.5 -59.5t59.5 -88t21.5 -108q0 -57 -21.5 -107t-59.5 -88t-88 -59.5t-108 -21.5q-57 0 -107 21.5t-88 59.5t-59.5 88t-21.5 107z" />
<glyph unicode="&#x2026;" horiz-adv-x="1224" d="M72 131q0 61 44 105.5t105 44.5t105.5 -44t44.5 -106q0 -59 -44 -103t-106 -44q-61 0 -105 44t-44 103zM463 131q0 61 44 105.5t105 44.5t105.5 -44t44.5 -106q0 -59 -44 -103t-106 -44q-61 0 -105 44t-44 103zM856 131q0 61 44.5 105.5t103.5 44.5q63 0 107 -44t44 -106 q0 -59 -44 -103t-107 -44q-59 0 -103.5 44t-44.5 103z" />
<glyph unicode="&#x202f;" horiz-adv-x="345" />
<glyph unicode="&#x2039;" horiz-adv-x="565" d="M68 571l208 430l187 -86l-164 -344l170 -342l-193 -88z" />
<glyph unicode="&#x203a;" horiz-adv-x="565" d="M96 913l193 88l209 -430l-209 -432l-187 88l164 344z" />
<glyph unicode="&#x205f;" horiz-adv-x="431" />
<glyph unicode="&#x20ac;" d="M2 449v167h94v43v48t2 51h-96v166h119q18 106 56 194t95.5 150.5t135 96.5t176.5 34q70 0 133 -17.5t110 -50.5l-77 -201q-66 53 -164 54q-94 0 -143.5 -72t-67.5 -188h274v-166h-295q-2 -16 -2 -35v-37v-35q0 -18 2 -35h295v-167h-276q20 -121 69.5 -185.5t141.5 -64.5 q53 0 98 14t82 47l72 -192q-55 -41 -128 -63.5t-165 -22.5q-104 0 -181 31.5t-129.5 92t-82 146.5t-41.5 197h-107z" />
<glyph unicode="&#x2122;" horiz-adv-x="1169" d="M51 1229v153h377v-153h-98v-422h-176v422h-103zM436 807l64 575h209l51 -264l14 -102l14 96l54 270h217l65 -575h-170l-24 293l-8 94l-15 -84l-53 -303h-172l-49 305l-15 82l-4 -74l-28 -313h-150z" />
<glyph unicode="&#xe000;" horiz-adv-x="1013" d="M0 0v1014h1014v-1014h-1014z" />
<glyph unicode="&#xfb01;" horiz-adv-x="970" d="M2 827v191h127v59q0 205 110.5 313.5t321.5 108.5q63 0 134 -10t132 -27l-43 -200q-49 16 -108.5 27t-108.5 11q-102 0 -149 -54t-47 -152v-76h501v-1018h-241v827h-260v-827h-242v827h-127z" />
<glyph unicode="&#xfb02;" horiz-adv-x="972" d="M2 827v191h127v90q0 90 23.5 162.5t73.5 123t129 78t190 27.5q78 0 164 -8t163 -23v-1468h-239v1286q-23 6 -49.5 10t-53.5 4q-78 0 -118.5 -45t-40.5 -143v-94h155v-191h-155v-827h-242v827h-127z" />
</font>
</defs>
</svg>
